<?xml version="1.0" encoding="utf-8" standalone="no"?>
<!DOCTYPE svg PUBLIC "-//W3C//DTD SVG 1.1//EN"
  "http://www.w3.org/Graphics/SVG/1.1/DTD/svg11.dtd">
<svg xmlns:xlink="http://www.w3.org/1999/xlink" width="504pt" height="288pt" viewBox="0 0 504 288" xmlns="http://www.w3.org/2000/svg" version="1.1">
 <metadata>
  <rdf:RDF xmlns:dc="http://purl.org/dc/elements/1.1/" xmlns:cc="http://creativecommons.org/ns#" xmlns:rdf="http://www.w3.org/1999/02/22-rdf-syntax-ns#">
   <cc:Work>
    <dc:type rdf:resource="http://purl.org/dc/dcmitype/StillImage"/>
    <dc:date>2026-04-13T22:09:51.520448</dc:date>
    <dc:format>image/svg+xml</dc:format>
    <dc:creator>
     <cc:Agent>
      <dc:title>Matplotlib v3.10.8, https://matplotlib.org/</dc:title>
     </cc:Agent>
    </dc:creator>
   </cc:Work>
  </rdf:RDF>
 </metadata>
 <defs>
  <style type="text/css">*{stroke-linejoin: round; stroke-linecap: butt}</style>
 </defs>
 <g id="figure_1">
  <g id="patch_1">
   <path d="M 0 288 
L 504 288 
L 504 0 
L 0 0 
L 0 288 
z
" style="fill: none"/>
  </g>
  <g id="axes_1">
   <g id="patch_2">
    <path d="M 33.64 260.12 
L 493.2 260.12 
L 493.2 10.8 
L 33.64 10.8 
L 33.64 260.12 
z
" style="fill: none"/>
   </g>
   <g id="FillBetweenPolyCollection_1">
    <defs>
     <path id="mad98829695" d="M 54.529091 -39.212727 
L 54.529091 -39.21315 
L 55.576163 -39.213206 
L 56.623235 -39.213269 
L 57.670308 -39.213341 
L 58.71738 -39.213421 
L 59.764452 -39.213511 
L 60.811524 -39.213613 
L 61.858596 -39.213727 
L 62.905669 -39.213855 
L 63.952741 -39.213999 
L 64.999813 -39.21416 
L 66.046885 -39.214341 
L 67.093958 -39.214543 
L 68.14103 -39.21477 
L 69.188102 -39.215023 
L 70.235174 -39.215306 
L 71.282247 -39.215622 
L 72.329319 -39.215974 
L 73.376391 -39.216367 
L 74.423463 -39.216806 
L 75.470535 -39.217294 
L 76.517608 -39.217837 
L 77.56468 -39.218442 
L 78.611752 -39.219114 
L 79.658824 -39.21986 
L 80.705897 -39.220689 
L 81.752969 -39.221609 
L 82.800041 -39.222628 
L 83.847113 -39.223758 
L 84.894185 -39.225009 
L 85.941258 -39.226393 
L 86.98833 -39.227923 
L 88.035402 -39.229615 
L 89.082474 -39.231482 
L 90.129547 -39.233544 
L 91.176619 -39.235817 
L 92.223691 -39.238322 
L 93.270763 -39.241082 
L 94.317835 -39.244119 
L 95.364908 -39.24746 
L 96.41198 -39.251132 
L 97.459052 -39.255165 
L 98.506124 -39.259593 
L 99.553197 -39.26445 
L 100.600269 -39.269775 
L 101.647341 -39.275609 
L 102.694413 -39.281996 
L 103.741486 -39.288983 
L 104.788558 -39.296623 
L 105.83563 -39.30497 
L 106.882702 -39.314084 
L 107.929774 -39.324028 
L 108.976847 -39.334871 
L 110.023919 -39.346686 
L 111.070991 -39.359552 
L 112.118063 -39.373553 
L 113.165136 -39.388778 
L 114.212208 -39.405324 
L 115.25928 -39.423292 
L 116.306352 -39.442792 
L 117.353424 -39.46394 
L 118.400497 -39.486859 
L 119.447569 -39.511682 
L 120.494641 -39.538548 
L 121.541713 -39.567605 
L 122.588786 -39.599011 
L 123.635858 -39.632932 
L 124.68293 -39.669545 
L 125.730002 -39.709037 
L 126.777075 -39.751603 
L 127.824147 -39.797453 
L 128.871219 -39.846806 
L 129.918291 -39.899892 
L 130.965363 -39.956955 
L 132.012436 -40.018251 
L 133.059508 -40.084048 
L 134.10658 -40.154627 
L 135.153652 -40.230284 
L 136.200725 -40.311328 
L 137.247797 -40.398081 
L 138.294869 -40.490883 
L 139.341941 -40.590084 
L 140.389013 -40.696053 
L 141.436086 -40.809171 
L 142.483158 -40.929837 
L 143.53023 -41.058463 
L 144.577302 -41.195479 
L 145.624375 -41.341328 
L 146.671447 -41.496472 
L 147.718519 -41.661384 
L 148.765591 -41.836556 
L 149.812663 -42.022494 
L 150.859736 -42.219719 
L 151.906808 -42.428767 
L 152.95388 -42.650189 
L 154.000952 -42.884548 
L 155.048025 -43.132423 
L 156.095097 -43.394403 
L 157.142169 -43.671092 
L 158.189241 -43.963103 
L 159.236314 -44.271063 
L 160.283386 -44.595604 
L 161.330458 -44.937371 
L 162.37753 -45.297015 
L 163.424602 -45.675192 
L 164.471675 -46.072565 
L 165.518747 -46.4898 
L 166.565819 -46.927564 
L 167.612891 -47.386527 
L 168.659964 -47.867357 
L 169.707036 -48.370717 
L 170.754108 -48.897268 
L 171.80118 -49.447662 
L 172.848252 -50.022545 
L 173.895325 -50.622549 
L 174.942397 -51.248294 
L 175.989469 -51.900385 
L 177.036541 -52.579407 
L 178.083614 -53.285927 
L 179.130686 -54.020486 
L 180.177758 -54.783603 
L 181.22483 -55.575766 
L 182.271902 -56.397432 
L 183.318975 -57.249025 
L 184.366047 -58.130931 
L 185.413119 -59.0435 
L 186.460191 -59.987035 
L 187.507264 -60.961797 
L 188.554336 -61.967999 
L 189.601408 -63.005802 
L 190.64848 -64.075314 
L 191.695553 -65.176587 
L 192.742625 -66.309615 
L 193.789697 -67.474328 
L 194.836769 -68.670596 
L 195.883841 -69.898218 
L 196.930914 -71.156929 
L 197.977986 -72.44639 
L 199.025058 -73.766191 
L 200.07213 -75.115845 
L 201.119203 -76.494791 
L 202.166275 -77.902388 
L 203.213347 -79.337918 
L 204.260419 -80.80058 
L 205.307491 -82.289494 
L 206.354564 -83.803695 
L 207.401636 -85.342137 
L 208.448708 -86.903691 
L 209.49578 -88.487146 
L 210.542853 -90.091207 
L 211.589925 -91.714497 
L 212.636997 -93.355558 
L 213.684069 -95.012854 
L 214.731141 -96.684767 
L 215.778214 -98.369605 
L 216.825286 -100.065599 
L 217.872358 -101.770909 
L 218.91943 -103.483624 
L 219.966503 -105.201766 
L 221.013575 -106.923295 
L 222.060647 -108.646107 
L 223.107719 -110.368045 
L 224.154792 -112.086897 
L 225.201864 -113.800405 
L 226.248936 -115.506265 
L 227.296008 -117.202136 
L 228.34308 -118.885641 
L 229.390153 -120.554378 
L 230.437225 -122.205918 
L 231.484297 -123.837818 
L 232.531369 -125.447622 
L 233.578442 -127.032869 
L 234.625514 -128.591097 
L 235.672586 -130.119854 
L 236.719658 -131.616698 
L 237.76673 -133.07921 
L 238.813803 -134.504993 
L 239.860875 -135.891687 
L 240.907947 -137.236969 
L 241.955019 -138.538559 
L 243.002092 -139.794234 
L 244.049164 -141.001826 
L 245.096236 -142.159231 
L 246.143308 -143.264418 
L 247.19038 -144.315429 
L 248.237453 -145.310392 
L 249.284525 -146.247521 
L 250.331597 -147.125121 
L 251.378669 -147.9416 
L 252.425742 -148.695464 
L 253.472814 -149.385329 
L 254.519886 -150.009924 
L 255.566958 -150.568092 
L 256.614031 -151.058795 
L 257.661103 -151.481118 
L 258.708175 -151.834271 
L 259.755247 -152.117594 
L 260.802319 -152.330554 
L 261.849392 -152.47275 
L 262.896464 -152.543915 
L 263.943536 -152.543915 
L 264.990608 -152.47275 
L 266.037681 -152.330554 
L 267.084753 -152.117594 
L 268.131825 -151.834271 
L 269.178897 -151.481118 
L 270.225969 -151.058795 
L 271.273042 -150.568092 
L 272.320114 -150.009924 
L 273.367186 -149.385329 
L 274.414258 -148.695464 
L 275.461331 -147.9416 
L 276.508403 -147.125121 
L 277.555475 -146.247521 
L 278.602547 -145.310392 
L 279.64962 -144.315429 
L 280.696692 -143.264418 
L 281.743764 -142.159231 
L 282.790836 -141.001826 
L 283.837908 -139.794234 
L 284.884981 -138.538559 
L 285.932053 -137.236969 
L 286.979125 -135.891687 
L 288.026197 -134.504993 
L 289.07327 -133.07921 
L 290.120342 -131.616698 
L 291.167414 -130.119854 
L 292.214486 -128.591097 
L 293.261558 -127.032869 
L 294.308631 -125.447622 
L 295.355703 -123.837818 
L 296.402775 -122.205918 
L 297.449847 -120.554378 
L 298.49692 -118.885641 
L 299.543992 -117.202136 
L 300.591064 -115.506265 
L 301.638136 -113.800405 
L 302.685208 -112.086897 
L 303.732281 -110.368045 
L 304.779353 -108.646107 
L 305.826425 -106.923295 
L 306.873497 -105.201766 
L 307.92057 -103.483624 
L 308.967642 -101.770909 
L 310.014714 -100.065599 
L 311.061786 -98.369605 
L 312.108859 -96.684767 
L 313.155931 -95.012854 
L 314.203003 -93.355558 
L 315.250075 -91.714497 
L 316.297147 -90.091207 
L 317.34422 -88.487146 
L 318.391292 -86.903691 
L 319.438364 -85.342137 
L 320.485436 -83.803695 
L 321.532509 -82.289494 
L 322.579581 -80.80058 
L 323.626653 -79.337918 
L 324.673725 -77.902388 
L 325.720797 -76.494791 
L 326.76787 -75.115845 
L 327.814942 -73.766191 
L 328.862014 -72.44639 
L 329.909086 -71.156929 
L 330.956159 -69.898218 
L 332.003231 -68.670596 
L 333.050303 -67.474328 
L 334.097375 -66.309615 
L 335.144447 -65.176587 
L 336.19152 -64.075314 
L 337.238592 -63.005802 
L 338.285664 -61.967999 
L 339.332736 -60.961797 
L 340.379809 -59.987035 
L 341.426881 -59.0435 
L 342.473953 -58.130931 
L 343.521025 -57.249025 
L 344.568098 -56.397432 
L 345.61517 -55.575766 
L 346.662242 -54.783603 
L 347.709314 -54.020486 
L 348.756386 -53.285927 
L 349.803459 -52.579407 
L 350.850531 -51.900385 
L 351.897603 -51.248294 
L 352.944675 -50.622549 
L 353.991748 -50.022545 
L 355.03882 -49.447662 
L 356.085892 -48.897268 
L 357.132964 -48.370717 
L 358.180036 -47.867357 
L 359.227109 -47.386527 
L 360.274181 -46.927564 
L 361.321253 -46.4898 
L 362.368325 -46.072565 
L 363.415398 -45.675192 
L 364.46247 -45.297015 
L 365.509542 -44.937371 
L 366.556614 -44.595604 
L 367.603686 -44.271063 
L 368.650759 -43.963103 
L 369.697831 -43.671092 
L 370.744903 -43.394403 
L 371.791975 -43.132423 
L 372.839048 -42.884548 
L 373.88612 -42.650189 
L 374.933192 -42.428767 
L 375.980264 -42.219719 
L 377.027337 -42.022494 
L 378.074409 -41.836556 
L 379.121481 -41.661384 
L 380.168553 -41.496472 
L 381.215625 -41.341328 
L 382.262698 -41.195479 
L 383.30977 -41.058463 
L 384.356842 -40.929837 
L 385.403914 -40.809171 
L 386.450987 -40.696053 
L 387.498059 -40.590084 
L 388.545131 -40.490883 
L 389.592203 -40.398081 
L 390.639275 -40.311328 
L 391.686348 -40.230284 
L 392.73342 -40.154627 
L 393.780492 -40.084048 
L 394.827564 -40.018251 
L 395.874637 -39.956955 
L 396.921709 -39.899892 
L 397.968781 -39.846806 
L 399.015853 -39.797453 
L 400.062925 -39.751603 
L 401.109998 -39.709037 
L 402.15707 -39.669545 
L 403.204142 -39.632932 
L 404.251214 -39.599011 
L 405.298287 -39.567605 
L 406.345359 -39.538548 
L 407.392431 -39.511682 
L 408.439503 -39.486859 
L 409.486576 -39.46394 
L 410.533648 -39.442792 
L 411.58072 -39.423292 
L 412.627792 -39.405324 
L 413.674864 -39.388778 
L 414.721937 -39.373553 
L 415.769009 -39.359552 
L 416.816081 -39.346686 
L 417.863153 -39.334871 
L 418.910226 -39.324028 
L 419.957298 -39.314084 
L 421.00437 -39.30497 
L 422.051442 -39.296623 
L 423.098514 -39.288983 
L 424.145587 -39.281996 
L 425.192659 -39.275609 
L 426.239731 -39.269775 
L 427.286803 -39.26445 
L 428.333876 -39.259593 
L 429.380948 -39.255165 
L 430.42802 -39.251132 
L 431.475092 -39.24746 
L 432.522165 -39.244119 
L 433.569237 -39.241082 
L 434.616309 -39.238322 
L 435.663381 -39.235817 
L 436.710453 -39.233544 
L 437.757526 -39.231482 
L 438.804598 -39.229615 
L 439.85167 -39.227923 
L 440.898742 -39.226393 
L 441.945815 -39.225009 
L 442.992887 -39.223758 
L 444.039959 -39.222628 
L 445.087031 -39.221609 
L 446.134103 -39.220689 
L 447.181176 -39.21986 
L 448.228248 -39.219114 
L 449.27532 -39.218442 
L 450.322392 -39.217837 
L 451.369465 -39.217294 
L 452.416537 -39.216806 
L 453.463609 -39.216367 
L 454.510681 -39.215974 
L 455.557753 -39.215622 
L 456.604826 -39.215306 
L 457.651898 -39.215023 
L 458.69897 -39.21477 
L 459.746042 -39.214543 
L 460.793115 -39.214341 
L 461.840187 -39.21416 
L 462.887259 -39.213999 
L 463.934331 -39.213855 
L 464.981404 -39.213727 
L 466.028476 -39.213613 
L 467.075548 -39.213511 
L 468.12262 -39.213421 
L 469.169692 -39.213341 
L 470.216765 -39.213269 
L 471.263837 -39.213206 
L 472.310909 -39.21315 
L 472.310909 -39.212727 
L 472.310909 -39.212727 
L 471.263837 -39.212727 
L 470.216765 -39.212727 
L 469.169692 -39.212727 
L 468.12262 -39.212727 
L 467.075548 -39.212727 
L 466.028476 -39.212727 
L 464.981404 -39.212727 
L 463.934331 -39.212727 
L 462.887259 -39.212727 
L 461.840187 -39.212727 
L 460.793115 -39.212727 
L 459.746042 -39.212727 
L 458.69897 -39.212727 
L 457.651898 -39.212727 
L 456.604826 -39.212727 
L 455.557753 -39.212727 
L 454.510681 -39.212727 
L 453.463609 -39.212727 
L 452.416537 -39.212727 
L 451.369465 -39.212727 
L 450.322392 -39.212727 
L 449.27532 -39.212727 
L 448.228248 -39.212727 
L 447.181176 -39.212727 
L 446.134103 -39.212727 
L 445.087031 -39.212727 
L 444.039959 -39.212727 
L 442.992887 -39.212727 
L 441.945815 -39.212727 
L 440.898742 -39.212727 
L 439.85167 -39.212727 
L 438.804598 -39.212727 
L 437.757526 -39.212727 
L 436.710453 -39.212727 
L 435.663381 -39.212727 
L 434.616309 -39.212727 
L 433.569237 -39.212727 
L 432.522165 -39.212727 
L 431.475092 -39.212727 
L 430.42802 -39.212727 
L 429.380948 -39.212727 
L 428.333876 -39.212727 
L 427.286803 -39.212727 
L 426.239731 -39.212727 
L 425.192659 -39.212727 
L 424.145587 -39.212727 
L 423.098514 -39.212727 
L 422.051442 -39.212727 
L 421.00437 -39.212727 
L 419.957298 -39.212727 
L 418.910226 -39.212727 
L 417.863153 -39.212727 
L 416.816081 -39.212727 
L 415.769009 -39.212727 
L 414.721937 -39.212727 
L 413.674864 -39.212727 
L 412.627792 -39.212727 
L 411.58072 -39.212727 
L 410.533648 -39.212727 
L 409.486576 -39.212727 
L 408.439503 -39.212727 
L 407.392431 -39.212727 
L 406.345359 -39.212727 
L 405.298287 -39.212727 
L 404.251214 -39.212727 
L 403.204142 -39.212727 
L 402.15707 -39.212727 
L 401.109998 -39.212727 
L 400.062925 -39.212727 
L 399.015853 -39.212727 
L 397.968781 -39.212727 
L 396.921709 -39.212727 
L 395.874637 -39.212727 
L 394.827564 -39.212727 
L 393.780492 -39.212727 
L 392.73342 -39.212727 
L 391.686348 -39.212727 
L 390.639275 -39.212727 
L 389.592203 -39.212727 
L 388.545131 -39.212727 
L 387.498059 -39.212727 
L 386.450987 -39.212727 
L 385.403914 -39.212727 
L 384.356842 -39.212727 
L 383.30977 -39.212727 
L 382.262698 -39.212727 
L 381.215625 -39.212727 
L 380.168553 -39.212727 
L 379.121481 -39.212727 
L 378.074409 -39.212727 
L 377.027337 -39.212727 
L 375.980264 -39.212727 
L 374.933192 -39.212727 
L 373.88612 -39.212727 
L 372.839048 -39.212727 
L 371.791975 -39.212727 
L 370.744903 -39.212727 
L 369.697831 -39.212727 
L 368.650759 -39.212727 
L 367.603686 -39.212727 
L 366.556614 -39.212727 
L 365.509542 -39.212727 
L 364.46247 -39.212727 
L 363.415398 -39.212727 
L 362.368325 -39.212727 
L 361.321253 -39.212727 
L 360.274181 -39.212727 
L 359.227109 -39.212727 
L 358.180036 -39.212727 
L 357.132964 -39.212727 
L 356.085892 -39.212727 
L 355.03882 -39.212727 
L 353.991748 -39.212727 
L 352.944675 -39.212727 
L 351.897603 -39.212727 
L 350.850531 -39.212727 
L 349.803459 -39.212727 
L 348.756386 -39.212727 
L 347.709314 -39.212727 
L 346.662242 -39.212727 
L 345.61517 -39.212727 
L 344.568098 -39.212727 
L 343.521025 -39.212727 
L 342.473953 -39.212727 
L 341.426881 -39.212727 
L 340.379809 -39.212727 
L 339.332736 -39.212727 
L 338.285664 -39.212727 
L 337.238592 -39.212727 
L 336.19152 -39.212727 
L 335.144447 -39.212727 
L 334.097375 -39.212727 
L 333.050303 -39.212727 
L 332.003231 -39.212727 
L 330.956159 -39.212727 
L 329.909086 -39.212727 
L 328.862014 -39.212727 
L 327.814942 -39.212727 
L 326.76787 -39.212727 
L 325.720797 -39.212727 
L 324.673725 -39.212727 
L 323.626653 -39.212727 
L 322.579581 -39.212727 
L 321.532509 -39.212727 
L 320.485436 -39.212727 
L 319.438364 -39.212727 
L 318.391292 -39.212727 
L 317.34422 -39.212727 
L 316.297147 -39.212727 
L 315.250075 -39.212727 
L 314.203003 -39.212727 
L 313.155931 -39.212727 
L 312.108859 -39.212727 
L 311.061786 -39.212727 
L 310.014714 -39.212727 
L 308.967642 -39.212727 
L 307.92057 -39.212727 
L 306.873497 -39.212727 
L 305.826425 -39.212727 
L 304.779353 -39.212727 
L 303.732281 -39.212727 
L 302.685208 -39.212727 
L 301.638136 -39.212727 
L 300.591064 -39.212727 
L 299.543992 -39.212727 
L 298.49692 -39.212727 
L 297.449847 -39.212727 
L 296.402775 -39.212727 
L 295.355703 -39.212727 
L 294.308631 -39.212727 
L 293.261558 -39.212727 
L 292.214486 -39.212727 
L 291.167414 -39.212727 
L 290.120342 -39.212727 
L 289.07327 -39.212727 
L 288.026197 -39.212727 
L 286.979125 -39.212727 
L 285.932053 -39.212727 
L 284.884981 -39.212727 
L 283.837908 -39.212727 
L 282.790836 -39.212727 
L 281.743764 -39.212727 
L 280.696692 -39.212727 
L 279.64962 -39.212727 
L 278.602547 -39.212727 
L 277.555475 -39.212727 
L 276.508403 -39.212727 
L 275.461331 -39.212727 
L 274.414258 -39.212727 
L 273.367186 -39.212727 
L 272.320114 -39.212727 
L 271.273042 -39.212727 
L 270.225969 -39.212727 
L 269.178897 -39.212727 
L 268.131825 -39.212727 
L 267.084753 -39.212727 
L 266.037681 -39.212727 
L 264.990608 -39.212727 
L 263.943536 -39.212727 
L 262.896464 -39.212727 
L 261.849392 -39.212727 
L 260.802319 -39.212727 
L 259.755247 -39.212727 
L 258.708175 -39.212727 
L 257.661103 -39.212727 
L 256.614031 -39.212727 
L 255.566958 -39.212727 
L 254.519886 -39.212727 
L 253.472814 -39.212727 
L 252.425742 -39.212727 
L 251.378669 -39.212727 
L 250.331597 -39.212727 
L 249.284525 -39.212727 
L 248.237453 -39.212727 
L 247.19038 -39.212727 
L 246.143308 -39.212727 
L 245.096236 -39.212727 
L 244.049164 -39.212727 
L 243.002092 -39.212727 
L 241.955019 -39.212727 
L 240.907947 -39.212727 
L 239.860875 -39.212727 
L 238.813803 -39.212727 
L 237.76673 -39.212727 
L 236.719658 -39.212727 
L 235.672586 -39.212727 
L 234.625514 -39.212727 
L 233.578442 -39.212727 
L 232.531369 -39.212727 
L 231.484297 -39.212727 
L 230.437225 -39.212727 
L 229.390153 -39.212727 
L 228.34308 -39.212727 
L 227.296008 -39.212727 
L 226.248936 -39.212727 
L 225.201864 -39.212727 
L 224.154792 -39.212727 
L 223.107719 -39.212727 
L 222.060647 -39.212727 
L 221.013575 -39.212727 
L 219.966503 -39.212727 
L 218.91943 -39.212727 
L 217.872358 -39.212727 
L 216.825286 -39.212727 
L 215.778214 -39.212727 
L 214.731141 -39.212727 
L 213.684069 -39.212727 
L 212.636997 -39.212727 
L 211.589925 -39.212727 
L 210.542853 -39.212727 
L 209.49578 -39.212727 
L 208.448708 -39.212727 
L 207.401636 -39.212727 
L 206.354564 -39.212727 
L 205.307491 -39.212727 
L 204.260419 -39.212727 
L 203.213347 -39.212727 
L 202.166275 -39.212727 
L 201.119203 -39.212727 
L 200.07213 -39.212727 
L 199.025058 -39.212727 
L 197.977986 -39.212727 
L 196.930914 -39.212727 
L 195.883841 -39.212727 
L 194.836769 -39.212727 
L 193.789697 -39.212727 
L 192.742625 -39.212727 
L 191.695553 -39.212727 
L 190.64848 -39.212727 
L 189.601408 -39.212727 
L 188.554336 -39.212727 
L 187.507264 -39.212727 
L 186.460191 -39.212727 
L 185.413119 -39.212727 
L 184.366047 -39.212727 
L 183.318975 -39.212727 
L 182.271902 -39.212727 
L 181.22483 -39.212727 
L 180.177758 -39.212727 
L 179.130686 -39.212727 
L 178.083614 -39.212727 
L 177.036541 -39.212727 
L 175.989469 -39.212727 
L 174.942397 -39.212727 
L 173.895325 -39.212727 
L 172.848252 -39.212727 
L 171.80118 -39.212727 
L 170.754108 -39.212727 
L 169.707036 -39.212727 
L 168.659964 -39.212727 
L 167.612891 -39.212727 
L 166.565819 -39.212727 
L 165.518747 -39.212727 
L 164.471675 -39.212727 
L 163.424602 -39.212727 
L 162.37753 -39.212727 
L 161.330458 -39.212727 
L 160.283386 -39.212727 
L 159.236314 -39.212727 
L 158.189241 -39.212727 
L 157.142169 -39.212727 
L 156.095097 -39.212727 
L 155.048025 -39.212727 
L 154.000952 -39.212727 
L 152.95388 -39.212727 
L 151.906808 -39.212727 
L 150.859736 -39.212727 
L 149.812663 -39.212727 
L 148.765591 -39.212727 
L 147.718519 -39.212727 
L 146.671447 -39.212727 
L 145.624375 -39.212727 
L 144.577302 -39.212727 
L 143.53023 -39.212727 
L 142.483158 -39.212727 
L 141.436086 -39.212727 
L 140.389013 -39.212727 
L 139.341941 -39.212727 
L 138.294869 -39.212727 
L 137.247797 -39.212727 
L 136.200725 -39.212727 
L 135.153652 -39.212727 
L 134.10658 -39.212727 
L 133.059508 -39.212727 
L 132.012436 -39.212727 
L 130.965363 -39.212727 
L 129.918291 -39.212727 
L 128.871219 -39.212727 
L 127.824147 -39.212727 
L 126.777075 -39.212727 
L 125.730002 -39.212727 
L 124.68293 -39.212727 
L 123.635858 -39.212727 
L 122.588786 -39.212727 
L 121.541713 -39.212727 
L 120.494641 -39.212727 
L 119.447569 -39.212727 
L 118.400497 -39.212727 
L 117.353424 -39.212727 
L 116.306352 -39.212727 
L 115.25928 -39.212727 
L 114.212208 -39.212727 
L 113.165136 -39.212727 
L 112.118063 -39.212727 
L 111.070991 -39.212727 
L 110.023919 -39.212727 
L 108.976847 -39.212727 
L 107.929774 -39.212727 
L 106.882702 -39.212727 
L 105.83563 -39.212727 
L 104.788558 -39.212727 
L 103.741486 -39.212727 
L 102.694413 -39.212727 
L 101.647341 -39.212727 
L 100.600269 -39.212727 
L 99.553197 -39.212727 
L 98.506124 -39.212727 
L 97.459052 -39.212727 
L 96.41198 -39.212727 
L 95.364908 -39.212727 
L 94.317835 -39.212727 
L 93.270763 -39.212727 
L 92.223691 -39.212727 
L 91.176619 -39.212727 
L 90.129547 -39.212727 
L 89.082474 -39.212727 
L 88.035402 -39.212727 
L 86.98833 -39.212727 
L 85.941258 -39.212727 
L 84.894185 -39.212727 
L 83.847113 -39.212727 
L 82.800041 -39.212727 
L 81.752969 -39.212727 
L 80.705897 -39.212727 
L 79.658824 -39.212727 
L 78.611752 -39.212727 
L 77.56468 -39.212727 
L 76.517608 -39.212727 
L 75.470535 -39.212727 
L 74.423463 -39.212727 
L 73.376391 -39.212727 
L 72.329319 -39.212727 
L 71.282247 -39.212727 
L 70.235174 -39.212727 
L 69.188102 -39.212727 
L 68.14103 -39.212727 
L 67.093958 -39.212727 
L 66.046885 -39.212727 
L 64.999813 -39.212727 
L 63.952741 -39.212727 
L 62.905669 -39.212727 
L 61.858596 -39.212727 
L 60.811524 -39.212727 
L 59.764452 -39.212727 
L 58.71738 -39.212727 
L 57.670308 -39.212727 
L 56.623235 -39.212727 
L 55.576163 -39.212727 
L 54.529091 -39.212727 
z
" style="stroke: #8dd3c7; stroke-opacity: 0.5"/>
    </defs>
    <g clip-path="url(#p8e2173478c)">
     <use xlink:href="#mad98829695" x="0" y="288" style="fill: #8dd3c7; fill-opacity: 0.5; stroke: #8dd3c7; stroke-opacity: 0.5"/>
    </g>
   </g>
   <g id="FillBetweenPolyCollection_2">
    <defs>
     <path id="m234cf95a0b" d="M 54.529091 -39.212727 
L 54.529091 -39.212727 
L 55.576163 -39.212727 
L 56.623235 -39.212727 
L 57.670308 -39.212727 
L 58.71738 -39.212727 
L 59.764452 -39.212727 
L 60.811524 -39.212727 
L 61.858596 -39.212727 
L 62.905669 -39.212727 
L 63.952741 -39.212727 
L 64.999813 -39.212727 
L 66.046885 -39.212727 
L 67.093958 -39.212727 
L 68.14103 -39.212727 
L 69.188102 -39.212727 
L 70.235174 -39.212727 
L 71.282247 -39.212727 
L 72.329319 -39.212727 
L 73.376391 -39.212727 
L 74.423463 -39.212727 
L 75.470535 -39.212727 
L 76.517608 -39.212727 
L 77.56468 -39.212727 
L 78.611752 -39.212727 
L 79.658824 -39.212727 
L 80.705897 -39.212727 
L 81.752969 -39.212727 
L 82.800041 -39.212727 
L 83.847113 -39.212727 
L 84.894185 -39.212727 
L 85.941258 -39.212727 
L 86.98833 -39.212727 
L 88.035402 -39.212727 
L 89.082474 -39.212727 
L 90.129547 -39.212727 
L 91.176619 -39.212727 
L 92.223691 -39.212727 
L 93.270763 -39.212727 
L 94.317835 -39.212727 
L 95.364908 -39.212727 
L 96.41198 -39.212727 
L 97.459052 -39.212727 
L 98.506124 -39.212727 
L 99.553197 -39.212727 
L 100.600269 -39.212727 
L 101.647341 -39.212727 
L 102.694413 -39.212727 
L 103.741486 -39.212727 
L 104.788558 -39.212727 
L 105.83563 -39.212727 
L 106.882702 -39.212727 
L 107.929774 -39.212727 
L 108.976847 -39.212727 
L 110.023919 -39.212727 
L 111.070991 -39.212727 
L 112.118063 -39.212727 
L 113.165136 -39.212727 
L 114.212208 -39.212727 
L 115.25928 -39.212727 
L 116.306352 -39.212727 
L 117.353424 -39.212727 
L 118.400497 -39.212727 
L 119.447569 -39.212727 
L 120.494641 -39.212727 
L 121.541713 -39.212727 
L 122.588786 -39.212727 
L 123.635858 -39.212727 
L 124.68293 -39.212727 
L 125.730002 -39.212727 
L 126.777075 -39.212727 
L 127.824147 -39.212727 
L 128.871219 -39.212727 
L 129.918291 -39.212727 
L 130.965363 -39.212727 
L 132.012436 -39.212727 
L 133.059508 -39.212727 
L 134.10658 -39.212727 
L 135.153652 -39.212727 
L 136.200725 -39.212727 
L 137.247797 -39.212727 
L 138.294869 -39.212727 
L 139.341941 -39.212727 
L 140.389013 -39.212727 
L 141.436086 -39.212727 
L 142.483158 -39.212727 
L 143.53023 -39.212727 
L 144.577302 -39.212727 
L 145.624375 -39.212727 
L 146.671447 -39.212727 
L 147.718519 -39.212727 
L 148.765591 -39.212727 
L 149.812663 -39.212727 
L 150.859736 -39.212727 
L 151.906808 -39.212727 
L 152.95388 -39.212727 
L 154.000952 -39.212727 
L 155.048025 -39.212727 
L 156.095097 -39.212727 
L 157.142169 -39.212727 
L 158.189241 -39.212727 
L 159.236314 -39.212727 
L 160.283386 -39.212727 
L 161.330458 -39.212727 
L 162.37753 -39.212727 
L 163.424602 -39.212727 
L 164.471675 -39.212727 
L 165.518747 -39.212727 
L 166.565819 -39.212727 
L 167.612891 -39.212727 
L 168.659964 -39.212727 
L 169.707036 -39.212727 
L 170.754108 -39.212727 
L 171.80118 -39.212727 
L 172.848252 -39.212727 
L 173.895325 -39.212727 
L 174.942397 -39.212727 
L 175.989469 -39.212727 
L 177.036541 -39.212727 
L 178.083614 -39.212727 
L 179.130686 -39.212727 
L 180.177758 -39.212727 
L 181.22483 -39.212727 
L 182.271902 -39.212727 
L 183.318975 -39.212727 
L 184.366047 -39.212727 
L 185.413119 -39.212727 
L 186.460191 -39.212727 
L 187.507264 -39.212727 
L 188.554336 -39.212727 
L 189.601408 -39.212727 
L 190.64848 -39.212727 
L 191.695553 -39.212727 
L 192.742625 -39.212727 
L 193.789697 -39.212727 
L 194.836769 -39.212727 
L 195.883841 -39.212727 
L 196.930914 -39.212727 
L 197.977986 -39.212727 
L 199.025058 -39.212727 
L 200.07213 -39.212727 
L 201.119203 -39.212727 
L 202.166275 -39.212727 
L 203.213347 -39.212727 
L 204.260419 -39.212727 
L 205.307491 -39.212727 
L 206.354564 -39.212727 
L 207.401636 -39.212727 
L 208.448708 -39.212727 
L 209.49578 -39.212727 
L 210.542853 -39.212727 
L 211.589925 -39.212727 
L 212.636997 -39.212728 
L 213.684069 -39.212728 
L 214.731141 -39.212728 
L 215.778214 -39.212728 
L 216.825286 -39.212728 
L 217.872358 -39.212728 
L 218.91943 -39.212729 
L 219.966503 -39.212729 
L 221.013575 -39.21273 
L 222.060647 -39.212731 
L 223.107719 -39.212733 
L 224.154792 -39.212734 
L 225.201864 -39.212737 
L 226.248936 -39.21274 
L 227.296008 -39.212744 
L 228.34308 -39.21275 
L 229.390153 -39.212757 
L 230.437225 -39.212767 
L 231.484297 -39.212779 
L 232.531369 -39.212796 
L 233.578442 -39.212818 
L 234.625514 -39.212846 
L 235.672586 -39.212882 
L 236.719658 -39.212929 
L 237.76673 -39.21299 
L 238.813803 -39.213069 
L 239.860875 -39.213169 
L 240.907947 -39.213298 
L 241.955019 -39.213463 
L 243.002092 -39.213673 
L 244.049164 -39.213939 
L 245.096236 -39.214277 
L 246.143308 -39.214703 
L 247.19038 -39.215241 
L 248.237453 -39.215917 
L 249.284525 -39.216765 
L 250.331597 -39.217825 
L 251.378669 -39.219147 
L 252.425742 -39.220792 
L 253.472814 -39.222834 
L 254.519886 -39.22536 
L 255.566958 -39.228478 
L 256.614031 -39.232316 
L 257.661103 -39.237029 
L 258.708175 -39.242799 
L 259.755247 -39.249847 
L 260.802319 -39.258431 
L 261.849392 -39.26886 
L 262.896464 -39.281495 
L 263.943536 -39.296762 
L 264.990608 -39.315161 
L 266.037681 -39.337276 
L 267.084753 -39.363785 
L 268.131825 -39.395476 
L 269.178897 -39.433261 
L 270.225969 -39.47819 
L 271.273042 -39.531472 
L 272.320114 -39.594487 
L 273.367186 -39.668812 
L 274.414258 -39.756241 
L 275.461331 -39.858804 
L 276.508403 -39.978793 
L 277.555475 -40.118788 
L 278.602547 -40.281677 
L 279.64962 -40.470685 
L 280.696692 -40.689398 
L 281.743764 -40.941788 
L 282.790836 -41.232235 
L 283.837908 -41.565552 
L 284.884981 -41.947004 
L 285.932053 -42.382325 
L 286.979125 -42.877733 
L 288.026197 -43.439939 
L 289.07327 -44.076151 
L 290.120342 -44.794075 
L 291.167414 -45.601903 
L 292.214486 -46.5083 
L 293.261558 -47.522379 
L 294.308631 -48.653662 
L 295.355703 -49.912044 
L 296.402775 -51.307728 
L 297.449847 -52.851162 
L 298.49692 -54.552962 
L 299.543992 -56.423814 
L 300.591064 -58.474374 
L 301.638136 -60.715146 
L 302.685208 -63.156361 
L 303.732281 -65.807826 
L 304.779353 -68.67878 
L 305.826425 -71.777731 
L 306.873497 -75.112287 
L 307.92057 -78.688981 
L 308.967642 -82.513092 
L 310.014714 -86.588465 
L 311.061786 -90.917333 
L 312.108859 -95.500141 
L 313.155931 -100.335377 
L 314.203003 -105.419416 
L 315.250075 -110.746376 
L 316.297147 -116.307991 
L 317.34422 -122.093508 
L 318.391292 -128.089604 
L 319.438364 -134.280332 
L 320.485436 -140.647097 
L 321.532509 -147.168664 
L 322.579581 -153.821204 
L 323.626653 -160.578371 
L 324.673725 -167.411422 
L 325.720797 -174.28937 
L 326.76787 -181.179179 
L 327.814942 -188.045993 
L 328.862014 -194.853404 
L 329.909086 -201.563748 
L 330.956159 -208.138437 
L 332.003231 -214.538311 
L 333.050303 -220.724021 
L 334.097375 -226.656417 
L 335.144447 -232.29696 
L 336.19152 -237.608133 
L 337.238592 -242.553855 
L 338.285664 -247.099883 
L 339.332736 -251.214213 
L 340.379809 -254.867445 
L 341.426881 -258.033143 
L 342.473953 -260.688144 
L 343.521025 -262.812847 
L 344.568098 -264.39145 
L 345.61517 -265.412146 
L 346.662242 -265.867273 
L 347.709314 -265.753405 
L 348.756386 -265.071401 
L 349.803459 -263.826388 
L 350.850531 -262.027701 
L 351.897603 -259.688765 
L 352.944675 -256.826927 
L 353.991748 -253.463246 
L 355.03882 -249.622229 
L 356.085892 -245.331538 
L 357.132964 -240.621658 
L 358.180036 -235.525534 
L 359.227109 -230.078194 
L 360.274181 -224.316341 
L 361.321253 -218.277951 
L 362.368325 -212.001858 
L 363.415398 -205.527338 
L 364.46247 -198.893711 
L 365.509542 -192.139954 
L 366.556614 -185.304326 
L 367.603686 -178.424025 
L 368.650759 -171.534874 
L 369.697831 -164.671031 
L 370.744903 -157.864736 
L 371.791975 -151.146102 
L 372.839048 -144.542928 
L 373.88612 -138.080567 
L 374.933192 -131.781816 
L 375.980264 -125.666858 
L 377.027337 -119.753227 
L 378.074409 -114.055817 
L 379.121481 -108.586916 
L 380.168553 -103.356268 
L 381.215625 -98.371174 
L 382.262698 -93.636596 
L 383.30977 -89.155296 
L 384.356842 -84.927983 
L 385.403914 -80.953477 
L 386.450987 -77.228879 
L 387.498059 -73.749748 
L 388.545131 -70.510282 
L 389.592203 -67.503497 
L 390.639275 -64.721404 
L 391.686348 -62.155183 
L 392.73342 -59.795349 
L 393.780492 -57.631908 
L 394.827564 -55.654503 
L 395.874637 -53.852555 
L 396.921709 -52.215382 
L 397.968781 -50.732314 
L 399.015853 -49.392793 
L 400.062925 -48.186459 
L 401.109998 -47.103225 
L 402.15707 -46.133339 
L 403.204142 -45.267439 
L 404.251214 -44.496586 
L 405.298287 -43.812303 
L 406.345359 -43.20659 
L 407.392431 -42.671941 
L 408.439503 -42.201345 
L 409.486576 -41.78829 
L 410.533648 -41.426754 
L 411.58072 -41.111191 
L 412.627792 -40.83652 
L 413.674864 -40.598103 
L 414.721937 -40.391727 
L 415.769009 -40.213576 
L 416.816081 -40.060212 
L 417.863153 -39.928548 
L 418.910226 -39.815822 
L 419.957298 -39.719572 
L 421.00437 -39.637615 
L 422.051442 -39.568016 
L 423.098514 -39.509073 
L 424.145587 -39.459288 
L 425.192659 -39.417352 
L 426.239731 -39.382122 
L 427.286803 -39.352606 
L 428.333876 -39.327943 
L 429.380948 -39.307391 
L 430.42802 -39.290309 
L 431.475092 -39.27615 
L 432.522165 -39.264445 
L 433.569237 -39.254795 
L 434.616309 -39.246859 
L 435.663381 -39.240351 
L 436.710453 -39.235028 
L 437.757526 -39.230685 
L 438.804598 -39.227152 
L 439.85167 -39.224285 
L 440.898742 -39.221964 
L 441.945815 -39.220091 
L 442.992887 -39.218583 
L 444.039959 -39.217372 
L 445.087031 -39.216402 
L 446.134103 -39.215628 
L 447.181176 -39.215011 
L 448.228248 -39.214521 
L 449.27532 -39.214132 
L 450.322392 -39.213825 
L 451.369465 -39.213583 
L 452.416537 -39.213392 
L 453.463609 -39.213243 
L 454.510681 -39.213126 
L 455.557753 -39.213035 
L 456.604826 -39.212964 
L 457.651898 -39.212909 
L 458.69897 -39.212867 
L 459.746042 -39.212834 
L 460.793115 -39.212808 
L 461.840187 -39.212789 
L 462.887259 -39.212774 
L 463.934331 -39.212763 
L 464.981404 -39.212754 
L 466.028476 -39.212747 
L 467.075548 -39.212742 
L 468.12262 -39.212739 
L 469.169692 -39.212736 
L 470.216765 -39.212734 
L 471.263837 -39.212732 
L 472.310909 -39.212731 
L 472.310909 -39.212727 
L 472.310909 -39.212727 
L 471.263837 -39.212727 
L 470.216765 -39.212727 
L 469.169692 -39.212727 
L 468.12262 -39.212727 
L 467.075548 -39.212727 
L 466.028476 -39.212727 
L 464.981404 -39.212727 
L 463.934331 -39.212727 
L 462.887259 -39.212727 
L 461.840187 -39.212727 
L 460.793115 -39.212727 
L 459.746042 -39.212727 
L 458.69897 -39.212727 
L 457.651898 -39.212727 
L 456.604826 -39.212727 
L 455.557753 -39.212727 
L 454.510681 -39.212727 
L 453.463609 -39.212727 
L 452.416537 -39.212727 
L 451.369465 -39.212727 
L 450.322392 -39.212727 
L 449.27532 -39.212727 
L 448.228248 -39.212727 
L 447.181176 -39.212727 
L 446.134103 -39.212727 
L 445.087031 -39.212727 
L 444.039959 -39.212727 
L 442.992887 -39.212727 
L 441.945815 -39.212727 
L 440.898742 -39.212727 
L 439.85167 -39.212727 
L 438.804598 -39.212727 
L 437.757526 -39.212727 
L 436.710453 -39.212727 
L 435.663381 -39.212727 
L 434.616309 -39.212727 
L 433.569237 -39.212727 
L 432.522165 -39.212727 
L 431.475092 -39.212727 
L 430.42802 -39.212727 
L 429.380948 -39.212727 
L 428.333876 -39.212727 
L 427.286803 -39.212727 
L 426.239731 -39.212727 
L 425.192659 -39.212727 
L 424.145587 -39.212727 
L 423.098514 -39.212727 
L 422.051442 -39.212727 
L 421.00437 -39.212727 
L 419.957298 -39.212727 
L 418.910226 -39.212727 
L 417.863153 -39.212727 
L 416.816081 -39.212727 
L 415.769009 -39.212727 
L 414.721937 -39.212727 
L 413.674864 -39.212727 
L 412.627792 -39.212727 
L 411.58072 -39.212727 
L 410.533648 -39.212727 
L 409.486576 -39.212727 
L 408.439503 -39.212727 
L 407.392431 -39.212727 
L 406.345359 -39.212727 
L 405.298287 -39.212727 
L 404.251214 -39.212727 
L 403.204142 -39.212727 
L 402.15707 -39.212727 
L 401.109998 -39.212727 
L 400.062925 -39.212727 
L 399.015853 -39.212727 
L 397.968781 -39.212727 
L 396.921709 -39.212727 
L 395.874637 -39.212727 
L 394.827564 -39.212727 
L 393.780492 -39.212727 
L 392.73342 -39.212727 
L 391.686348 -39.212727 
L 390.639275 -39.212727 
L 389.592203 -39.212727 
L 388.545131 -39.212727 
L 387.498059 -39.212727 
L 386.450987 -39.212727 
L 385.403914 -39.212727 
L 384.356842 -39.212727 
L 383.30977 -39.212727 
L 382.262698 -39.212727 
L 381.215625 -39.212727 
L 380.168553 -39.212727 
L 379.121481 -39.212727 
L 378.074409 -39.212727 
L 377.027337 -39.212727 
L 375.980264 -39.212727 
L 374.933192 -39.212727 
L 373.88612 -39.212727 
L 372.839048 -39.212727 
L 371.791975 -39.212727 
L 370.744903 -39.212727 
L 369.697831 -39.212727 
L 368.650759 -39.212727 
L 367.603686 -39.212727 
L 366.556614 -39.212727 
L 365.509542 -39.212727 
L 364.46247 -39.212727 
L 363.415398 -39.212727 
L 362.368325 -39.212727 
L 361.321253 -39.212727 
L 360.274181 -39.212727 
L 359.227109 -39.212727 
L 358.180036 -39.212727 
L 357.132964 -39.212727 
L 356.085892 -39.212727 
L 355.03882 -39.212727 
L 353.991748 -39.212727 
L 352.944675 -39.212727 
L 351.897603 -39.212727 
L 350.850531 -39.212727 
L 349.803459 -39.212727 
L 348.756386 -39.212727 
L 347.709314 -39.212727 
L 346.662242 -39.212727 
L 345.61517 -39.212727 
L 344.568098 -39.212727 
L 343.521025 -39.212727 
L 342.473953 -39.212727 
L 341.426881 -39.212727 
L 340.379809 -39.212727 
L 339.332736 -39.212727 
L 338.285664 -39.212727 
L 337.238592 -39.212727 
L 336.19152 -39.212727 
L 335.144447 -39.212727 
L 334.097375 -39.212727 
L 333.050303 -39.212727 
L 332.003231 -39.212727 
L 330.956159 -39.212727 
L 329.909086 -39.212727 
L 328.862014 -39.212727 
L 327.814942 -39.212727 
L 326.76787 -39.212727 
L 325.720797 -39.212727 
L 324.673725 -39.212727 
L 323.626653 -39.212727 
L 322.579581 -39.212727 
L 321.532509 -39.212727 
L 320.485436 -39.212727 
L 319.438364 -39.212727 
L 318.391292 -39.212727 
L 317.34422 -39.212727 
L 316.297147 -39.212727 
L 315.250075 -39.212727 
L 314.203003 -39.212727 
L 313.155931 -39.212727 
L 312.108859 -39.212727 
L 311.061786 -39.212727 
L 310.014714 -39.212727 
L 308.967642 -39.212727 
L 307.92057 -39.212727 
L 306.873497 -39.212727 
L 305.826425 -39.212727 
L 304.779353 -39.212727 
L 303.732281 -39.212727 
L 302.685208 -39.212727 
L 301.638136 -39.212727 
L 300.591064 -39.212727 
L 299.543992 -39.212727 
L 298.49692 -39.212727 
L 297.449847 -39.212727 
L 296.402775 -39.212727 
L 295.355703 -39.212727 
L 294.308631 -39.212727 
L 293.261558 -39.212727 
L 292.214486 -39.212727 
L 291.167414 -39.212727 
L 290.120342 -39.212727 
L 289.07327 -39.212727 
L 288.026197 -39.212727 
L 286.979125 -39.212727 
L 285.932053 -39.212727 
L 284.884981 -39.212727 
L 283.837908 -39.212727 
L 282.790836 -39.212727 
L 281.743764 -39.212727 
L 280.696692 -39.212727 
L 279.64962 -39.212727 
L 278.602547 -39.212727 
L 277.555475 -39.212727 
L 276.508403 -39.212727 
L 275.461331 -39.212727 
L 274.414258 -39.212727 
L 273.367186 -39.212727 
L 272.320114 -39.212727 
L 271.273042 -39.212727 
L 270.225969 -39.212727 
L 269.178897 -39.212727 
L 268.131825 -39.212727 
L 267.084753 -39.212727 
L 266.037681 -39.212727 
L 264.990608 -39.212727 
L 263.943536 -39.212727 
L 262.896464 -39.212727 
L 261.849392 -39.212727 
L 260.802319 -39.212727 
L 259.755247 -39.212727 
L 258.708175 -39.212727 
L 257.661103 -39.212727 
L 256.614031 -39.212727 
L 255.566958 -39.212727 
L 254.519886 -39.212727 
L 253.472814 -39.212727 
L 252.425742 -39.212727 
L 251.378669 -39.212727 
L 250.331597 -39.212727 
L 249.284525 -39.212727 
L 248.237453 -39.212727 
L 247.19038 -39.212727 
L 246.143308 -39.212727 
L 245.096236 -39.212727 
L 244.049164 -39.212727 
L 243.002092 -39.212727 
L 241.955019 -39.212727 
L 240.907947 -39.212727 
L 239.860875 -39.212727 
L 238.813803 -39.212727 
L 237.76673 -39.212727 
L 236.719658 -39.212727 
L 235.672586 -39.212727 
L 234.625514 -39.212727 
L 233.578442 -39.212727 
L 232.531369 -39.212727 
L 231.484297 -39.212727 
L 230.437225 -39.212727 
L 229.390153 -39.212727 
L 228.34308 -39.212727 
L 227.296008 -39.212727 
L 226.248936 -39.212727 
L 225.201864 -39.212727 
L 224.154792 -39.212727 
L 223.107719 -39.212727 
L 222.060647 -39.212727 
L 221.013575 -39.212727 
L 219.966503 -39.212727 
L 218.91943 -39.212727 
L 217.872358 -39.212727 
L 216.825286 -39.212727 
L 215.778214 -39.212727 
L 214.731141 -39.212727 
L 213.684069 -39.212727 
L 212.636997 -39.212727 
L 211.589925 -39.212727 
L 210.542853 -39.212727 
L 209.49578 -39.212727 
L 208.448708 -39.212727 
L 207.401636 -39.212727 
L 206.354564 -39.212727 
L 205.307491 -39.212727 
L 204.260419 -39.212727 
L 203.213347 -39.212727 
L 202.166275 -39.212727 
L 201.119203 -39.212727 
L 200.07213 -39.212727 
L 199.025058 -39.212727 
L 197.977986 -39.212727 
L 196.930914 -39.212727 
L 195.883841 -39.212727 
L 194.836769 -39.212727 
L 193.789697 -39.212727 
L 192.742625 -39.212727 
L 191.695553 -39.212727 
L 190.64848 -39.212727 
L 189.601408 -39.212727 
L 188.554336 -39.212727 
L 187.507264 -39.212727 
L 186.460191 -39.212727 
L 185.413119 -39.212727 
L 184.366047 -39.212727 
L 183.318975 -39.212727 
L 182.271902 -39.212727 
L 181.22483 -39.212727 
L 180.177758 -39.212727 
L 179.130686 -39.212727 
L 178.083614 -39.212727 
L 177.036541 -39.212727 
L 175.989469 -39.212727 
L 174.942397 -39.212727 
L 173.895325 -39.212727 
L 172.848252 -39.212727 
L 171.80118 -39.212727 
L 170.754108 -39.212727 
L 169.707036 -39.212727 
L 168.659964 -39.212727 
L 167.612891 -39.212727 
L 166.565819 -39.212727 
L 165.518747 -39.212727 
L 164.471675 -39.212727 
L 163.424602 -39.212727 
L 162.37753 -39.212727 
L 161.330458 -39.212727 
L 160.283386 -39.212727 
L 159.236314 -39.212727 
L 158.189241 -39.212727 
L 157.142169 -39.212727 
L 156.095097 -39.212727 
L 155.048025 -39.212727 
L 154.000952 -39.212727 
L 152.95388 -39.212727 
L 151.906808 -39.212727 
L 150.859736 -39.212727 
L 149.812663 -39.212727 
L 148.765591 -39.212727 
L 147.718519 -39.212727 
L 146.671447 -39.212727 
L 145.624375 -39.212727 
L 144.577302 -39.212727 
L 143.53023 -39.212727 
L 142.483158 -39.212727 
L 141.436086 -39.212727 
L 140.389013 -39.212727 
L 139.341941 -39.212727 
L 138.294869 -39.212727 
L 137.247797 -39.212727 
L 136.200725 -39.212727 
L 135.153652 -39.212727 
L 134.10658 -39.212727 
L 133.059508 -39.212727 
L 132.012436 -39.212727 
L 130.965363 -39.212727 
L 129.918291 -39.212727 
L 128.871219 -39.212727 
L 127.824147 -39.212727 
L 126.777075 -39.212727 
L 125.730002 -39.212727 
L 124.68293 -39.212727 
L 123.635858 -39.212727 
L 122.588786 -39.212727 
L 121.541713 -39.212727 
L 120.494641 -39.212727 
L 119.447569 -39.212727 
L 118.400497 -39.212727 
L 117.353424 -39.212727 
L 116.306352 -39.212727 
L 115.25928 -39.212727 
L 114.212208 -39.212727 
L 113.165136 -39.212727 
L 112.118063 -39.212727 
L 111.070991 -39.212727 
L 110.023919 -39.212727 
L 108.976847 -39.212727 
L 107.929774 -39.212727 
L 106.882702 -39.212727 
L 105.83563 -39.212727 
L 104.788558 -39.212727 
L 103.741486 -39.212727 
L 102.694413 -39.212727 
L 101.647341 -39.212727 
L 100.600269 -39.212727 
L 99.553197 -39.212727 
L 98.506124 -39.212727 
L 97.459052 -39.212727 
L 96.41198 -39.212727 
L 95.364908 -39.212727 
L 94.317835 -39.212727 
L 93.270763 -39.212727 
L 92.223691 -39.212727 
L 91.176619 -39.212727 
L 90.129547 -39.212727 
L 89.082474 -39.212727 
L 88.035402 -39.212727 
L 86.98833 -39.212727 
L 85.941258 -39.212727 
L 84.894185 -39.212727 
L 83.847113 -39.212727 
L 82.800041 -39.212727 
L 81.752969 -39.212727 
L 80.705897 -39.212727 
L 79.658824 -39.212727 
L 78.611752 -39.212727 
L 77.56468 -39.212727 
L 76.517608 -39.212727 
L 75.470535 -39.212727 
L 74.423463 -39.212727 
L 73.376391 -39.212727 
L 72.329319 -39.212727 
L 71.282247 -39.212727 
L 70.235174 -39.212727 
L 69.188102 -39.212727 
L 68.14103 -39.212727 
L 67.093958 -39.212727 
L 66.046885 -39.212727 
L 64.999813 -39.212727 
L 63.952741 -39.212727 
L 62.905669 -39.212727 
L 61.858596 -39.212727 
L 60.811524 -39.212727 
L 59.764452 -39.212727 
L 58.71738 -39.212727 
L 57.670308 -39.212727 
L 56.623235 -39.212727 
L 55.576163 -39.212727 
L 54.529091 -39.212727 
z
" style="stroke: #feffb3; stroke-opacity: 0.5"/>
    </defs>
    <g clip-path="url(#p8e2173478c)">
     <use xlink:href="#m234cf95a0b" x="0" y="288" style="fill: #feffb3; fill-opacity: 0.5; stroke: #feffb3; stroke-opacity: 0.5"/>
    </g>
   </g>
   <g id="matplotlib.axis_1">
    <g id="xtick_1">
     <g id="line2d_1">
      <defs>
       <path id="m81b42b25b3" d="M 0 0 
L 0 3.5 
" style="stroke: #ffffff; stroke-width: 0.8"/>
      </defs>
      <g>
       <use xlink:href="#m81b42b25b3" x="96.307273" y="260.12" style="fill: #ffffff; stroke: #ffffff; stroke-width: 0.8"/>
      </g>
     </g>
     <g id="text_1">
      <!-- −4 -->
      <g style="fill: #ffffff" transform="translate(88.936179 274.718437) scale(0.1 -0.1)">
       <defs>
        <path id="DejaVuSans-2212" d="M 678 2272 
L 4684 2272 
L 4684 1741 
L 678 1741 
L 678 2272 
z
" transform="scale(0.015625)"/>
        <path id="DejaVuSans-34" d="M 2419 4116 
L 825 1625 
L 2419 1625 
L 2419 4116 
z
M 2253 4666 
L 3047 4666 
L 3047 1625 
L 3713 1625 
L 3713 1100 
L 3047 1100 
L 3047 0 
L 2419 0 
L 2419 1100 
L 313 1100 
L 313 1709 
L 2253 4666 
z
" transform="scale(0.015625)"/>
       </defs>
       <use xlink:href="#DejaVuSans-2212"/>
       <use xlink:href="#DejaVuSans-34" transform="translate(83.789062 0)"/>
      </g>
     </g>
    </g>
    <g id="xtick_2">
     <g id="line2d_2">
      <g>
       <use xlink:href="#m81b42b25b3" x="179.863636" y="260.12" style="fill: #ffffff; stroke: #ffffff; stroke-width: 0.8"/>
      </g>
     </g>
     <g id="text_2">
      <!-- −2 -->
      <g style="fill: #ffffff" transform="translate(172.492543 274.718437) scale(0.1 -0.1)">
       <defs>
        <path id="DejaVuSans-32" d="M 1228 531 
L 3431 531 
L 3431 0 
L 469 0 
L 469 531 
Q 828 903 1448 1529 
Q 2069 2156 2228 2338 
Q 2531 2678 2651 2914 
Q 2772 3150 2772 3378 
Q 2772 3750 2511 3984 
Q 2250 4219 1831 4219 
Q 1534 4219 1204 4116 
Q 875 4013 500 3803 
L 500 4441 
Q 881 4594 1212 4672 
Q 1544 4750 1819 4750 
Q 2544 4750 2975 4387 
Q 3406 4025 3406 3419 
Q 3406 3131 3298 2873 
Q 3191 2616 2906 2266 
Q 2828 2175 2409 1742 
Q 1991 1309 1228 531 
z
" transform="scale(0.015625)"/>
       </defs>
       <use xlink:href="#DejaVuSans-2212"/>
       <use xlink:href="#DejaVuSans-32" transform="translate(83.789062 0)"/>
      </g>
     </g>
    </g>
    <g id="xtick_3">
     <g id="line2d_3">
      <g>
       <use xlink:href="#m81b42b25b3" x="263.42" y="260.12" style="fill: #ffffff; stroke: #ffffff; stroke-width: 0.8"/>
      </g>
     </g>
     <g id="text_3">
      <!-- 0 -->
      <g style="fill: #ffffff" transform="translate(260.23875 274.718437) scale(0.1 -0.1)">
       <defs>
        <path id="DejaVuSans-30" d="M 2034 4250 
Q 1547 4250 1301 3770 
Q 1056 3291 1056 2328 
Q 1056 1369 1301 889 
Q 1547 409 2034 409 
Q 2525 409 2770 889 
Q 3016 1369 3016 2328 
Q 3016 3291 2770 3770 
Q 2525 4250 2034 4250 
z
M 2034 4750 
Q 2819 4750 3233 4129 
Q 3647 3509 3647 2328 
Q 3647 1150 3233 529 
Q 2819 -91 2034 -91 
Q 1250 -91 836 529 
Q 422 1150 422 2328 
Q 422 3509 836 4129 
Q 1250 4750 2034 4750 
z
" transform="scale(0.015625)"/>
       </defs>
       <use xlink:href="#DejaVuSans-30"/>
      </g>
     </g>
    </g>
    <g id="xtick_4">
     <g id="line2d_4">
      <g>
       <use xlink:href="#m81b42b25b3" x="346.976364" y="260.12" style="fill: #ffffff; stroke: #ffffff; stroke-width: 0.8"/>
      </g>
     </g>
     <g id="text_4">
      <!-- 2 -->
      <g style="fill: #ffffff" transform="translate(343.795114 274.718437) scale(0.1 -0.1)">
       <use xlink:href="#DejaVuSans-32"/>
      </g>
     </g>
    </g>
    <g id="xtick_5">
     <g id="line2d_5">
      <g>
       <use xlink:href="#m81b42b25b3" x="430.532727" y="260.12" style="fill: #ffffff; stroke: #ffffff; stroke-width: 0.8"/>
      </g>
     </g>
     <g id="text_5">
      <!-- 4 -->
      <g style="fill: #ffffff" transform="translate(427.351477 274.718437) scale(0.1 -0.1)">
       <use xlink:href="#DejaVuSans-34"/>
      </g>
     </g>
    </g>
   </g>
   <g id="matplotlib.axis_2">
    <g id="ytick_1">
     <g id="line2d_6">
      <defs>
       <path id="m8368019d75" d="M 0 0 
L -3.5 0 
" style="stroke: #ffffff; stroke-width: 0.8"/>
      </defs>
      <g>
       <use xlink:href="#m8368019d75" x="33.64" y="248.787273" style="fill: #ffffff; stroke: #ffffff; stroke-width: 0.8"/>
      </g>
     </g>
     <g id="text_6">
      <!-- 0.0 -->
      <g style="fill: #ffffff" transform="translate(10.736875 252.586491) scale(0.1 -0.1)">
       <defs>
        <path id="DejaVuSans-2e" d="M 684 794 
L 1344 794 
L 1344 0 
L 684 0 
L 684 794 
z
" transform="scale(0.015625)"/>
       </defs>
       <use xlink:href="#DejaVuSans-30"/>
       <use xlink:href="#DejaVuSans-2e" transform="translate(63.623047 0)"/>
       <use xlink:href="#DejaVuSans-30" transform="translate(95.410156 0)"/>
      </g>
     </g>
    </g>
    <g id="ytick_2">
     <g id="line2d_7">
      <g>
       <use xlink:href="#m8368019d75" x="33.64" y="220.377126" style="fill: #ffffff; stroke: #ffffff; stroke-width: 0.8"/>
      </g>
     </g>
     <g id="text_7">
      <!-- 0.1 -->
      <g style="fill: #ffffff" transform="translate(10.736875 224.176345) scale(0.1 -0.1)">
       <defs>
        <path id="DejaVuSans-31" d="M 794 531 
L 1825 531 
L 1825 4091 
L 703 3866 
L 703 4441 
L 1819 4666 
L 2450 4666 
L 2450 531 
L 3481 531 
L 3481 0 
L 794 0 
L 794 531 
z
" transform="scale(0.015625)"/>
       </defs>
       <use xlink:href="#DejaVuSans-30"/>
       <use xlink:href="#DejaVuSans-2e" transform="translate(63.623047 0)"/>
       <use xlink:href="#DejaVuSans-31" transform="translate(95.410156 0)"/>
      </g>
     </g>
    </g>
    <g id="ytick_3">
     <g id="line2d_8">
      <g>
       <use xlink:href="#m8368019d75" x="33.64" y="191.96698" style="fill: #ffffff; stroke: #ffffff; stroke-width: 0.8"/>
      </g>
     </g>
     <g id="text_8">
      <!-- 0.2 -->
      <g style="fill: #ffffff" transform="translate(10.736875 195.766198) scale(0.1 -0.1)">
       <use xlink:href="#DejaVuSans-30"/>
       <use xlink:href="#DejaVuSans-2e" transform="translate(63.623047 0)"/>
       <use xlink:href="#DejaVuSans-32" transform="translate(95.410156 0)"/>
      </g>
     </g>
    </g>
    <g id="ytick_4">
     <g id="line2d_9">
      <g>
       <use xlink:href="#m8368019d75" x="33.64" y="163.556833" style="fill: #ffffff; stroke: #ffffff; stroke-width: 0.8"/>
      </g>
     </g>
     <g id="text_9">
      <!-- 0.3 -->
      <g style="fill: #ffffff" transform="translate(10.736875 167.356052) scale(0.1 -0.1)">
       <defs>
        <path id="DejaVuSans-33" d="M 2597 2516 
Q 3050 2419 3304 2112 
Q 3559 1806 3559 1356 
Q 3559 666 3084 287 
Q 2609 -91 1734 -91 
Q 1441 -91 1130 -33 
Q 819 25 488 141 
L 488 750 
Q 750 597 1062 519 
Q 1375 441 1716 441 
Q 2309 441 2620 675 
Q 2931 909 2931 1356 
Q 2931 1769 2642 2001 
Q 2353 2234 1838 2234 
L 1294 2234 
L 1294 2753 
L 1863 2753 
Q 2328 2753 2575 2939 
Q 2822 3125 2822 3475 
Q 2822 3834 2567 4026 
Q 2313 4219 1838 4219 
Q 1578 4219 1281 4162 
Q 984 4106 628 3988 
L 628 4550 
Q 988 4650 1302 4700 
Q 1616 4750 1894 4750 
Q 2613 4750 3031 4423 
Q 3450 4097 3450 3541 
Q 3450 3153 3228 2886 
Q 3006 2619 2597 2516 
z
" transform="scale(0.015625)"/>
       </defs>
       <use xlink:href="#DejaVuSans-30"/>
       <use xlink:href="#DejaVuSans-2e" transform="translate(63.623047 0)"/>
       <use xlink:href="#DejaVuSans-33" transform="translate(95.410156 0)"/>
      </g>
     </g>
    </g>
    <g id="ytick_5">
     <g id="line2d_10">
      <g>
       <use xlink:href="#m8368019d75" x="33.64" y="135.146686" style="fill: #ffffff; stroke: #ffffff; stroke-width: 0.8"/>
      </g>
     </g>
     <g id="text_10">
      <!-- 0.4 -->
      <g style="fill: #ffffff" transform="translate(10.736875 138.945905) scale(0.1 -0.1)">
       <use xlink:href="#DejaVuSans-30"/>
       <use xlink:href="#DejaVuSans-2e" transform="translate(63.623047 0)"/>
       <use xlink:href="#DejaVuSans-34" transform="translate(95.410156 0)"/>
      </g>
     </g>
    </g>
    <g id="ytick_6">
     <g id="line2d_11">
      <g>
       <use xlink:href="#m8368019d75" x="33.64" y="106.73654" style="fill: #ffffff; stroke: #ffffff; stroke-width: 0.8"/>
      </g>
     </g>
     <g id="text_11">
      <!-- 0.5 -->
      <g style="fill: #ffffff" transform="translate(10.736875 110.535758) scale(0.1 -0.1)">
       <defs>
        <path id="DejaVuSans-35" d="M 691 4666 
L 3169 4666 
L 3169 4134 
L 1269 4134 
L 1269 2991 
Q 1406 3038 1543 3061 
Q 1681 3084 1819 3084 
Q 2600 3084 3056 2656 
Q 3513 2228 3513 1497 
Q 3513 744 3044 326 
Q 2575 -91 1722 -91 
Q 1428 -91 1123 -41 
Q 819 9 494 109 
L 494 744 
Q 775 591 1075 516 
Q 1375 441 1709 441 
Q 2250 441 2565 725 
Q 2881 1009 2881 1497 
Q 2881 1984 2565 2268 
Q 2250 2553 1709 2553 
Q 1456 2553 1204 2497 
Q 953 2441 691 2322 
L 691 4666 
z
" transform="scale(0.015625)"/>
       </defs>
       <use xlink:href="#DejaVuSans-30"/>
       <use xlink:href="#DejaVuSans-2e" transform="translate(63.623047 0)"/>
       <use xlink:href="#DejaVuSans-35" transform="translate(95.410156 0)"/>
      </g>
     </g>
    </g>
    <g id="ytick_7">
     <g id="line2d_12">
      <g>
       <use xlink:href="#m8368019d75" x="33.64" y="78.326393" style="fill: #ffffff; stroke: #ffffff; stroke-width: 0.8"/>
      </g>
     </g>
     <g id="text_12">
      <!-- 0.6 -->
      <g style="fill: #ffffff" transform="translate(10.736875 82.125612) scale(0.1 -0.1)">
       <defs>
        <path id="DejaVuSans-36" d="M 2113 2584 
Q 1688 2584 1439 2293 
Q 1191 2003 1191 1497 
Q 1191 994 1439 701 
Q 1688 409 2113 409 
Q 2538 409 2786 701 
Q 3034 994 3034 1497 
Q 3034 2003 2786 2293 
Q 2538 2584 2113 2584 
z
M 3366 4563 
L 3366 3988 
Q 3128 4100 2886 4159 
Q 2644 4219 2406 4219 
Q 1781 4219 1451 3797 
Q 1122 3375 1075 2522 
Q 1259 2794 1537 2939 
Q 1816 3084 2150 3084 
Q 2853 3084 3261 2657 
Q 3669 2231 3669 1497 
Q 3669 778 3244 343 
Q 2819 -91 2113 -91 
Q 1303 -91 875 529 
Q 447 1150 447 2328 
Q 447 3434 972 4092 
Q 1497 4750 2381 4750 
Q 2619 4750 2861 4703 
Q 3103 4656 3366 4563 
z
" transform="scale(0.015625)"/>
       </defs>
       <use xlink:href="#DejaVuSans-30"/>
       <use xlink:href="#DejaVuSans-2e" transform="translate(63.623047 0)"/>
       <use xlink:href="#DejaVuSans-36" transform="translate(95.410156 0)"/>
      </g>
     </g>
    </g>
    <g id="ytick_8">
     <g id="line2d_13">
      <g>
       <use xlink:href="#m8368019d75" x="33.64" y="49.916246" style="fill: #ffffff; stroke: #ffffff; stroke-width: 0.8"/>
      </g>
     </g>
     <g id="text_13">
      <!-- 0.7 -->
      <g style="fill: #ffffff" transform="translate(10.736875 53.715465) scale(0.1 -0.1)">
       <defs>
        <path id="DejaVuSans-37" d="M 525 4666 
L 3525 4666 
L 3525 4397 
L 1831 0 
L 1172 0 
L 2766 4134 
L 525 4134 
L 525 4666 
z
" transform="scale(0.015625)"/>
       </defs>
       <use xlink:href="#DejaVuSans-30"/>
       <use xlink:href="#DejaVuSans-2e" transform="translate(63.623047 0)"/>
       <use xlink:href="#DejaVuSans-37" transform="translate(95.410156 0)"/>
      </g>
     </g>
    </g>
    <g id="ytick_9">
     <g id="line2d_14">
      <g>
       <use xlink:href="#m8368019d75" x="33.64" y="21.5061" style="fill: #ffffff; stroke: #ffffff; stroke-width: 0.8"/>
      </g>
     </g>
     <g id="text_14">
      <!-- 0.8 -->
      <g style="fill: #ffffff" transform="translate(10.736875 25.305319) scale(0.1 -0.1)">
       <defs>
        <path id="DejaVuSans-38" d="M 2034 2216 
Q 1584 2216 1326 1975 
Q 1069 1734 1069 1313 
Q 1069 891 1326 650 
Q 1584 409 2034 409 
Q 2484 409 2743 651 
Q 3003 894 3003 1313 
Q 3003 1734 2745 1975 
Q 2488 2216 2034 2216 
z
M 1403 2484 
Q 997 2584 770 2862 
Q 544 3141 544 3541 
Q 544 4100 942 4425 
Q 1341 4750 2034 4750 
Q 2731 4750 3128 4425 
Q 3525 4100 3525 3541 
Q 3525 3141 3298 2862 
Q 3072 2584 2669 2484 
Q 3125 2378 3379 2068 
Q 3634 1759 3634 1313 
Q 3634 634 3220 271 
Q 2806 -91 2034 -91 
Q 1263 -91 848 271 
Q 434 634 434 1313 
Q 434 1759 690 2068 
Q 947 2378 1403 2484 
z
M 1172 3481 
Q 1172 3119 1398 2916 
Q 1625 2713 2034 2713 
Q 2441 2713 2670 2916 
Q 2900 3119 2900 3481 
Q 2900 3844 2670 4047 
Q 2441 4250 2034 4250 
Q 1625 4250 1398 4047 
Q 1172 3844 1172 3481 
z
" transform="scale(0.015625)"/>
       </defs>
       <use xlink:href="#DejaVuSans-30"/>
       <use xlink:href="#DejaVuSans-2e" transform="translate(63.623047 0)"/>
       <use xlink:href="#DejaVuSans-38" transform="translate(95.410156 0)"/>
      </g>
     </g>
    </g>
   </g>
   <g id="line2d_15">
    <path d="M 54.529091 248.78685 
L 107.929774 248.675972 
L 121.541713 248.432395 
L 130.965363 248.043045 
L 138.294869 247.509117 
L 144.577302 246.804521 
L 149.812663 245.977506 
L 154.000952 245.115452 
L 158.189241 244.036897 
L 162.37753 242.702985 
L 166.565819 241.072436 
L 169.707036 239.629283 
L 172.848252 237.977455 
L 175.989469 236.099615 
L 179.130686 233.979514 
L 182.271902 231.602568 
L 185.413119 228.9565 
L 188.554336 226.032001 
L 191.695553 222.823413 
L 194.836769 219.329404 
L 197.977986 215.55361 
L 202.166275 210.097612 
L 206.354564 204.196305 
L 210.542853 197.908793 
L 215.778214 189.630395 
L 233.578442 160.967131 
L 237.76673 154.92079 
L 240.907947 150.763031 
L 244.049164 146.998174 
L 247.19038 143.684571 
L 249.284525 141.752479 
L 251.378669 140.0584 
L 253.472814 138.614671 
L 255.566958 137.431908 
L 257.661103 136.518882 
L 259.755247 135.882406 
L 261.849392 135.52725 
L 263.943536 135.456085 
L 266.037681 135.669446 
L 268.131825 136.165729 
L 270.225969 136.941205 
L 272.320114 137.990076 
L 274.414258 139.304536 
L 276.508403 140.874879 
L 278.602547 142.689608 
L 280.696692 144.735582 
L 283.837908 148.205766 
L 286.979125 152.108313 
L 290.120342 156.383302 
L 294.308631 162.552378 
L 299.543992 170.797864 
L 317.34422 199.512854 
L 321.532509 205.710506 
L 325.720797 211.505209 
L 329.909086 216.843071 
L 333.050303 220.525672 
L 336.19152 223.924686 
L 339.332736 227.038203 
L 342.473953 229.869069 
L 345.61517 232.424234 
L 348.756386 234.714073 
L 351.897603 236.751706 
L 355.03882 238.552338 
L 358.180036 240.132643 
L 361.321253 241.5102 
L 365.509542 243.062629 
L 369.697831 244.328908 
L 373.88612 245.349811 
L 378.074409 246.163444 
L 383.30977 246.941537 
L 389.592203 247.601919 
L 396.921709 248.100108 
L 405.298287 248.432395 
L 416.816081 248.653314 
L 435.663381 248.764183 
L 472.310909 248.78685 
L 472.310909 248.78685 
" clip-path="url(#p8e2173478c)" style="fill: none; stroke: #8dd3c7; stroke-width: 2; stroke-linecap: square"/>
   </g>
   <g id="line2d_16">
    <path d="M 54.529091 248.787273 
L 264.990608 248.684839 
L 271.273042 248.468528 
L 275.461331 248.141196 
L 278.602547 247.718323 
L 281.743764 247.058212 
L 283.837908 246.434448 
L 285.932053 245.617675 
L 288.026197 244.560061 
L 290.120342 243.205925 
L 292.214486 241.4917 
L 294.308631 239.346338 
L 296.402775 236.692272 
L 298.49692 233.447038 
L 300.591064 229.525626 
L 302.685208 224.843639 
L 304.779353 219.32122 
L 306.873497 212.887713 
L 308.967642 205.486908 
L 311.061786 197.082667 
L 313.155931 187.664623 
L 315.250075 177.253624 
L 317.34422 165.906492 
L 320.485436 147.352903 
L 324.673725 120.588578 
L 330.956159 79.861563 
L 334.097375 61.343583 
L 336.19152 50.391867 
L 338.285664 40.900117 
L 339.332736 36.785787 
L 340.379809 33.132555 
L 341.426881 29.966857 
L 342.473953 27.311856 
L 343.521025 25.187153 
L 344.568098 23.60855 
L 345.61517 22.587854 
L 346.662242 22.132727 
L 347.709314 22.246595 
L 348.756386 22.928599 
L 349.803459 24.173612 
L 350.850531 25.972299 
L 351.897603 28.311235 
L 352.944675 31.173073 
L 353.991748 34.536754 
L 355.03882 38.377771 
L 357.132964 47.378342 
L 359.227109 57.921806 
L 361.321253 69.722049 
L 364.46247 89.106289 
L 374.933192 156.218184 
L 378.074409 173.944183 
L 380.168553 184.643732 
L 382.262698 194.363404 
L 384.356842 203.072017 
L 386.450987 210.771121 
L 388.545131 217.489718 
L 390.639275 223.278596 
L 392.73342 228.204651 
L 394.827564 232.345497 
L 396.921709 235.784618 
L 399.015853 238.607207 
L 401.109998 240.896775 
L 403.204142 242.732561 
L 405.298287 244.187697 
L 407.392431 245.328059 
L 409.486576 246.21171 
L 411.58072 246.888809 
L 414.721937 247.608273 
L 417.863153 248.071452 
L 422.051442 248.431984 
L 427.286803 248.647394 
L 436.710453 248.764972 
L 468.12262 248.787261 
L 472.310909 248.787269 
L 472.310909 248.787269 
" clip-path="url(#p8e2173478c)" style="fill: none; stroke: #feffb3; stroke-width: 2; stroke-linecap: square"/>
   </g>
   <g id="patch_3">
    <path d="M 33.64 260.12 
L 33.64 10.8 
" style="fill: none; stroke: #ffffff; stroke-width: 0.8; stroke-linejoin: miter; stroke-linecap: square"/>
   </g>
   <g id="patch_4">
    <path d="M 493.2 260.12 
L 493.2 10.8 
" style="fill: none; stroke: #ffffff; stroke-width: 0.8; stroke-linejoin: miter; stroke-linecap: square"/>
   </g>
   <g id="patch_5">
    <path d="M 33.64 260.12 
L 493.2 260.12 
" style="fill: none; stroke: #ffffff; stroke-width: 0.8; stroke-linejoin: miter; stroke-linecap: square"/>
   </g>
   <g id="patch_6">
    <path d="M 33.64 10.8 
L 493.2 10.8 
" style="fill: none; stroke: #ffffff; stroke-width: 0.8; stroke-linejoin: miter; stroke-linecap: square"/>
   </g>
   <g id="legend_1">
    <g id="patch_7">
     <path d="M 40.64 48.15625 
L 202.225938 48.15625 
Q 204.225938 48.15625 204.225938 46.15625 
L 204.225938 17.8 
Q 204.225938 15.8 202.225938 15.8 
L 40.64 15.8 
Q 38.64 15.8 38.64 17.8 
L 38.64 46.15625 
Q 38.64 48.15625 40.64 48.15625 
z
" style="opacity: 0.8; stroke: #cccccc; stroke-linejoin: miter"/>
    </g>
    <g id="line2d_17">
     <path d="M 42.64 23.898438 
L 52.64 23.898438 
L 62.64 23.898438 
" style="fill: none; stroke: #8dd3c7; stroke-width: 2; stroke-linecap: square"/>
    </g>
    <g id="text_15">
     <!-- Gaussian 1: μ=0, σ=1 -->
     <g style="fill: #ffffff" transform="translate(70.64 27.398438) scale(0.1 -0.1)">
      <defs>
       <path id="DejaVuSans-47" d="M 3809 666 
L 3809 1919 
L 2778 1919 
L 2778 2438 
L 4434 2438 
L 4434 434 
Q 4069 175 3628 42 
Q 3188 -91 2688 -91 
Q 1594 -91 976 548 
Q 359 1188 359 2328 
Q 359 3472 976 4111 
Q 1594 4750 2688 4750 
Q 3144 4750 3555 4637 
Q 3966 4525 4313 4306 
L 4313 3634 
Q 3963 3931 3569 4081 
Q 3175 4231 2741 4231 
Q 1884 4231 1454 3753 
Q 1025 3275 1025 2328 
Q 1025 1384 1454 906 
Q 1884 428 2741 428 
Q 3075 428 3337 486 
Q 3600 544 3809 666 
z
" transform="scale(0.015625)"/>
       <path id="DejaVuSans-61" d="M 2194 1759 
Q 1497 1759 1228 1600 
Q 959 1441 959 1056 
Q 959 750 1161 570 
Q 1363 391 1709 391 
Q 2188 391 2477 730 
Q 2766 1069 2766 1631 
L 2766 1759 
L 2194 1759 
z
M 3341 1997 
L 3341 0 
L 2766 0 
L 2766 531 
Q 2569 213 2275 61 
Q 1981 -91 1556 -91 
Q 1019 -91 701 211 
Q 384 513 384 1019 
Q 384 1609 779 1909 
Q 1175 2209 1959 2209 
L 2766 2209 
L 2766 2266 
Q 2766 2663 2505 2880 
Q 2244 3097 1772 3097 
Q 1472 3097 1187 3025 
Q 903 2953 641 2809 
L 641 3341 
Q 956 3463 1253 3523 
Q 1550 3584 1831 3584 
Q 2591 3584 2966 3190 
Q 3341 2797 3341 1997 
z
" transform="scale(0.015625)"/>
       <path id="DejaVuSans-75" d="M 544 1381 
L 544 3500 
L 1119 3500 
L 1119 1403 
Q 1119 906 1312 657 
Q 1506 409 1894 409 
Q 2359 409 2629 706 
Q 2900 1003 2900 1516 
L 2900 3500 
L 3475 3500 
L 3475 0 
L 2900 0 
L 2900 538 
Q 2691 219 2414 64 
Q 2138 -91 1772 -91 
Q 1169 -91 856 284 
Q 544 659 544 1381 
z
M 1991 3584 
L 1991 3584 
z
" transform="scale(0.015625)"/>
       <path id="DejaVuSans-73" d="M 2834 3397 
L 2834 2853 
Q 2591 2978 2328 3040 
Q 2066 3103 1784 3103 
Q 1356 3103 1142 2972 
Q 928 2841 928 2578 
Q 928 2378 1081 2264 
Q 1234 2150 1697 2047 
L 1894 2003 
Q 2506 1872 2764 1633 
Q 3022 1394 3022 966 
Q 3022 478 2636 193 
Q 2250 -91 1575 -91 
Q 1294 -91 989 -36 
Q 684 19 347 128 
L 347 722 
Q 666 556 975 473 
Q 1284 391 1588 391 
Q 1994 391 2212 530 
Q 2431 669 2431 922 
Q 2431 1156 2273 1281 
Q 2116 1406 1581 1522 
L 1381 1569 
Q 847 1681 609 1914 
Q 372 2147 372 2553 
Q 372 3047 722 3315 
Q 1072 3584 1716 3584 
Q 2034 3584 2315 3537 
Q 2597 3491 2834 3397 
z
" transform="scale(0.015625)"/>
       <path id="DejaVuSans-69" d="M 603 3500 
L 1178 3500 
L 1178 0 
L 603 0 
L 603 3500 
z
M 603 4863 
L 1178 4863 
L 1178 4134 
L 603 4134 
L 603 4863 
z
" transform="scale(0.015625)"/>
       <path id="DejaVuSans-6e" d="M 3513 2113 
L 3513 0 
L 2938 0 
L 2938 2094 
Q 2938 2591 2744 2837 
Q 2550 3084 2163 3084 
Q 1697 3084 1428 2787 
Q 1159 2491 1159 1978 
L 1159 0 
L 581 0 
L 581 3500 
L 1159 3500 
L 1159 2956 
Q 1366 3272 1645 3428 
Q 1925 3584 2291 3584 
Q 2894 3584 3203 3211 
Q 3513 2838 3513 2113 
z
" transform="scale(0.015625)"/>
       <path id="DejaVuSans-20" transform="scale(0.015625)"/>
       <path id="DejaVuSans-3a" d="M 750 794 
L 1409 794 
L 1409 0 
L 750 0 
L 750 794 
z
M 750 3309 
L 1409 3309 
L 1409 2516 
L 750 2516 
L 750 3309 
z
" transform="scale(0.015625)"/>
       <path id="DejaVuSans-3bc" d="M 544 -1331 
L 544 3500 
L 1119 3500 
L 1119 1325 
Q 1119 872 1334 640 
Q 1550 409 1972 409 
Q 2434 409 2667 671 
Q 2900 934 2900 1459 
L 2900 3500 
L 3475 3500 
L 3475 806 
Q 3475 619 3529 530 
Q 3584 441 3700 441 
Q 3728 441 3778 458 
Q 3828 475 3916 513 
L 3916 50 
Q 3788 -22 3673 -56 
Q 3559 -91 3450 -91 
Q 3234 -91 3106 31 
Q 2978 153 2931 403 
Q 2775 156 2548 32 
Q 2322 -91 2016 -91 
Q 1697 -91 1473 31 
Q 1250 153 1119 397 
L 1119 -1331 
L 544 -1331 
z
" transform="scale(0.015625)"/>
       <path id="DejaVuSans-3d" d="M 678 2906 
L 4684 2906 
L 4684 2381 
L 678 2381 
L 678 2906 
z
M 678 1631 
L 4684 1631 
L 4684 1100 
L 678 1100 
L 678 1631 
z
" transform="scale(0.015625)"/>
       <path id="DejaVuSans-2c" d="M 750 794 
L 1409 794 
L 1409 256 
L 897 -744 
L 494 -744 
L 750 256 
L 750 794 
z
" transform="scale(0.015625)"/>
       <path id="DejaVuSans-3c3" d="M 1959 3044 
Q 1484 3044 1228 2700 
Q 959 2341 959 1747 
Q 959 1119 1226 758 
Q 1494 397 1959 397 
Q 2419 397 2687 759 
Q 2956 1122 2956 1747 
Q 2956 2319 2688 2700 
Q 2441 3044 1959 3044 
z
M 1959 3500 
L 3869 3500 
L 3869 2925 
L 3225 2925 
Q 3566 2438 3566 1747 
Q 3566 888 3138 400 
Q 2709 -91 1959 -91 
Q 1206 -91 781 400 
Q 353 888 353 1747 
Q 353 2613 781 3097 
Q 1134 3500 1959 3500 
z
" transform="scale(0.015625)"/>
      </defs>
      <use xlink:href="#DejaVuSans-47"/>
      <use xlink:href="#DejaVuSans-61" transform="translate(77.490234 0)"/>
      <use xlink:href="#DejaVuSans-75" transform="translate(138.769531 0)"/>
      <use xlink:href="#DejaVuSans-73" transform="translate(202.148438 0)"/>
      <use xlink:href="#DejaVuSans-73" transform="translate(254.248047 0)"/>
      <use xlink:href="#DejaVuSans-69" transform="translate(306.347656 0)"/>
      <use xlink:href="#DejaVuSans-61" transform="translate(334.130859 0)"/>
      <use xlink:href="#DejaVuSans-6e" transform="translate(395.410156 0)"/>
      <use xlink:href="#DejaVuSans-20" transform="translate(458.789062 0)"/>
      <use xlink:href="#DejaVuSans-31" transform="translate(490.576172 0)"/>
      <use xlink:href="#DejaVuSans-3a" transform="translate(554.199219 0)"/>
      <use xlink:href="#DejaVuSans-20" transform="translate(587.890625 0)"/>
      <use xlink:href="#DejaVuSans-3bc" transform="translate(619.677734 0)"/>
      <use xlink:href="#DejaVuSans-3d" transform="translate(683.300781 0)"/>
      <use xlink:href="#DejaVuSans-30" transform="translate(767.089844 0)"/>
      <use xlink:href="#DejaVuSans-2c" transform="translate(830.712891 0)"/>
      <use xlink:href="#DejaVuSans-20" transform="translate(862.5 0)"/>
      <use xlink:href="#DejaVuSans-3c3" transform="translate(894.287109 0)"/>
      <use xlink:href="#DejaVuSans-3d" transform="translate(957.666016 0)"/>
      <use xlink:href="#DejaVuSans-31" transform="translate(1041.455078 0)"/>
     </g>
    </g>
    <g id="line2d_18">
     <path d="M 42.64 38.576562 
L 52.64 38.576562 
L 62.64 38.576562 
" style="fill: none; stroke: #feffb3; stroke-width: 2; stroke-linecap: square"/>
    </g>
    <g id="text_16">
     <!-- Gaussian 2: μ=0.5, σ=1.1 -->
     <g style="fill: #ffffff" transform="translate(70.64 42.076562) scale(0.1 -0.1)">
      <use xlink:href="#DejaVuSans-47"/>
      <use xlink:href="#DejaVuSans-61" transform="translate(77.490234 0)"/>
      <use xlink:href="#DejaVuSans-75" transform="translate(138.769531 0)"/>
      <use xlink:href="#DejaVuSans-73" transform="translate(202.148438 0)"/>
      <use xlink:href="#DejaVuSans-73" transform="translate(254.248047 0)"/>
      <use xlink:href="#DejaVuSans-69" transform="translate(306.347656 0)"/>
      <use xlink:href="#DejaVuSans-61" transform="translate(334.130859 0)"/>
      <use xlink:href="#DejaVuSans-6e" transform="translate(395.410156 0)"/>
      <use xlink:href="#DejaVuSans-20" transform="translate(458.789062 0)"/>
      <use xlink:href="#DejaVuSans-32" transform="translate(490.576172 0)"/>
      <use xlink:href="#DejaVuSans-3a" transform="translate(554.199219 0)"/>
      <use xlink:href="#DejaVuSans-20" transform="translate(587.890625 0)"/>
      <use xlink:href="#DejaVuSans-3bc" transform="translate(619.677734 0)"/>
      <use xlink:href="#DejaVuSans-3d" transform="translate(683.300781 0)"/>
      <use xlink:href="#DejaVuSans-30" transform="translate(767.089844 0)"/>
      <use xlink:href="#DejaVuSans-2e" transform="translate(830.712891 0)"/>
      <use xlink:href="#DejaVuSans-35" transform="translate(862.5 0)"/>
      <use xlink:href="#DejaVuSans-2c" transform="translate(926.123047 0)"/>
      <use xlink:href="#DejaVuSans-20" transform="translate(957.910156 0)"/>
      <use xlink:href="#DejaVuSans-3c3" transform="translate(989.697266 0)"/>
      <use xlink:href="#DejaVuSans-3d" transform="translate(1053.076172 0)"/>
      <use xlink:href="#DejaVuSans-31" transform="translate(1136.865234 0)"/>
      <use xlink:href="#DejaVuSans-2e" transform="translate(1200.488281 0)"/>
      <use xlink:href="#DejaVuSans-31" transform="translate(1232.275391 0)"/>
     </g>
    </g>
   </g>
  </g>
 </g>
 <defs>
  <clipPath id="p8e2173478c">
   <rect x="33.64" y="10.8" width="459.56" height="249.32"/>
  </clipPath>
 </defs>
</svg>
