<?xml version="1.0" encoding="utf-8" standalone="no"?>
<!DOCTYPE svg PUBLIC "-//W3C//DTD SVG 1.1//EN"
  "http://www.w3.org/Graphics/SVG/1.1/DTD/svg11.dtd">
<svg xmlns:xlink="http://www.w3.org/1999/xlink" width="504pt" height="288pt" viewBox="0 0 504 288" xmlns="http://www.w3.org/2000/svg" version="1.1">
 <metadata>
  <rdf:RDF xmlns:dc="http://purl.org/dc/elements/1.1/" xmlns:cc="http://creativecommons.org/ns#" xmlns:rdf="http://www.w3.org/1999/02/22-rdf-syntax-ns#">
   <cc:Work>
    <dc:type rdf:resource="http://purl.org/dc/dcmitype/StillImage"/>
    <dc:date>2026-04-13T22:13:09.036865</dc:date>
    <dc:format>image/svg+xml</dc:format>
    <dc:creator>
     <cc:Agent>
      <dc:title>Matplotlib v3.10.8, https://matplotlib.org/</dc:title>
     </cc:Agent>
    </dc:creator>
   </cc:Work>
  </rdf:RDF>
 </metadata>
 <defs>
  <style type="text/css">*{stroke-linejoin: round; stroke-linecap: butt}</style>
 </defs>
 <g id="figure_1">
  <g id="patch_1">
   <path d="M 0 288 
L 504 288 
L 504 0 
L 0 0 
L 0 288 
z
" style="fill: none"/>
  </g>
  <g id="axes_1">
   <g id="patch_2">
    <path d="M 39.94 260.12 
L 493.2 260.12 
L 493.2 28.32 
L 39.94 28.32 
L 39.94 260.12 
z
" style="fill: none"/>
   </g>
   <g id="FillBetweenPolyCollection_1">
    <defs>
     <path id="m07c56adb58" d="M 267.086359 -38.416364 
L 267.086359 -136.414118 
L 268.119077 -139.469324 
L 269.151795 -142.554348 
L 270.184514 -145.666165 
L 271.217232 -148.801609 
L 272.24995 -151.957376 
L 273.282668 -155.130027 
L 274.315386 -158.315994 
L 275.348104 -161.511584 
L 276.380823 -164.712987 
L 277.413541 -167.916281 
L 278.446259 -171.117441 
L 279.478977 -174.312344 
L 280.511695 -177.496778 
L 281.544413 -180.666452 
L 282.577131 -183.817003 
L 283.60985 -186.944007 
L 284.642568 -190.042989 
L 285.675286 -193.109432 
L 286.708004 -196.138787 
L 287.740722 -199.126486 
L 288.77344 -202.067952 
L 289.806159 -204.958612 
L 290.838877 -207.793905 
L 291.871595 -210.569298 
L 292.904313 -213.280295 
L 293.937031 -215.92245 
L 294.969749 -218.491381 
L 296.002468 -220.982778 
L 297.035186 -223.392417 
L 298.067904 -225.716173 
L 299.100622 -227.950031 
L 300.13334 -230.090096 
L 301.166058 -232.132607 
L 302.198776 -234.073945 
L 303.231495 -235.910645 
L 304.264213 -237.639409 
L 305.296931 -239.25711 
L 306.329649 -240.760808 
L 307.362367 -242.147752 
L 308.395085 -243.415394 
L 309.427804 -244.561397 
L 310.460522 -245.583635 
L 311.49324 -246.480209 
L 312.525958 -247.249446 
L 313.558676 -247.889908 
L 314.591394 -248.400394 
L 315.624113 -248.779945 
L 316.656831 -249.027848 
L 317.689549 -249.143636 
L 318.722267 -249.127091 
L 319.754985 -248.978244 
L 320.787703 -248.697376 
L 321.820422 -248.285014 
L 322.85314 -247.741935 
L 323.885858 -247.069158 
L 324.918576 -246.267942 
L 325.951294 -245.339786 
L 326.984012 -244.28642 
L 328.01673 -243.1098 
L 329.049449 -241.812104 
L 330.082167 -240.395725 
L 331.114885 -238.863261 
L 332.147603 -237.217511 
L 333.180321 -235.461463 
L 334.213039 -233.598288 
L 335.245758 -231.631326 
L 336.278476 -229.564081 
L 337.311194 -227.40021 
L 338.343912 -225.143507 
L 339.37663 -222.797899 
L 340.409348 -220.36743 
L 341.442067 -217.85625 
L 342.474785 -215.268606 
L 343.507503 -212.608827 
L 344.540221 -209.881312 
L 345.572939 -207.09052 
L 346.605657 -204.240959 
L 347.638375 -201.33717 
L 348.671094 -198.383716 
L 349.703812 -195.385175 
L 350.73653 -192.34612 
L 351.769248 -189.271117 
L 352.801966 -186.164708 
L 353.834684 -183.031399 
L 354.867403 -179.875654 
L 355.900121 -176.701884 
L 356.932839 -173.514434 
L 357.965557 -170.317575 
L 358.998275 -167.115499 
L 360.030993 -163.912304 
L 361.063712 -160.71199 
L 362.09643 -157.518454 
L 363.129148 -154.335474 
L 364.161866 -151.166715 
L 365.194584 -148.015711 
L 366.227302 -144.885869 
L 367.260021 -141.78046 
L 368.292739 -138.702613 
L 369.325457 -135.655315 
L 370.358175 -132.641408 
L 371.390893 -129.663583 
L 372.423611 -126.72438 
L 373.456329 -123.826187 
L 374.489048 -120.971239 
L 375.521766 -118.161614 
L 376.554484 -115.39924 
L 377.587202 -112.685888 
L 378.61992 -110.023179 
L 379.652638 -107.41258 
L 380.685357 -104.855411 
L 381.718075 -102.352843 
L 382.750793 -99.905904 
L 383.783511 -97.515479 
L 384.816229 -95.182314 
L 385.848947 -92.907022 
L 386.881666 -90.690082 
L 387.914384 -88.531849 
L 388.947102 -86.432553 
L 389.97982 -84.392307 
L 391.012538 -82.411109 
L 392.045256 -80.488849 
L 393.077974 -78.625313 
L 394.110693 -76.82019 
L 395.143411 -75.073073 
L 396.176129 -73.383466 
L 397.208847 -71.750793 
L 398.241565 -70.174398 
L 399.274283 -68.653551 
L 400.307002 -67.187458 
L 401.33972 -65.77526 
L 402.372438 -64.416042 
L 403.405156 -63.108836 
L 404.437874 -61.852628 
L 405.470592 -60.64636 
L 406.503311 -59.488939 
L 407.536029 -58.379236 
L 408.568747 -57.316096 
L 409.601465 -56.298338 
L 410.634183 -55.324763 
L 411.666901 -54.394154 
L 412.69962 -53.505284 
L 413.732338 -52.656915 
L 414.765056 -51.847806 
L 415.797774 -51.076713 
L 416.830492 -50.342395 
L 417.86321 -49.643614 
L 418.895928 -48.979139 
L 419.928647 -48.347751 
L 420.961365 -47.74824 
L 421.994083 -47.179413 
L 423.026801 -46.640091 
L 424.059519 -46.129116 
L 425.092237 -45.645348 
L 426.124956 -45.187668 
L 427.157674 -44.754982 
L 428.190392 -44.346219 
L 429.22311 -43.960333 
L 430.255828 -43.596303 
L 431.288546 -43.253138 
L 432.321265 -42.929871 
L 433.353983 -42.625564 
L 434.386701 -42.33931 
L 435.419419 -42.070227 
L 436.452137 -41.817463 
L 437.484855 -41.580198 
L 438.517573 -41.357636 
L 439.550292 -41.149013 
L 440.58301 -40.953594 
L 441.615728 -40.77067 
L 442.648446 -40.599563 
L 443.681164 -40.43962 
L 444.713882 -40.290217 
L 445.746601 -40.150757 
L 446.779319 -40.020668 
L 447.812037 -39.899405 
L 448.844755 -39.786446 
L 449.877473 -39.681296 
L 450.910191 -39.583483 
L 451.94291 -39.492558 
L 452.975628 -39.408093 
L 454.008346 -39.329683 
L 455.041064 -39.256944 
L 456.073782 -39.189513 
L 457.1065 -39.127044 
L 458.139219 -39.069213 
L 459.171937 -39.015711 
L 460.204655 -38.966248 
L 461.237373 -38.92055 
L 462.270091 -38.87836 
L 463.302809 -38.839434 
L 464.335527 -38.803545 
L 465.368246 -38.770478 
L 466.400964 -38.740031 
L 467.433682 -38.712017 
L 468.4664 -38.686258 
L 469.499118 -38.662588 
L 470.531836 -38.640853 
L 471.564555 -38.620908 
L 472.597273 -38.602618 
L 472.597273 -38.416364 
L 472.597273 -38.416364 
L 471.564555 -38.416364 
L 470.531836 -38.416364 
L 469.499118 -38.416364 
L 468.4664 -38.416364 
L 467.433682 -38.416364 
L 466.400964 -38.416364 
L 465.368246 -38.416364 
L 464.335527 -38.416364 
L 463.302809 -38.416364 
L 462.270091 -38.416364 
L 461.237373 -38.416364 
L 460.204655 -38.416364 
L 459.171937 -38.416364 
L 458.139219 -38.416364 
L 457.1065 -38.416364 
L 456.073782 -38.416364 
L 455.041064 -38.416364 
L 454.008346 -38.416364 
L 452.975628 -38.416364 
L 451.94291 -38.416364 
L 450.910191 -38.416364 
L 449.877473 -38.416364 
L 448.844755 -38.416364 
L 447.812037 -38.416364 
L 446.779319 -38.416364 
L 445.746601 -38.416364 
L 444.713882 -38.416364 
L 443.681164 -38.416364 
L 442.648446 -38.416364 
L 441.615728 -38.416364 
L 440.58301 -38.416364 
L 439.550292 -38.416364 
L 438.517573 -38.416364 
L 437.484855 -38.416364 
L 436.452137 -38.416364 
L 435.419419 -38.416364 
L 434.386701 -38.416364 
L 433.353983 -38.416364 
L 432.321265 -38.416364 
L 431.288546 -38.416364 
L 430.255828 -38.416364 
L 429.22311 -38.416364 
L 428.190392 -38.416364 
L 427.157674 -38.416364 
L 426.124956 -38.416364 
L 425.092237 -38.416364 
L 424.059519 -38.416364 
L 423.026801 -38.416364 
L 421.994083 -38.416364 
L 420.961365 -38.416364 
L 419.928647 -38.416364 
L 418.895928 -38.416364 
L 417.86321 -38.416364 
L 416.830492 -38.416364 
L 415.797774 -38.416364 
L 414.765056 -38.416364 
L 413.732338 -38.416364 
L 412.69962 -38.416364 
L 411.666901 -38.416364 
L 410.634183 -38.416364 
L 409.601465 -38.416364 
L 408.568747 -38.416364 
L 407.536029 -38.416364 
L 406.503311 -38.416364 
L 405.470592 -38.416364 
L 404.437874 -38.416364 
L 403.405156 -38.416364 
L 402.372438 -38.416364 
L 401.33972 -38.416364 
L 400.307002 -38.416364 
L 399.274283 -38.416364 
L 398.241565 -38.416364 
L 397.208847 -38.416364 
L 396.176129 -38.416364 
L 395.143411 -38.416364 
L 394.110693 -38.416364 
L 393.077974 -38.416364 
L 392.045256 -38.416364 
L 391.012538 -38.416364 
L 389.97982 -38.416364 
L 388.947102 -38.416364 
L 387.914384 -38.416364 
L 386.881666 -38.416364 
L 385.848947 -38.416364 
L 384.816229 -38.416364 
L 383.783511 -38.416364 
L 382.750793 -38.416364 
L 381.718075 -38.416364 
L 380.685357 -38.416364 
L 379.652638 -38.416364 
L 378.61992 -38.416364 
L 377.587202 -38.416364 
L 376.554484 -38.416364 
L 375.521766 -38.416364 
L 374.489048 -38.416364 
L 373.456329 -38.416364 
L 372.423611 -38.416364 
L 371.390893 -38.416364 
L 370.358175 -38.416364 
L 369.325457 -38.416364 
L 368.292739 -38.416364 
L 367.260021 -38.416364 
L 366.227302 -38.416364 
L 365.194584 -38.416364 
L 364.161866 -38.416364 
L 363.129148 -38.416364 
L 362.09643 -38.416364 
L 361.063712 -38.416364 
L 360.030993 -38.416364 
L 358.998275 -38.416364 
L 357.965557 -38.416364 
L 356.932839 -38.416364 
L 355.900121 -38.416364 
L 354.867403 -38.416364 
L 353.834684 -38.416364 
L 352.801966 -38.416364 
L 351.769248 -38.416364 
L 350.73653 -38.416364 
L 349.703812 -38.416364 
L 348.671094 -38.416364 
L 347.638375 -38.416364 
L 346.605657 -38.416364 
L 345.572939 -38.416364 
L 344.540221 -38.416364 
L 343.507503 -38.416364 
L 342.474785 -38.416364 
L 341.442067 -38.416364 
L 340.409348 -38.416364 
L 339.37663 -38.416364 
L 338.343912 -38.416364 
L 337.311194 -38.416364 
L 336.278476 -38.416364 
L 335.245758 -38.416364 
L 334.213039 -38.416364 
L 333.180321 -38.416364 
L 332.147603 -38.416364 
L 331.114885 -38.416364 
L 330.082167 -38.416364 
L 329.049449 -38.416364 
L 328.01673 -38.416364 
L 326.984012 -38.416364 
L 325.951294 -38.416364 
L 324.918576 -38.416364 
L 323.885858 -38.416364 
L 322.85314 -38.416364 
L 321.820422 -38.416364 
L 320.787703 -38.416364 
L 319.754985 -38.416364 
L 318.722267 -38.416364 
L 317.689549 -38.416364 
L 316.656831 -38.416364 
L 315.624113 -38.416364 
L 314.591394 -38.416364 
L 313.558676 -38.416364 
L 312.525958 -38.416364 
L 311.49324 -38.416364 
L 310.460522 -38.416364 
L 309.427804 -38.416364 
L 308.395085 -38.416364 
L 307.362367 -38.416364 
L 306.329649 -38.416364 
L 305.296931 -38.416364 
L 304.264213 -38.416364 
L 303.231495 -38.416364 
L 302.198776 -38.416364 
L 301.166058 -38.416364 
L 300.13334 -38.416364 
L 299.100622 -38.416364 
L 298.067904 -38.416364 
L 297.035186 -38.416364 
L 296.002468 -38.416364 
L 294.969749 -38.416364 
L 293.937031 -38.416364 
L 292.904313 -38.416364 
L 291.871595 -38.416364 
L 290.838877 -38.416364 
L 289.806159 -38.416364 
L 288.77344 -38.416364 
L 287.740722 -38.416364 
L 286.708004 -38.416364 
L 285.675286 -38.416364 
L 284.642568 -38.416364 
L 283.60985 -38.416364 
L 282.577131 -38.416364 
L 281.544413 -38.416364 
L 280.511695 -38.416364 
L 279.478977 -38.416364 
L 278.446259 -38.416364 
L 277.413541 -38.416364 
L 276.380823 -38.416364 
L 275.348104 -38.416364 
L 274.315386 -38.416364 
L 273.282668 -38.416364 
L 272.24995 -38.416364 
L 271.217232 -38.416364 
L 270.184514 -38.416364 
L 269.151795 -38.416364 
L 268.119077 -38.416364 
L 267.086359 -38.416364 
z
" style="stroke: #8dd3c7; stroke-opacity: 0.5"/>
    </defs>
    <g clip-path="url(#peab882b95d)">
     <use xlink:href="#m07c56adb58" x="0" y="288" style="fill: #8dd3c7; fill-opacity: 0.5; stroke: #8dd3c7; stroke-opacity: 0.5"/>
    </g>
   </g>
   <g id="FillBetweenPolyCollection_2">
    <defs>
     <path id="m8793dece40" d="M 60.542727 -38.416364 
L 60.542727 -38.416364 
L 61.575445 -38.416364 
L 62.608164 -38.416365 
L 63.640882 -38.416365 
L 64.6736 -38.416365 
L 65.706318 -38.416365 
L 66.739036 -38.416365 
L 67.771754 -38.416366 
L 68.804473 -38.416366 
L 69.837191 -38.416366 
L 70.869909 -38.416367 
L 71.902627 -38.416367 
L 72.935345 -38.416368 
L 73.968063 -38.416369 
L 75.000781 -38.416369 
L 76.0335 -38.41637 
L 77.066218 -38.416371 
L 78.098936 -38.416373 
L 79.131654 -38.416374 
L 80.164372 -38.416376 
L 81.19709 -38.416378 
L 82.229809 -38.41638 
L 83.262527 -38.416382 
L 84.295245 -38.416385 
L 85.327963 -38.416388 
L 86.360681 -38.416392 
L 87.393399 -38.416397 
L 88.426118 -38.416402 
L 89.458836 -38.416407 
L 90.491554 -38.416414 
L 91.524272 -38.416421 
L 92.55699 -38.41643 
L 93.589708 -38.416439 
L 94.622427 -38.41645 
L 95.655145 -38.416463 
L 96.687863 -38.416477 
L 97.720581 -38.416494 
L 98.753299 -38.416512 
L 99.786017 -38.416533 
L 100.818735 -38.416557 
L 101.851454 -38.416585 
L 102.884172 -38.416616 
L 103.91689 -38.416651 
L 104.949608 -38.416691 
L 105.982326 -38.416736 
L 107.015044 -38.416787 
L 108.047763 -38.416845 
L 109.080481 -38.41691 
L 110.113199 -38.416984 
L 111.145917 -38.417067 
L 112.178635 -38.417161 
L 113.211353 -38.417268 
L 114.244072 -38.417387 
L 115.27679 -38.417522 
L 116.309508 -38.417674 
L 117.342226 -38.417844 
L 118.374944 -38.418036 
L 119.407662 -38.418251 
L 120.44038 -38.418493 
L 121.473099 -38.418764 
L 122.505817 -38.419068 
L 123.538535 -38.419409 
L 124.571253 -38.41979 
L 125.603971 -38.420217 
L 126.636689 -38.420694 
L 127.669408 -38.421228 
L 128.702126 -38.421823 
L 129.734844 -38.422488 
L 130.767562 -38.423229 
L 131.80028 -38.424055 
L 132.832998 -38.424975 
L 133.865717 -38.425999 
L 134.898435 -38.427138 
L 135.931153 -38.428404 
L 136.963871 -38.429811 
L 137.996589 -38.431372 
L 139.029307 -38.433104 
L 140.062026 -38.435024 
L 141.094744 -38.437151 
L 142.127462 -38.439507 
L 143.16018 -38.442113 
L 144.192898 -38.444994 
L 145.225616 -38.448178 
L 146.258334 -38.451694 
L 147.291053 -38.455574 
L 148.323771 -38.459853 
L 149.356489 -38.464568 
L 150.389207 -38.46976 
L 151.421925 -38.475475 
L 152.454643 -38.481761 
L 153.487362 -38.488669 
L 154.52008 -38.496258 
L 155.552798 -38.504587 
L 156.585516 -38.513723 
L 157.618234 -38.523737 
L 158.650952 -38.534708 
L 159.683671 -38.546718 
L 160.716389 -38.559856 
L 161.749107 -38.574219 
L 162.781825 -38.589911 
L 163.814543 -38.607043 
L 164.847261 -38.625734 
L 165.879979 -38.646113 
L 166.912698 -38.668318 
L 167.945416 -38.692495 
L 168.978134 -38.718802 
L 170.010852 -38.747408 
L 171.04357 -38.778491 
L 172.076288 -38.812245 
L 173.109007 -38.848872 
L 174.141725 -38.888592 
L 175.174443 -38.931636 
L 176.207161 -38.97825 
L 177.239879 -39.028697 
L 178.272597 -39.083253 
L 179.305316 -39.142214 
L 180.338034 -39.205892 
L 181.370752 -39.274617 
L 182.40347 -39.348739 
L 183.436188 -39.428626 
L 184.468906 -39.514667 
L 185.501625 -39.607274 
L 186.534343 -39.706878 
L 187.567061 -39.813935 
L 188.599779 -39.928922 
L 189.632497 -40.052342 
L 190.665215 -40.184722 
L 191.697933 -40.326613 
L 192.730652 -40.478594 
L 193.76337 -40.641268 
L 194.796088 -40.815267 
L 195.828806 -41.00125 
L 196.861524 -41.199903 
L 197.894242 -41.41194 
L 198.926961 -41.638105 
L 199.959679 -41.87917 
L 200.992397 -42.135935 
L 202.025115 -42.40923 
L 203.057833 -42.699913 
L 204.090551 -43.008874 
L 205.12327 -43.337027 
L 206.155988 -43.685316 
L 207.188706 -44.054716 
L 208.221424 -44.446225 
L 209.254142 -44.86087 
L 210.28686 -45.299702 
L 211.319578 -45.763801 
L 212.352297 -46.254265 
L 213.385015 -46.772219 
L 214.417733 -47.318808 
L 215.450451 -47.895195 
L 216.483169 -48.502562 
L 217.515887 -49.142108 
L 218.548606 -49.815045 
L 219.581324 -50.522594 
L 220.614042 -51.26599 
L 221.64676 -52.04647 
L 222.679478 -52.865278 
L 223.712196 -53.723656 
L 224.744915 -54.622845 
L 225.777633 -55.564081 
L 226.810351 -56.548588 
L 227.843069 -57.57758 
L 228.875787 -58.652251 
L 229.908505 -59.773776 
L 230.941224 -60.943304 
L 231.973942 -62.161956 
L 233.00666 -63.430816 
L 234.039378 -64.750932 
L 235.072096 -66.123306 
L 236.104814 -67.548894 
L 237.137532 -69.028598 
L 238.170251 -70.563259 
L 239.202969 -72.153658 
L 240.235687 -73.800506 
L 241.268405 -75.50444 
L 242.301123 -77.266016 
L 243.333841 -79.085707 
L 244.36656 -80.963898 
L 245.399278 -82.900877 
L 246.431996 -84.896831 
L 247.464714 -86.951844 
L 248.497432 -89.065889 
L 249.53015 -91.238825 
L 250.562869 -93.470391 
L 251.595587 -95.760201 
L 252.628305 -98.107744 
L 253.661023 -100.512373 
L 254.693741 -102.973307 
L 255.726459 -105.489627 
L 256.759177 -108.060269 
L 257.791896 -110.684025 
L 258.824614 -113.359539 
L 259.857332 -116.085304 
L 260.89005 -118.859663 
L 261.922768 -121.680805 
L 262.955486 -124.546766 
L 263.988205 -127.455427 
L 265.020923 -130.404515 
L 266.053641 -133.391605 
L 266.053641 -38.416364 
L 266.053641 -38.416364 
L 265.020923 -38.416364 
L 263.988205 -38.416364 
L 262.955486 -38.416364 
L 261.922768 -38.416364 
L 260.89005 -38.416364 
L 259.857332 -38.416364 
L 258.824614 -38.416364 
L 257.791896 -38.416364 
L 256.759177 -38.416364 
L 255.726459 -38.416364 
L 254.693741 -38.416364 
L 253.661023 -38.416364 
L 252.628305 -38.416364 
L 251.595587 -38.416364 
L 250.562869 -38.416364 
L 249.53015 -38.416364 
L 248.497432 -38.416364 
L 247.464714 -38.416364 
L 246.431996 -38.416364 
L 245.399278 -38.416364 
L 244.36656 -38.416364 
L 243.333841 -38.416364 
L 242.301123 -38.416364 
L 241.268405 -38.416364 
L 240.235687 -38.416364 
L 239.202969 -38.416364 
L 238.170251 -38.416364 
L 237.137532 -38.416364 
L 236.104814 -38.416364 
L 235.072096 -38.416364 
L 234.039378 -38.416364 
L 233.00666 -38.416364 
L 231.973942 -38.416364 
L 230.941224 -38.416364 
L 229.908505 -38.416364 
L 228.875787 -38.416364 
L 227.843069 -38.416364 
L 226.810351 -38.416364 
L 225.777633 -38.416364 
L 224.744915 -38.416364 
L 223.712196 -38.416364 
L 222.679478 -38.416364 
L 221.64676 -38.416364 
L 220.614042 -38.416364 
L 219.581324 -38.416364 
L 218.548606 -38.416364 
L 217.515887 -38.416364 
L 216.483169 -38.416364 
L 215.450451 -38.416364 
L 214.417733 -38.416364 
L 213.385015 -38.416364 
L 212.352297 -38.416364 
L 211.319578 -38.416364 
L 210.28686 -38.416364 
L 209.254142 -38.416364 
L 208.221424 -38.416364 
L 207.188706 -38.416364 
L 206.155988 -38.416364 
L 205.12327 -38.416364 
L 204.090551 -38.416364 
L 203.057833 -38.416364 
L 202.025115 -38.416364 
L 200.992397 -38.416364 
L 199.959679 -38.416364 
L 198.926961 -38.416364 
L 197.894242 -38.416364 
L 196.861524 -38.416364 
L 195.828806 -38.416364 
L 194.796088 -38.416364 
L 193.76337 -38.416364 
L 192.730652 -38.416364 
L 191.697933 -38.416364 
L 190.665215 -38.416364 
L 189.632497 -38.416364 
L 188.599779 -38.416364 
L 187.567061 -38.416364 
L 186.534343 -38.416364 
L 185.501625 -38.416364 
L 184.468906 -38.416364 
L 183.436188 -38.416364 
L 182.40347 -38.416364 
L 181.370752 -38.416364 
L 180.338034 -38.416364 
L 179.305316 -38.416364 
L 178.272597 -38.416364 
L 177.239879 -38.416364 
L 176.207161 -38.416364 
L 175.174443 -38.416364 
L 174.141725 -38.416364 
L 173.109007 -38.416364 
L 172.076288 -38.416364 
L 171.04357 -38.416364 
L 170.010852 -38.416364 
L 168.978134 -38.416364 
L 167.945416 -38.416364 
L 166.912698 -38.416364 
L 165.879979 -38.416364 
L 164.847261 -38.416364 
L 163.814543 -38.416364 
L 162.781825 -38.416364 
L 161.749107 -38.416364 
L 160.716389 -38.416364 
L 159.683671 -38.416364 
L 158.650952 -38.416364 
L 157.618234 -38.416364 
L 156.585516 -38.416364 
L 155.552798 -38.416364 
L 154.52008 -38.416364 
L 153.487362 -38.416364 
L 152.454643 -38.416364 
L 151.421925 -38.416364 
L 150.389207 -38.416364 
L 149.356489 -38.416364 
L 148.323771 -38.416364 
L 147.291053 -38.416364 
L 146.258334 -38.416364 
L 145.225616 -38.416364 
L 144.192898 -38.416364 
L 143.16018 -38.416364 
L 142.127462 -38.416364 
L 141.094744 -38.416364 
L 140.062026 -38.416364 
L 139.029307 -38.416364 
L 137.996589 -38.416364 
L 136.963871 -38.416364 
L 135.931153 -38.416364 
L 134.898435 -38.416364 
L 133.865717 -38.416364 
L 132.832998 -38.416364 
L 131.80028 -38.416364 
L 130.767562 -38.416364 
L 129.734844 -38.416364 
L 128.702126 -38.416364 
L 127.669408 -38.416364 
L 126.636689 -38.416364 
L 125.603971 -38.416364 
L 124.571253 -38.416364 
L 123.538535 -38.416364 
L 122.505817 -38.416364 
L 121.473099 -38.416364 
L 120.44038 -38.416364 
L 119.407662 -38.416364 
L 118.374944 -38.416364 
L 117.342226 -38.416364 
L 116.309508 -38.416364 
L 115.27679 -38.416364 
L 114.244072 -38.416364 
L 113.211353 -38.416364 
L 112.178635 -38.416364 
L 111.145917 -38.416364 
L 110.113199 -38.416364 
L 109.080481 -38.416364 
L 108.047763 -38.416364 
L 107.015044 -38.416364 
L 105.982326 -38.416364 
L 104.949608 -38.416364 
L 103.91689 -38.416364 
L 102.884172 -38.416364 
L 101.851454 -38.416364 
L 100.818735 -38.416364 
L 99.786017 -38.416364 
L 98.753299 -38.416364 
L 97.720581 -38.416364 
L 96.687863 -38.416364 
L 95.655145 -38.416364 
L 94.622427 -38.416364 
L 93.589708 -38.416364 
L 92.55699 -38.416364 
L 91.524272 -38.416364 
L 90.491554 -38.416364 
L 89.458836 -38.416364 
L 88.426118 -38.416364 
L 87.393399 -38.416364 
L 86.360681 -38.416364 
L 85.327963 -38.416364 
L 84.295245 -38.416364 
L 83.262527 -38.416364 
L 82.229809 -38.416364 
L 81.19709 -38.416364 
L 80.164372 -38.416364 
L 79.131654 -38.416364 
L 78.098936 -38.416364 
L 77.066218 -38.416364 
L 76.0335 -38.416364 
L 75.000781 -38.416364 
L 73.968063 -38.416364 
L 72.935345 -38.416364 
L 71.902627 -38.416364 
L 70.869909 -38.416364 
L 69.837191 -38.416364 
L 68.804473 -38.416364 
L 67.771754 -38.416364 
L 66.739036 -38.416364 
L 65.706318 -38.416364 
L 64.6736 -38.416364 
L 63.640882 -38.416364 
L 62.608164 -38.416364 
L 61.575445 -38.416364 
L 60.542727 -38.416364 
z
" style="stroke: #fa8174; stroke-opacity: 0.5"/>
    </defs>
    <g clip-path="url(#peab882b95d)">
     <use xlink:href="#m8793dece40" x="0" y="288" style="fill: #fa8174; fill-opacity: 0.5; stroke: #fa8174; stroke-opacity: 0.5"/>
    </g>
   </g>
   <g id="matplotlib.axis_1">
    <g id="xtick_1">
     <g id="line2d_1">
      <defs>
       <path id="m3c3b86420e" d="M 0 0 
L 0 3.5 
" style="stroke: #ffffff; stroke-width: 0.8"/>
      </defs>
      <g>
       <use xlink:href="#m3c3b86420e" x="101.748182" y="260.12" style="fill: #ffffff; stroke: #ffffff; stroke-width: 0.8"/>
      </g>
     </g>
     <g id="text_1">
      <!-- −4 -->
      <g style="fill: #ffffff" transform="translate(94.377088 274.718437) scale(0.1 -0.1)">
       <defs>
        <path id="DejaVuSans-2212" d="M 678 2272 
L 4684 2272 
L 4684 1741 
L 678 1741 
L 678 2272 
z
" transform="scale(0.015625)"/>
        <path id="DejaVuSans-34" d="M 2419 4116 
L 825 1625 
L 2419 1625 
L 2419 4116 
z
M 2253 4666 
L 3047 4666 
L 3047 1625 
L 3713 1625 
L 3713 1100 
L 3047 1100 
L 3047 0 
L 2419 0 
L 2419 1100 
L 313 1100 
L 313 1709 
L 2253 4666 
z
" transform="scale(0.015625)"/>
       </defs>
       <use xlink:href="#DejaVuSans-2212"/>
       <use xlink:href="#DejaVuSans-34" transform="translate(83.789062 0)"/>
      </g>
     </g>
    </g>
    <g id="xtick_2">
     <g id="line2d_2">
      <g>
       <use xlink:href="#m3c3b86420e" x="184.159091" y="260.12" style="fill: #ffffff; stroke: #ffffff; stroke-width: 0.8"/>
      </g>
     </g>
     <g id="text_2">
      <!-- −2 -->
      <g style="fill: #ffffff" transform="translate(176.787997 274.718437) scale(0.1 -0.1)">
       <defs>
        <path id="DejaVuSans-32" d="M 1228 531 
L 3431 531 
L 3431 0 
L 469 0 
L 469 531 
Q 828 903 1448 1529 
Q 2069 2156 2228 2338 
Q 2531 2678 2651 2914 
Q 2772 3150 2772 3378 
Q 2772 3750 2511 3984 
Q 2250 4219 1831 4219 
Q 1534 4219 1204 4116 
Q 875 4013 500 3803 
L 500 4441 
Q 881 4594 1212 4672 
Q 1544 4750 1819 4750 
Q 2544 4750 2975 4387 
Q 3406 4025 3406 3419 
Q 3406 3131 3298 2873 
Q 3191 2616 2906 2266 
Q 2828 2175 2409 1742 
Q 1991 1309 1228 531 
z
" transform="scale(0.015625)"/>
       </defs>
       <use xlink:href="#DejaVuSans-2212"/>
       <use xlink:href="#DejaVuSans-32" transform="translate(83.789062 0)"/>
      </g>
     </g>
    </g>
    <g id="xtick_3">
     <g id="line2d_3">
      <g>
       <use xlink:href="#m3c3b86420e" x="266.57" y="260.12" style="fill: #ffffff; stroke: #ffffff; stroke-width: 0.8"/>
      </g>
     </g>
     <g id="text_3">
      <!-- 0 -->
      <g style="fill: #ffffff" transform="translate(263.38875 274.718437) scale(0.1 -0.1)">
       <defs>
        <path id="DejaVuSans-30" d="M 2034 4250 
Q 1547 4250 1301 3770 
Q 1056 3291 1056 2328 
Q 1056 1369 1301 889 
Q 1547 409 2034 409 
Q 2525 409 2770 889 
Q 3016 1369 3016 2328 
Q 3016 3291 2770 3770 
Q 2525 4250 2034 4250 
z
M 2034 4750 
Q 2819 4750 3233 4129 
Q 3647 3509 3647 2328 
Q 3647 1150 3233 529 
Q 2819 -91 2034 -91 
Q 1250 -91 836 529 
Q 422 1150 422 2328 
Q 422 3509 836 4129 
Q 1250 4750 2034 4750 
z
" transform="scale(0.015625)"/>
       </defs>
       <use xlink:href="#DejaVuSans-30"/>
      </g>
     </g>
    </g>
    <g id="xtick_4">
     <g id="line2d_4">
      <g>
       <use xlink:href="#m3c3b86420e" x="348.980909" y="260.12" style="fill: #ffffff; stroke: #ffffff; stroke-width: 0.8"/>
      </g>
     </g>
     <g id="text_4">
      <!-- 2 -->
      <g style="fill: #ffffff" transform="translate(345.799659 274.718437) scale(0.1 -0.1)">
       <use xlink:href="#DejaVuSans-32"/>
      </g>
     </g>
    </g>
    <g id="xtick_5">
     <g id="line2d_5">
      <g>
       <use xlink:href="#m3c3b86420e" x="431.391818" y="260.12" style="fill: #ffffff; stroke: #ffffff; stroke-width: 0.8"/>
      </g>
     </g>
     <g id="text_5">
      <!-- 4 -->
      <g style="fill: #ffffff" transform="translate(428.210568 274.718437) scale(0.1 -0.1)">
       <use xlink:href="#DejaVuSans-34"/>
      </g>
     </g>
    </g>
   </g>
   <g id="matplotlib.axis_2">
    <g id="ytick_1">
     <g id="line2d_6">
      <defs>
       <path id="m8877eb909f" d="M 0 0 
L -3.5 0 
" style="stroke: #ffffff; stroke-width: 0.8"/>
      </defs>
      <g>
       <use xlink:href="#m8877eb909f" x="39.94" y="249.583636" style="fill: #ffffff; stroke: #ffffff; stroke-width: 0.8"/>
      </g>
     </g>
     <g id="text_6">
      <!-- 0.00 -->
      <g style="fill: #ffffff" transform="translate(10.674375 253.382855) scale(0.1 -0.1)">
       <defs>
        <path id="DejaVuSans-2e" d="M 684 794 
L 1344 794 
L 1344 0 
L 684 0 
L 684 794 
z
" transform="scale(0.015625)"/>
       </defs>
       <use xlink:href="#DejaVuSans-30"/>
       <use xlink:href="#DejaVuSans-2e" transform="translate(63.623047 0)"/>
       <use xlink:href="#DejaVuSans-30" transform="translate(95.410156 0)"/>
       <use xlink:href="#DejaVuSans-30" transform="translate(159.033203 0)"/>
      </g>
     </g>
    </g>
    <g id="ytick_2">
     <g id="line2d_7">
      <g>
       <use xlink:href="#m8877eb909f" x="39.94" y="223.171723" style="fill: #ffffff; stroke: #ffffff; stroke-width: 0.8"/>
      </g>
     </g>
     <g id="text_7">
      <!-- 0.05 -->
      <g style="fill: #ffffff" transform="translate(10.674375 226.970942) scale(0.1 -0.1)">
       <defs>
        <path id="DejaVuSans-35" d="M 691 4666 
L 3169 4666 
L 3169 4134 
L 1269 4134 
L 1269 2991 
Q 1406 3038 1543 3061 
Q 1681 3084 1819 3084 
Q 2600 3084 3056 2656 
Q 3513 2228 3513 1497 
Q 3513 744 3044 326 
Q 2575 -91 1722 -91 
Q 1428 -91 1123 -41 
Q 819 9 494 109 
L 494 744 
Q 775 591 1075 516 
Q 1375 441 1709 441 
Q 2250 441 2565 725 
Q 2881 1009 2881 1497 
Q 2881 1984 2565 2268 
Q 2250 2553 1709 2553 
Q 1456 2553 1204 2497 
Q 953 2441 691 2322 
L 691 4666 
z
" transform="scale(0.015625)"/>
       </defs>
       <use xlink:href="#DejaVuSans-30"/>
       <use xlink:href="#DejaVuSans-2e" transform="translate(63.623047 0)"/>
       <use xlink:href="#DejaVuSans-30" transform="translate(95.410156 0)"/>
       <use xlink:href="#DejaVuSans-35" transform="translate(159.033203 0)"/>
      </g>
     </g>
    </g>
    <g id="ytick_3">
     <g id="line2d_8">
      <g>
       <use xlink:href="#m8877eb909f" x="39.94" y="196.759809" style="fill: #ffffff; stroke: #ffffff; stroke-width: 0.8"/>
      </g>
     </g>
     <g id="text_8">
      <!-- 0.10 -->
      <g style="fill: #ffffff" transform="translate(10.674375 200.559028) scale(0.1 -0.1)">
       <defs>
        <path id="DejaVuSans-31" d="M 794 531 
L 1825 531 
L 1825 4091 
L 703 3866 
L 703 4441 
L 1819 4666 
L 2450 4666 
L 2450 531 
L 3481 531 
L 3481 0 
L 794 0 
L 794 531 
z
" transform="scale(0.015625)"/>
       </defs>
       <use xlink:href="#DejaVuSans-30"/>
       <use xlink:href="#DejaVuSans-2e" transform="translate(63.623047 0)"/>
       <use xlink:href="#DejaVuSans-31" transform="translate(95.410156 0)"/>
       <use xlink:href="#DejaVuSans-30" transform="translate(159.033203 0)"/>
      </g>
     </g>
    </g>
    <g id="ytick_4">
     <g id="line2d_9">
      <g>
       <use xlink:href="#m8877eb909f" x="39.94" y="170.347896" style="fill: #ffffff; stroke: #ffffff; stroke-width: 0.8"/>
      </g>
     </g>
     <g id="text_9">
      <!-- 0.15 -->
      <g style="fill: #ffffff" transform="translate(10.674375 174.147115) scale(0.1 -0.1)">
       <use xlink:href="#DejaVuSans-30"/>
       <use xlink:href="#DejaVuSans-2e" transform="translate(63.623047 0)"/>
       <use xlink:href="#DejaVuSans-31" transform="translate(95.410156 0)"/>
       <use xlink:href="#DejaVuSans-35" transform="translate(159.033203 0)"/>
      </g>
     </g>
    </g>
    <g id="ytick_5">
     <g id="line2d_10">
      <g>
       <use xlink:href="#m8877eb909f" x="39.94" y="143.935982" style="fill: #ffffff; stroke: #ffffff; stroke-width: 0.8"/>
      </g>
     </g>
     <g id="text_10">
      <!-- 0.20 -->
      <g style="fill: #ffffff" transform="translate(10.674375 147.735201) scale(0.1 -0.1)">
       <use xlink:href="#DejaVuSans-30"/>
       <use xlink:href="#DejaVuSans-2e" transform="translate(63.623047 0)"/>
       <use xlink:href="#DejaVuSans-32" transform="translate(95.410156 0)"/>
       <use xlink:href="#DejaVuSans-30" transform="translate(159.033203 0)"/>
      </g>
     </g>
    </g>
    <g id="ytick_6">
     <g id="line2d_11">
      <g>
       <use xlink:href="#m8877eb909f" x="39.94" y="117.524069" style="fill: #ffffff; stroke: #ffffff; stroke-width: 0.8"/>
      </g>
     </g>
     <g id="text_11">
      <!-- 0.25 -->
      <g style="fill: #ffffff" transform="translate(10.674375 121.323288) scale(0.1 -0.1)">
       <use xlink:href="#DejaVuSans-30"/>
       <use xlink:href="#DejaVuSans-2e" transform="translate(63.623047 0)"/>
       <use xlink:href="#DejaVuSans-32" transform="translate(95.410156 0)"/>
       <use xlink:href="#DejaVuSans-35" transform="translate(159.033203 0)"/>
      </g>
     </g>
    </g>
    <g id="ytick_7">
     <g id="line2d_12">
      <g>
       <use xlink:href="#m8877eb909f" x="39.94" y="91.112155" style="fill: #ffffff; stroke: #ffffff; stroke-width: 0.8"/>
      </g>
     </g>
     <g id="text_12">
      <!-- 0.30 -->
      <g style="fill: #ffffff" transform="translate(10.674375 94.911374) scale(0.1 -0.1)">
       <defs>
        <path id="DejaVuSans-33" d="M 2597 2516 
Q 3050 2419 3304 2112 
Q 3559 1806 3559 1356 
Q 3559 666 3084 287 
Q 2609 -91 1734 -91 
Q 1441 -91 1130 -33 
Q 819 25 488 141 
L 488 750 
Q 750 597 1062 519 
Q 1375 441 1716 441 
Q 2309 441 2620 675 
Q 2931 909 2931 1356 
Q 2931 1769 2642 2001 
Q 2353 2234 1838 2234 
L 1294 2234 
L 1294 2753 
L 1863 2753 
Q 2328 2753 2575 2939 
Q 2822 3125 2822 3475 
Q 2822 3834 2567 4026 
Q 2313 4219 1838 4219 
Q 1578 4219 1281 4162 
Q 984 4106 628 3988 
L 628 4550 
Q 988 4650 1302 4700 
Q 1616 4750 1894 4750 
Q 2613 4750 3031 4423 
Q 3450 4097 3450 3541 
Q 3450 3153 3228 2886 
Q 3006 2619 2597 2516 
z
" transform="scale(0.015625)"/>
       </defs>
       <use xlink:href="#DejaVuSans-30"/>
       <use xlink:href="#DejaVuSans-2e" transform="translate(63.623047 0)"/>
       <use xlink:href="#DejaVuSans-33" transform="translate(95.410156 0)"/>
       <use xlink:href="#DejaVuSans-30" transform="translate(159.033203 0)"/>
      </g>
     </g>
    </g>
    <g id="ytick_8">
     <g id="line2d_13">
      <g>
       <use xlink:href="#m8877eb909f" x="39.94" y="64.700242" style="fill: #ffffff; stroke: #ffffff; stroke-width: 0.8"/>
      </g>
     </g>
     <g id="text_13">
      <!-- 0.35 -->
      <g style="fill: #ffffff" transform="translate(10.674375 68.499461) scale(0.1 -0.1)">
       <use xlink:href="#DejaVuSans-30"/>
       <use xlink:href="#DejaVuSans-2e" transform="translate(63.623047 0)"/>
       <use xlink:href="#DejaVuSans-33" transform="translate(95.410156 0)"/>
       <use xlink:href="#DejaVuSans-35" transform="translate(159.033203 0)"/>
      </g>
     </g>
    </g>
    <g id="ytick_9">
     <g id="line2d_14">
      <g>
       <use xlink:href="#m8877eb909f" x="39.94" y="38.288329" style="fill: #ffffff; stroke: #ffffff; stroke-width: 0.8"/>
      </g>
     </g>
     <g id="text_14">
      <!-- 0.40 -->
      <g style="fill: #ffffff" transform="translate(10.674375 42.087547) scale(0.1 -0.1)">
       <use xlink:href="#DejaVuSans-30"/>
       <use xlink:href="#DejaVuSans-2e" transform="translate(63.623047 0)"/>
       <use xlink:href="#DejaVuSans-34" transform="translate(95.410156 0)"/>
       <use xlink:href="#DejaVuSans-30" transform="translate(159.033203 0)"/>
      </g>
     </g>
    </g>
   </g>
   <g id="line2d_15">
    <path d="M 60.542727 249.583636 
L 157.618234 249.476263 
L 170.010852 249.252592 
L 178.272597 248.916747 
L 184.468906 248.485333 
L 189.632497 247.947658 
L 194.796088 247.184733 
L 198.926961 246.361895 
L 203.057833 245.300087 
L 206.155988 244.314684 
L 209.254142 243.13913 
L 212.352297 241.745735 
L 215.450451 240.104805 
L 218.548606 238.184955 
L 221.64676 235.95353 
L 224.744915 233.377155 
L 227.843069 230.42242 
L 230.941224 227.056696 
L 234.039378 223.249068 
L 237.137532 218.971402 
L 240.235687 214.199494 
L 243.333841 208.914293 
L 246.431996 203.103169 
L 249.53015 196.761175 
L 252.628305 189.892256 
L 255.726459 182.510373 
L 258.824614 174.640461 
L 262.955486 163.453234 
L 267.086359 151.585882 
L 272.24995 136.042624 
L 286.708004 91.861213 
L 290.838877 80.206095 
L 293.937031 72.07755 
L 297.035186 64.607583 
L 300.13334 57.909904 
L 302.198776 53.926055 
L 304.264213 50.360591 
L 306.329649 47.239192 
L 308.395085 44.584606 
L 310.460522 42.416365 
L 312.525958 40.750554 
L 314.591394 39.599606 
L 315.624113 39.220055 
L 316.656831 38.972152 
L 317.689549 38.856364 
L 318.722267 38.872909 
L 319.754985 39.021756 
L 320.787703 39.302624 
L 321.820422 39.714986 
L 322.85314 40.258065 
L 324.918576 41.732058 
L 326.984012 43.71358 
L 329.049449 46.187896 
L 331.114885 49.136739 
L 333.180321 52.538537 
L 335.245758 56.368674 
L 337.311194 60.59979 
L 340.409348 67.63257 
L 343.507503 75.391173 
L 346.605657 83.759041 
L 350.73653 95.65388 
L 355.900121 111.298116 
L 368.292739 149.297387 
L 372.423611 161.27562 
L 376.554484 172.60076 
L 380.685357 183.144589 
L 383.783511 190.484521 
L 386.881666 197.309918 
L 389.97982 203.607693 
L 393.077974 209.374687 
L 396.176129 214.616534 
L 399.274283 219.346449 
L 402.372438 223.583958 
L 405.470592 227.35364 
L 408.568747 230.683904 
L 411.666901 233.605846 
L 414.765056 236.152194 
L 417.86321 238.356386 
L 420.961365 240.25176 
L 424.059519 241.870884 
L 427.157674 243.245018 
L 430.255828 244.403697 
L 434.386701 245.66069 
L 438.517573 246.642364 
L 442.648446 247.400437 
L 447.812037 248.100595 
L 454.008346 248.670317 
L 461.237373 249.07945 
L 470.531836 249.359147 
L 472.597273 249.397382 
L 472.597273 249.397382 
" clip-path="url(#peab882b95d)" style="fill: none; stroke: #8dd3c7; stroke-width: 1.5; stroke-linecap: square"/>
   </g>
   <g id="patch_3">
    <path d="M 39.94 260.12 
L 39.94 28.32 
" style="fill: none; stroke: #ffffff; stroke-width: 0.8; stroke-linejoin: miter; stroke-linecap: square"/>
   </g>
   <g id="patch_4">
    <path d="M 493.2 260.12 
L 493.2 28.32 
" style="fill: none; stroke: #ffffff; stroke-width: 0.8; stroke-linejoin: miter; stroke-linecap: square"/>
   </g>
   <g id="patch_5">
    <path d="M 39.94 260.12 
L 493.2 260.12 
" style="fill: none; stroke: #ffffff; stroke-width: 0.8; stroke-linejoin: miter; stroke-linecap: square"/>
   </g>
   <g id="patch_6">
    <path d="M 39.94 28.32 
L 493.2 28.32 
" style="fill: none; stroke: #ffffff; stroke-width: 0.8; stroke-linejoin: miter; stroke-linecap: square"/>
   </g>
   <g id="text_15">
    <!-- Gaussian with $\mu &gt; 0$ and area where $x &lt; 0$ filled -->
    <g style="fill: #ffffff" transform="translate(125.21 22.32) scale(0.12 -0.12)">
     <defs>
      <path id="DejaVuSans-47" d="M 3809 666 
L 3809 1919 
L 2778 1919 
L 2778 2438 
L 4434 2438 
L 4434 434 
Q 4069 175 3628 42 
Q 3188 -91 2688 -91 
Q 1594 -91 976 548 
Q 359 1188 359 2328 
Q 359 3472 976 4111 
Q 1594 4750 2688 4750 
Q 3144 4750 3555 4637 
Q 3966 4525 4313 4306 
L 4313 3634 
Q 3963 3931 3569 4081 
Q 3175 4231 2741 4231 
Q 1884 4231 1454 3753 
Q 1025 3275 1025 2328 
Q 1025 1384 1454 906 
Q 1884 428 2741 428 
Q 3075 428 3337 486 
Q 3600 544 3809 666 
z
" transform="scale(0.015625)"/>
      <path id="DejaVuSans-61" d="M 2194 1759 
Q 1497 1759 1228 1600 
Q 959 1441 959 1056 
Q 959 750 1161 570 
Q 1363 391 1709 391 
Q 2188 391 2477 730 
Q 2766 1069 2766 1631 
L 2766 1759 
L 2194 1759 
z
M 3341 1997 
L 3341 0 
L 2766 0 
L 2766 531 
Q 2569 213 2275 61 
Q 1981 -91 1556 -91 
Q 1019 -91 701 211 
Q 384 513 384 1019 
Q 384 1609 779 1909 
Q 1175 2209 1959 2209 
L 2766 2209 
L 2766 2266 
Q 2766 2663 2505 2880 
Q 2244 3097 1772 3097 
Q 1472 3097 1187 3025 
Q 903 2953 641 2809 
L 641 3341 
Q 956 3463 1253 3523 
Q 1550 3584 1831 3584 
Q 2591 3584 2966 3190 
Q 3341 2797 3341 1997 
z
" transform="scale(0.015625)"/>
      <path id="DejaVuSans-75" d="M 544 1381 
L 544 3500 
L 1119 3500 
L 1119 1403 
Q 1119 906 1312 657 
Q 1506 409 1894 409 
Q 2359 409 2629 706 
Q 2900 1003 2900 1516 
L 2900 3500 
L 3475 3500 
L 3475 0 
L 2900 0 
L 2900 538 
Q 2691 219 2414 64 
Q 2138 -91 1772 -91 
Q 1169 -91 856 284 
Q 544 659 544 1381 
z
M 1991 3584 
L 1991 3584 
z
" transform="scale(0.015625)"/>
      <path id="DejaVuSans-73" d="M 2834 3397 
L 2834 2853 
Q 2591 2978 2328 3040 
Q 2066 3103 1784 3103 
Q 1356 3103 1142 2972 
Q 928 2841 928 2578 
Q 928 2378 1081 2264 
Q 1234 2150 1697 2047 
L 1894 2003 
Q 2506 1872 2764 1633 
Q 3022 1394 3022 966 
Q 3022 478 2636 193 
Q 2250 -91 1575 -91 
Q 1294 -91 989 -36 
Q 684 19 347 128 
L 347 722 
Q 666 556 975 473 
Q 1284 391 1588 391 
Q 1994 391 2212 530 
Q 2431 669 2431 922 
Q 2431 1156 2273 1281 
Q 2116 1406 1581 1522 
L 1381 1569 
Q 847 1681 609 1914 
Q 372 2147 372 2553 
Q 372 3047 722 3315 
Q 1072 3584 1716 3584 
Q 2034 3584 2315 3537 
Q 2597 3491 2834 3397 
z
" transform="scale(0.015625)"/>
      <path id="DejaVuSans-69" d="M 603 3500 
L 1178 3500 
L 1178 0 
L 603 0 
L 603 3500 
z
M 603 4863 
L 1178 4863 
L 1178 4134 
L 603 4134 
L 603 4863 
z
" transform="scale(0.015625)"/>
      <path id="DejaVuSans-6e" d="M 3513 2113 
L 3513 0 
L 2938 0 
L 2938 2094 
Q 2938 2591 2744 2837 
Q 2550 3084 2163 3084 
Q 1697 3084 1428 2787 
Q 1159 2491 1159 1978 
L 1159 0 
L 581 0 
L 581 3500 
L 1159 3500 
L 1159 2956 
Q 1366 3272 1645 3428 
Q 1925 3584 2291 3584 
Q 2894 3584 3203 3211 
Q 3513 2838 3513 2113 
z
" transform="scale(0.015625)"/>
      <path id="DejaVuSans-20" transform="scale(0.015625)"/>
      <path id="DejaVuSans-77" d="M 269 3500 
L 844 3500 
L 1563 769 
L 2278 3500 
L 2956 3500 
L 3675 769 
L 4391 3500 
L 4966 3500 
L 4050 0 
L 3372 0 
L 2619 2869 
L 1863 0 
L 1184 0 
L 269 3500 
z
" transform="scale(0.015625)"/>
      <path id="DejaVuSans-74" d="M 1172 4494 
L 1172 3500 
L 2356 3500 
L 2356 3053 
L 1172 3053 
L 1172 1153 
Q 1172 725 1289 603 
Q 1406 481 1766 481 
L 2356 481 
L 2356 0 
L 1766 0 
Q 1100 0 847 248 
Q 594 497 594 1153 
L 594 3053 
L 172 3053 
L 172 3500 
L 594 3500 
L 594 4494 
L 1172 4494 
z
" transform="scale(0.015625)"/>
      <path id="DejaVuSans-68" d="M 3513 2113 
L 3513 0 
L 2938 0 
L 2938 2094 
Q 2938 2591 2744 2837 
Q 2550 3084 2163 3084 
Q 1697 3084 1428 2787 
Q 1159 2491 1159 1978 
L 1159 0 
L 581 0 
L 581 4863 
L 1159 4863 
L 1159 2956 
Q 1366 3272 1645 3428 
Q 1925 3584 2291 3584 
Q 2894 3584 3203 3211 
Q 3513 2838 3513 2113 
z
" transform="scale(0.015625)"/>
      <path id="DejaVuSans-Oblique-3bc" d="M -84 -1331 
L 856 3500 
L 1434 3500 
L 1009 1322 
Q 997 1256 987 1175 
Q 978 1094 978 1013 
Q 978 722 1161 565 
Q 1344 409 1684 409 
Q 2147 409 2431 671 
Q 2716 934 2816 1459 
L 3213 3500 
L 3788 3500 
L 3266 809 
Q 3253 750 3248 706 
Q 3244 663 3244 628 
Q 3244 531 3283 486 
Q 3322 441 3406 441 
Q 3438 441 3492 456 
Q 3547 472 3647 513 
L 3559 50 
Q 3422 -19 3297 -55 
Q 3172 -91 3053 -91 
Q 2847 -91 2730 40 
Q 2613 172 2613 403 
Q 2438 153 2195 31 
Q 1953 -91 1625 -91 
Q 1334 -91 1117 43 
Q 900 178 831 397 
L 494 -1331 
L -84 -1331 
z
" transform="scale(0.015625)"/>
      <path id="DejaVuSans-3e" d="M 678 3150 
L 678 3719 
L 4684 2266 
L 4684 1747 
L 678 294 
L 678 863 
L 3897 2003 
L 678 3150 
z
" transform="scale(0.015625)"/>
      <path id="DejaVuSans-64" d="M 2906 2969 
L 2906 4863 
L 3481 4863 
L 3481 0 
L 2906 0 
L 2906 525 
Q 2725 213 2448 61 
Q 2172 -91 1784 -91 
Q 1150 -91 751 415 
Q 353 922 353 1747 
Q 353 2572 751 3078 
Q 1150 3584 1784 3584 
Q 2172 3584 2448 3432 
Q 2725 3281 2906 2969 
z
M 947 1747 
Q 947 1113 1208 752 
Q 1469 391 1925 391 
Q 2381 391 2643 752 
Q 2906 1113 2906 1747 
Q 2906 2381 2643 2742 
Q 2381 3103 1925 3103 
Q 1469 3103 1208 2742 
Q 947 2381 947 1747 
z
" transform="scale(0.015625)"/>
      <path id="DejaVuSans-72" d="M 2631 2963 
Q 2534 3019 2420 3045 
Q 2306 3072 2169 3072 
Q 1681 3072 1420 2755 
Q 1159 2438 1159 1844 
L 1159 0 
L 581 0 
L 581 3500 
L 1159 3500 
L 1159 2956 
Q 1341 3275 1631 3429 
Q 1922 3584 2338 3584 
Q 2397 3584 2469 3576 
Q 2541 3569 2628 3553 
L 2631 2963 
z
" transform="scale(0.015625)"/>
      <path id="DejaVuSans-65" d="M 3597 1894 
L 3597 1613 
L 953 1613 
Q 991 1019 1311 708 
Q 1631 397 2203 397 
Q 2534 397 2845 478 
Q 3156 559 3463 722 
L 3463 178 
Q 3153 47 2828 -22 
Q 2503 -91 2169 -91 
Q 1331 -91 842 396 
Q 353 884 353 1716 
Q 353 2575 817 3079 
Q 1281 3584 2069 3584 
Q 2775 3584 3186 3129 
Q 3597 2675 3597 1894 
z
M 3022 2063 
Q 3016 2534 2758 2815 
Q 2500 3097 2075 3097 
Q 1594 3097 1305 2825 
Q 1016 2553 972 2059 
L 3022 2063 
z
" transform="scale(0.015625)"/>
      <path id="DejaVuSans-Oblique-78" d="M 3841 3500 
L 2234 1784 
L 3219 0 
L 2559 0 
L 1819 1388 
L 531 0 
L -166 0 
L 1556 1844 
L 641 3500 
L 1300 3500 
L 1972 2234 
L 3144 3500 
L 3841 3500 
z
" transform="scale(0.015625)"/>
      <path id="DejaVuSans-3c" d="M 4684 3150 
L 1459 2003 
L 4684 863 
L 4684 294 
L 678 1747 
L 678 2266 
L 4684 3719 
L 4684 3150 
z
" transform="scale(0.015625)"/>
      <path id="DejaVuSans-66" d="M 2375 4863 
L 2375 4384 
L 1825 4384 
Q 1516 4384 1395 4259 
Q 1275 4134 1275 3809 
L 1275 3500 
L 2222 3500 
L 2222 3053 
L 1275 3053 
L 1275 0 
L 697 0 
L 697 3053 
L 147 3053 
L 147 3500 
L 697 3500 
L 697 3744 
Q 697 4328 969 4595 
Q 1241 4863 1831 4863 
L 2375 4863 
z
" transform="scale(0.015625)"/>
      <path id="DejaVuSans-6c" d="M 603 4863 
L 1178 4863 
L 1178 0 
L 603 0 
L 603 4863 
z
" transform="scale(0.015625)"/>
     </defs>
     <use xlink:href="#DejaVuSans-47" transform="translate(0 0.015625)"/>
     <use xlink:href="#DejaVuSans-61" transform="translate(77.490234 0.015625)"/>
     <use xlink:href="#DejaVuSans-75" transform="translate(138.769531 0.015625)"/>
     <use xlink:href="#DejaVuSans-73" transform="translate(202.148438 0.015625)"/>
     <use xlink:href="#DejaVuSans-73" transform="translate(254.248047 0.015625)"/>
     <use xlink:href="#DejaVuSans-69" transform="translate(306.347656 0.015625)"/>
     <use xlink:href="#DejaVuSans-61" transform="translate(334.130859 0.015625)"/>
     <use xlink:href="#DejaVuSans-6e" transform="translate(395.410156 0.015625)"/>
     <use xlink:href="#DejaVuSans-20" transform="translate(458.789062 0.015625)"/>
     <use xlink:href="#DejaVuSans-77" transform="translate(490.576172 0.015625)"/>
     <use xlink:href="#DejaVuSans-69" transform="translate(572.363281 0.015625)"/>
     <use xlink:href="#DejaVuSans-74" transform="translate(600.146484 0.015625)"/>
     <use xlink:href="#DejaVuSans-68" transform="translate(639.355469 0.015625)"/>
     <use xlink:href="#DejaVuSans-20" transform="translate(702.734375 0.015625)"/>
     <use xlink:href="#DejaVuSans-Oblique-3bc" transform="translate(734.521484 0.015625)"/>
     <use xlink:href="#DejaVuSans-3e" transform="translate(817.626953 0.015625)"/>
     <use xlink:href="#DejaVuSans-30" transform="translate(920.898438 0.015625)"/>
     <use xlink:href="#DejaVuSans-20" transform="translate(984.521484 0.015625)"/>
     <use xlink:href="#DejaVuSans-61" transform="translate(1016.308594 0.015625)"/>
     <use xlink:href="#DejaVuSans-6e" transform="translate(1077.587891 0.015625)"/>
     <use xlink:href="#DejaVuSans-64" transform="translate(1140.966797 0.015625)"/>
     <use xlink:href="#DejaVuSans-20" transform="translate(1204.443359 0.015625)"/>
     <use xlink:href="#DejaVuSans-61" transform="translate(1236.230469 0.015625)"/>
     <use xlink:href="#DejaVuSans-72" transform="translate(1297.509766 0.015625)"/>
     <use xlink:href="#DejaVuSans-65" transform="translate(1338.623047 0.015625)"/>
     <use xlink:href="#DejaVuSans-61" transform="translate(1400.146484 0.015625)"/>
     <use xlink:href="#DejaVuSans-20" transform="translate(1461.425781 0.015625)"/>
     <use xlink:href="#DejaVuSans-77" transform="translate(1493.212891 0.015625)"/>
     <use xlink:href="#DejaVuSans-68" transform="translate(1575 0.015625)"/>
     <use xlink:href="#DejaVuSans-65" transform="translate(1638.378906 0.015625)"/>
     <use xlink:href="#DejaVuSans-72" transform="translate(1699.902344 0.015625)"/>
     <use xlink:href="#DejaVuSans-65" transform="translate(1741.015625 0.015625)"/>
     <use xlink:href="#DejaVuSans-20" transform="translate(1802.539062 0.015625)"/>
     <use xlink:href="#DejaVuSans-Oblique-78" transform="translate(1834.326172 0.015625)"/>
     <use xlink:href="#DejaVuSans-3c" transform="translate(1912.988281 0.015625)"/>
     <use xlink:href="#DejaVuSans-30" transform="translate(2016.259766 0.015625)"/>
     <use xlink:href="#DejaVuSans-20" transform="translate(2079.882812 0.015625)"/>
     <use xlink:href="#DejaVuSans-66" transform="translate(2111.669922 0.015625)"/>
     <use xlink:href="#DejaVuSans-69" transform="translate(2146.875 0.015625)"/>
     <use xlink:href="#DejaVuSans-6c" transform="translate(2174.658203 0.015625)"/>
     <use xlink:href="#DejaVuSans-6c" transform="translate(2202.441406 0.015625)"/>
     <use xlink:href="#DejaVuSans-65" transform="translate(2230.224609 0.015625)"/>
     <use xlink:href="#DejaVuSans-64" transform="translate(2291.748047 0.015625)"/>
    </g>
   </g>
   <g id="legend_1">
    <g id="patch_7">
     <path d="M 46.94 80.354375 
L 205.347813 80.354375 
Q 207.347813 80.354375 207.347813 78.354375 
L 207.347813 35.32 
Q 207.347813 33.32 205.347813 33.32 
L 46.94 33.32 
Q 44.94 33.32 44.94 35.32 
L 44.94 78.354375 
Q 44.94 80.354375 46.94 80.354375 
z
" style="opacity: 0.8; stroke: #cccccc; stroke-linejoin: miter"/>
    </g>
    <g id="line2d_16">
     <path d="M 48.94 41.418438 
L 58.94 41.418438 
L 68.94 41.418438 
" style="fill: none; stroke: #8dd3c7; stroke-width: 1.5; stroke-linecap: square"/>
    </g>
    <g id="text_16">
     <!-- Gaussian: μ=1.25, σ=1.0 -->
     <g style="fill: #ffffff" transform="translate(76.94 44.918438) scale(0.1 -0.1)">
      <defs>
       <path id="DejaVuSans-3a" d="M 750 794 
L 1409 794 
L 1409 0 
L 750 0 
L 750 794 
z
M 750 3309 
L 1409 3309 
L 1409 2516 
L 750 2516 
L 750 3309 
z
" transform="scale(0.015625)"/>
       <path id="DejaVuSans-3bc" d="M 544 -1331 
L 544 3500 
L 1119 3500 
L 1119 1325 
Q 1119 872 1334 640 
Q 1550 409 1972 409 
Q 2434 409 2667 671 
Q 2900 934 2900 1459 
L 2900 3500 
L 3475 3500 
L 3475 806 
Q 3475 619 3529 530 
Q 3584 441 3700 441 
Q 3728 441 3778 458 
Q 3828 475 3916 513 
L 3916 50 
Q 3788 -22 3673 -56 
Q 3559 -91 3450 -91 
Q 3234 -91 3106 31 
Q 2978 153 2931 403 
Q 2775 156 2548 32 
Q 2322 -91 2016 -91 
Q 1697 -91 1473 31 
Q 1250 153 1119 397 
L 1119 -1331 
L 544 -1331 
z
" transform="scale(0.015625)"/>
       <path id="DejaVuSans-3d" d="M 678 2906 
L 4684 2906 
L 4684 2381 
L 678 2381 
L 678 2906 
z
M 678 1631 
L 4684 1631 
L 4684 1100 
L 678 1100 
L 678 1631 
z
" transform="scale(0.015625)"/>
       <path id="DejaVuSans-2c" d="M 750 794 
L 1409 794 
L 1409 256 
L 897 -744 
L 494 -744 
L 750 256 
L 750 794 
z
" transform="scale(0.015625)"/>
       <path id="DejaVuSans-3c3" d="M 1959 3044 
Q 1484 3044 1228 2700 
Q 959 2341 959 1747 
Q 959 1119 1226 758 
Q 1494 397 1959 397 
Q 2419 397 2687 759 
Q 2956 1122 2956 1747 
Q 2956 2319 2688 2700 
Q 2441 3044 1959 3044 
z
M 1959 3500 
L 3869 3500 
L 3869 2925 
L 3225 2925 
Q 3566 2438 3566 1747 
Q 3566 888 3138 400 
Q 2709 -91 1959 -91 
Q 1206 -91 781 400 
Q 353 888 353 1747 
Q 353 2613 781 3097 
Q 1134 3500 1959 3500 
z
" transform="scale(0.015625)"/>
      </defs>
      <use xlink:href="#DejaVuSans-47"/>
      <use xlink:href="#DejaVuSans-61" transform="translate(77.490234 0)"/>
      <use xlink:href="#DejaVuSans-75" transform="translate(138.769531 0)"/>
      <use xlink:href="#DejaVuSans-73" transform="translate(202.148438 0)"/>
      <use xlink:href="#DejaVuSans-73" transform="translate(254.248047 0)"/>
      <use xlink:href="#DejaVuSans-69" transform="translate(306.347656 0)"/>
      <use xlink:href="#DejaVuSans-61" transform="translate(334.130859 0)"/>
      <use xlink:href="#DejaVuSans-6e" transform="translate(395.410156 0)"/>
      <use xlink:href="#DejaVuSans-3a" transform="translate(458.789062 0)"/>
      <use xlink:href="#DejaVuSans-20" transform="translate(492.480469 0)"/>
      <use xlink:href="#DejaVuSans-3bc" transform="translate(524.267578 0)"/>
      <use xlink:href="#DejaVuSans-3d" transform="translate(587.890625 0)"/>
      <use xlink:href="#DejaVuSans-31" transform="translate(671.679688 0)"/>
      <use xlink:href="#DejaVuSans-2e" transform="translate(735.302734 0)"/>
      <use xlink:href="#DejaVuSans-32" transform="translate(767.089844 0)"/>
      <use xlink:href="#DejaVuSans-35" transform="translate(830.712891 0)"/>
      <use xlink:href="#DejaVuSans-2c" transform="translate(894.335938 0)"/>
      <use xlink:href="#DejaVuSans-20" transform="translate(926.123047 0)"/>
      <use xlink:href="#DejaVuSans-3c3" transform="translate(957.910156 0)"/>
      <use xlink:href="#DejaVuSans-3d" transform="translate(1021.289062 0)"/>
      <use xlink:href="#DejaVuSans-31" transform="translate(1105.078125 0)"/>
      <use xlink:href="#DejaVuSans-2e" transform="translate(1168.701172 0)"/>
      <use xlink:href="#DejaVuSans-30" transform="translate(1200.488281 0)"/>
     </g>
    </g>
    <g id="patch_8">
     <path d="M 48.94 59.596563 
L 68.94 59.596563 
L 68.94 52.596563 
L 48.94 52.596563 
z
" style="fill: #8dd3c7; fill-opacity: 0.5; stroke: #8dd3c7; stroke-opacity: 0.5; stroke-linejoin: miter"/>
    </g>
    <g id="text_17">
     <!-- Area $x&gt;0$ -->
     <g style="fill: #ffffff" transform="translate(76.94 59.596563) scale(0.1 -0.1)">
      <defs>
       <path id="DejaVuSans-41" d="M 2188 4044 
L 1331 1722 
L 3047 1722 
L 2188 4044 
z
M 1831 4666 
L 2547 4666 
L 4325 0 
L 3669 0 
L 3244 1197 
L 1141 1197 
L 716 0 
L 50 0 
L 1831 4666 
z
" transform="scale(0.015625)"/>
      </defs>
      <use xlink:href="#DejaVuSans-41" transform="translate(0 0.78125)"/>
      <use xlink:href="#DejaVuSans-72" transform="translate(68.408203 0.78125)"/>
      <use xlink:href="#DejaVuSans-65" transform="translate(109.521484 0.78125)"/>
      <use xlink:href="#DejaVuSans-61" transform="translate(171.044922 0.78125)"/>
      <use xlink:href="#DejaVuSans-20" transform="translate(232.324219 0.78125)"/>
      <use xlink:href="#DejaVuSans-Oblique-78" transform="translate(264.111328 0.78125)"/>
      <use xlink:href="#DejaVuSans-3e" transform="translate(342.773438 0.78125)"/>
      <use xlink:href="#DejaVuSans-30" transform="translate(446.044922 0.78125)"/>
     </g>
    </g>
    <g id="patch_9">
     <path d="M 48.94 74.274688 
L 68.94 74.274688 
L 68.94 67.274688 
L 48.94 67.274688 
z
" style="fill: #fa8174; fill-opacity: 0.5; stroke: #fa8174; stroke-opacity: 0.5; stroke-linejoin: miter"/>
    </g>
    <g id="text_18">
     <!-- Area $x&lt;0$ -->
     <g style="fill: #ffffff" transform="translate(76.94 74.274688) scale(0.1 -0.1)">
      <use xlink:href="#DejaVuSans-41" transform="translate(0 0.78125)"/>
      <use xlink:href="#DejaVuSans-72" transform="translate(68.408203 0.78125)"/>
      <use xlink:href="#DejaVuSans-65" transform="translate(109.521484 0.78125)"/>
      <use xlink:href="#DejaVuSans-61" transform="translate(171.044922 0.78125)"/>
      <use xlink:href="#DejaVuSans-20" transform="translate(232.324219 0.78125)"/>
      <use xlink:href="#DejaVuSans-Oblique-78" transform="translate(264.111328 0.78125)"/>
      <use xlink:href="#DejaVuSans-3c" transform="translate(342.773438 0.78125)"/>
      <use xlink:href="#DejaVuSans-30" transform="translate(446.044922 0.78125)"/>
     </g>
    </g>
   </g>
  </g>
 </g>
 <defs>
  <clipPath id="peab882b95d">
   <rect x="39.94" y="28.32" width="453.26" height="231.8"/>
  </clipPath>
 </defs>
</svg>
