<?xml version="1.0" encoding="utf-8" standalone="no"?>
<!DOCTYPE svg PUBLIC "-//W3C//DTD SVG 1.1//EN"
  "http://www.w3.org/Graphics/SVG/1.1/DTD/svg11.dtd">
<svg xmlns:xlink="http://www.w3.org/1999/xlink" width="504pt" height="288pt" viewBox="0 0 504 288" xmlns="http://www.w3.org/2000/svg" version="1.1">
 <metadata>
  <rdf:RDF xmlns:dc="http://purl.org/dc/elements/1.1/" xmlns:cc="http://creativecommons.org/ns#" xmlns:rdf="http://www.w3.org/1999/02/22-rdf-syntax-ns#">
   <cc:Work>
    <dc:type rdf:resource="http://purl.org/dc/dcmitype/StillImage"/>
    <dc:date>2026-04-13T22:53:59.042916</dc:date>
    <dc:format>image/svg+xml</dc:format>
    <dc:creator>
     <cc:Agent>
      <dc:title>Matplotlib v3.10.8, https://matplotlib.org/</dc:title>
     </cc:Agent>
    </dc:creator>
   </cc:Work>
  </rdf:RDF>
 </metadata>
 <defs>
  <style type="text/css">*{stroke-linejoin: round; stroke-linecap: butt}</style>
 </defs>
 <g id="figure_1">
  <g id="patch_1">
   <path d="M 0 288 
L 504 288 
L 504 0 
L 0 0 
L 0 288 
z
" style="fill: none"/>
  </g>
  <g id="axes_1">
   <g id="patch_2">
    <path d="M 39.94 260.12 
L 493.2 260.12 
L 493.2 10.8 
L 39.94 10.8 
L 39.94 260.12 
z
" style="fill: none"/>
   </g>
   <g id="FillBetweenPolyCollection_1">
    <defs>
     <path id="m258017652e" d="M 267.086359 -39.212727 
L 267.086359 -260.402028 
L 268.119077 -261.305728 
L 269.151795 -262.13025 
L 270.184514 -262.874688 
L 271.217232 -263.538219 
L 272.24995 -264.12011 
L 273.282668 -264.619716 
L 274.315386 -265.036482 
L 275.348104 -265.369945 
L 276.380823 -265.619735 
L 277.413541 -265.785572 
L 278.446259 -265.867273 
L 279.478977 -265.864745 
L 280.511695 -265.777993 
L 281.544413 -265.607112 
L 282.577131 -265.352294 
L 283.60985 -265.013821 
L 284.642568 -264.59207 
L 285.675286 -264.087511 
L 286.708004 -263.500702 
L 287.740722 -262.832295 
L 288.77344 -262.083029 
L 289.806159 -261.253729 
L 290.838877 -260.34531 
L 291.871595 -259.358769 
L 292.904313 -258.295185 
L 293.937031 -257.15572 
L 294.969749 -255.941613 
L 296.002468 -254.65418 
L 297.035186 -253.29481 
L 298.067904 -251.864965 
L 299.100622 -250.366173 
L 300.13334 -248.800031 
L 301.166058 -247.168199 
L 302.198776 -245.472395 
L 303.231495 -243.714397 
L 304.264213 -241.896036 
L 305.296931 -240.019194 
L 306.329649 -238.085801 
L 307.362367 -236.097831 
L 308.395085 -234.0573 
L 309.427804 -231.966262 
L 310.460522 -229.826804 
L 311.49324 -227.641045 
L 312.525958 -225.411131 
L 313.558676 -223.139233 
L 314.591394 -220.82754 
L 315.624113 -218.47826 
L 316.656831 -216.093614 
L 317.689549 -213.675834 
L 318.722267 -211.227156 
L 319.754985 -208.749821 
L 320.787703 -206.24607 
L 321.820422 -203.718141 
L 322.85314 -201.168264 
L 323.885858 -198.598659 
L 324.918576 -196.011534 
L 325.951294 -193.409081 
L 326.984012 -190.793471 
L 328.01673 -188.166857 
L 329.049449 -185.531364 
L 330.082167 -182.889089 
L 331.114885 -180.242103 
L 332.147603 -177.59244 
L 333.180321 -174.942102 
L 334.213039 -172.293053 
L 335.245758 -169.647217 
L 336.278476 -167.006477 
L 337.311194 -164.372673 
L 338.343912 -161.747599 
L 339.37663 -159.133003 
L 340.409348 -156.530583 
L 341.442067 -153.941989 
L 342.474785 -151.368817 
L 343.507503 -148.812614 
L 344.540221 -146.27487 
L 345.572939 -143.757023 
L 346.605657 -141.260454 
L 347.638375 -138.786487 
L 348.671094 -136.336392 
L 349.703812 -133.911379 
L 350.73653 -131.512603 
L 351.769248 -129.141159 
L 352.801966 -126.798084 
L 353.834684 -124.484358 
L 354.867403 -122.200902 
L 355.900121 -119.948581 
L 356.932839 -117.728201 
L 357.965557 -115.54051 
L 358.998275 -113.386202 
L 360.030993 -111.265912 
L 361.063712 -109.180222 
L 362.09643 -107.129657 
L 363.129148 -105.11469 
L 364.161866 -103.13574 
L 365.194584 -101.193174 
L 366.227302 -99.287308 
L 367.260021 -97.41841 
L 368.292739 -95.586694 
L 369.325457 -93.792333 
L 370.358175 -92.035449 
L 371.390893 -90.31612 
L 372.423611 -88.634381 
L 373.456329 -86.990225 
L 374.489048 -85.383602 
L 375.521766 -83.814425 
L 376.554484 -82.282568 
L 377.587202 -80.787867 
L 378.61992 -79.330125 
L 379.652638 -77.90911 
L 380.685357 -76.524559 
L 381.718075 -75.176177 
L 382.750793 -73.863643 
L 383.783511 -72.586604 
L 384.816229 -71.344685 
L 385.848947 -70.137484 
L 386.881666 -68.964578 
L 387.914384 -67.825521 
L 388.947102 -66.719847 
L 389.97982 -65.647072 
L 391.012538 -64.606695 
L 392.045256 -63.5982 
L 393.077974 -62.621053 
L 394.110693 -61.674712 
L 395.143411 -60.758619 
L 396.176129 -59.872208 
L 397.208847 -59.014903 
L 398.241565 -58.18612 
L 399.274283 -57.385269 
L 400.307002 -56.611753 
L 401.33972 -55.864972 
L 402.372438 -55.14432 
L 403.405156 -54.449192 
L 404.437874 -53.778978 
L 405.470592 -53.133071 
L 406.503311 -52.510861 
L 407.536029 -51.911742 
L 408.568747 -51.335109 
L 409.601465 -50.780359 
L 410.634183 -50.246894 
L 411.666901 -49.734119 
L 412.69962 -49.241446 
L 413.732338 -48.76829 
L 414.765056 -48.314074 
L 415.797774 -47.878228 
L 416.830492 -47.460187 
L 417.86321 -47.059397 
L 418.895928 -46.675309 
L 419.928647 -46.307385 
L 420.961365 -45.955093 
L 421.994083 -45.617914 
L 423.026801 -45.295336 
L 424.059519 -44.986857 
L 425.092237 -44.691985 
L 426.124956 -44.41024 
L 427.157674 -44.14115 
L 428.190392 -43.884255 
L 429.22311 -43.639105 
L 430.255828 -43.405261 
L 431.288546 -43.182296 
L 432.321265 -42.969792 
L 433.353983 -42.767342 
L 434.386701 -42.574551 
L 435.419419 -42.391036 
L 436.452137 -42.216421 
L 437.484855 -42.050345 
L 438.517573 -41.892455 
L 439.550292 -41.74241 
L 440.58301 -41.599879 
L 441.615728 -41.464541 
L 442.648446 -41.336087 
L 443.681164 -41.214217 
L 444.713882 -41.09864 
L 445.746601 -40.989077 
L 446.779319 -40.885257 
L 447.812037 -40.78692 
L 448.844755 -40.693814 
L 449.877473 -40.605697 
L 450.910191 -40.522336 
L 451.94291 -40.443506 
L 452.975628 -40.368991 
L 454.008346 -40.298584 
L 455.041064 -40.232085 
L 456.073782 -40.169303 
L 457.1065 -40.110054 
L 458.139219 -40.054162 
L 459.171937 -40.001458 
L 460.204655 -39.951781 
L 461.237373 -39.904975 
L 462.270091 -39.860892 
L 463.302809 -39.819391 
L 464.335527 -39.780337 
L 465.368246 -39.743599 
L 466.400964 -39.709055 
L 467.433682 -39.676585 
L 468.4664 -39.646079 
L 469.499118 -39.617429 
L 470.531836 -39.590533 
L 471.564555 -39.565292 
L 472.597273 -39.541616 
L 472.597273 -39.212727 
L 472.597273 -39.212727 
L 471.564555 -39.212727 
L 470.531836 -39.212727 
L 469.499118 -39.212727 
L 468.4664 -39.212727 
L 467.433682 -39.212727 
L 466.400964 -39.212727 
L 465.368246 -39.212727 
L 464.335527 -39.212727 
L 463.302809 -39.212727 
L 462.270091 -39.212727 
L 461.237373 -39.212727 
L 460.204655 -39.212727 
L 459.171937 -39.212727 
L 458.139219 -39.212727 
L 457.1065 -39.212727 
L 456.073782 -39.212727 
L 455.041064 -39.212727 
L 454.008346 -39.212727 
L 452.975628 -39.212727 
L 451.94291 -39.212727 
L 450.910191 -39.212727 
L 449.877473 -39.212727 
L 448.844755 -39.212727 
L 447.812037 -39.212727 
L 446.779319 -39.212727 
L 445.746601 -39.212727 
L 444.713882 -39.212727 
L 443.681164 -39.212727 
L 442.648446 -39.212727 
L 441.615728 -39.212727 
L 440.58301 -39.212727 
L 439.550292 -39.212727 
L 438.517573 -39.212727 
L 437.484855 -39.212727 
L 436.452137 -39.212727 
L 435.419419 -39.212727 
L 434.386701 -39.212727 
L 433.353983 -39.212727 
L 432.321265 -39.212727 
L 431.288546 -39.212727 
L 430.255828 -39.212727 
L 429.22311 -39.212727 
L 428.190392 -39.212727 
L 427.157674 -39.212727 
L 426.124956 -39.212727 
L 425.092237 -39.212727 
L 424.059519 -39.212727 
L 423.026801 -39.212727 
L 421.994083 -39.212727 
L 420.961365 -39.212727 
L 419.928647 -39.212727 
L 418.895928 -39.212727 
L 417.86321 -39.212727 
L 416.830492 -39.212727 
L 415.797774 -39.212727 
L 414.765056 -39.212727 
L 413.732338 -39.212727 
L 412.69962 -39.212727 
L 411.666901 -39.212727 
L 410.634183 -39.212727 
L 409.601465 -39.212727 
L 408.568747 -39.212727 
L 407.536029 -39.212727 
L 406.503311 -39.212727 
L 405.470592 -39.212727 
L 404.437874 -39.212727 
L 403.405156 -39.212727 
L 402.372438 -39.212727 
L 401.33972 -39.212727 
L 400.307002 -39.212727 
L 399.274283 -39.212727 
L 398.241565 -39.212727 
L 397.208847 -39.212727 
L 396.176129 -39.212727 
L 395.143411 -39.212727 
L 394.110693 -39.212727 
L 393.077974 -39.212727 
L 392.045256 -39.212727 
L 391.012538 -39.212727 
L 389.97982 -39.212727 
L 388.947102 -39.212727 
L 387.914384 -39.212727 
L 386.881666 -39.212727 
L 385.848947 -39.212727 
L 384.816229 -39.212727 
L 383.783511 -39.212727 
L 382.750793 -39.212727 
L 381.718075 -39.212727 
L 380.685357 -39.212727 
L 379.652638 -39.212727 
L 378.61992 -39.212727 
L 377.587202 -39.212727 
L 376.554484 -39.212727 
L 375.521766 -39.212727 
L 374.489048 -39.212727 
L 373.456329 -39.212727 
L 372.423611 -39.212727 
L 371.390893 -39.212727 
L 370.358175 -39.212727 
L 369.325457 -39.212727 
L 368.292739 -39.212727 
L 367.260021 -39.212727 
L 366.227302 -39.212727 
L 365.194584 -39.212727 
L 364.161866 -39.212727 
L 363.129148 -39.212727 
L 362.09643 -39.212727 
L 361.063712 -39.212727 
L 360.030993 -39.212727 
L 358.998275 -39.212727 
L 357.965557 -39.212727 
L 356.932839 -39.212727 
L 355.900121 -39.212727 
L 354.867403 -39.212727 
L 353.834684 -39.212727 
L 352.801966 -39.212727 
L 351.769248 -39.212727 
L 350.73653 -39.212727 
L 349.703812 -39.212727 
L 348.671094 -39.212727 
L 347.638375 -39.212727 
L 346.605657 -39.212727 
L 345.572939 -39.212727 
L 344.540221 -39.212727 
L 343.507503 -39.212727 
L 342.474785 -39.212727 
L 341.442067 -39.212727 
L 340.409348 -39.212727 
L 339.37663 -39.212727 
L 338.343912 -39.212727 
L 337.311194 -39.212727 
L 336.278476 -39.212727 
L 335.245758 -39.212727 
L 334.213039 -39.212727 
L 333.180321 -39.212727 
L 332.147603 -39.212727 
L 331.114885 -39.212727 
L 330.082167 -39.212727 
L 329.049449 -39.212727 
L 328.01673 -39.212727 
L 326.984012 -39.212727 
L 325.951294 -39.212727 
L 324.918576 -39.212727 
L 323.885858 -39.212727 
L 322.85314 -39.212727 
L 321.820422 -39.212727 
L 320.787703 -39.212727 
L 319.754985 -39.212727 
L 318.722267 -39.212727 
L 317.689549 -39.212727 
L 316.656831 -39.212727 
L 315.624113 -39.212727 
L 314.591394 -39.212727 
L 313.558676 -39.212727 
L 312.525958 -39.212727 
L 311.49324 -39.212727 
L 310.460522 -39.212727 
L 309.427804 -39.212727 
L 308.395085 -39.212727 
L 307.362367 -39.212727 
L 306.329649 -39.212727 
L 305.296931 -39.212727 
L 304.264213 -39.212727 
L 303.231495 -39.212727 
L 302.198776 -39.212727 
L 301.166058 -39.212727 
L 300.13334 -39.212727 
L 299.100622 -39.212727 
L 298.067904 -39.212727 
L 297.035186 -39.212727 
L 296.002468 -39.212727 
L 294.969749 -39.212727 
L 293.937031 -39.212727 
L 292.904313 -39.212727 
L 291.871595 -39.212727 
L 290.838877 -39.212727 
L 289.806159 -39.212727 
L 288.77344 -39.212727 
L 287.740722 -39.212727 
L 286.708004 -39.212727 
L 285.675286 -39.212727 
L 284.642568 -39.212727 
L 283.60985 -39.212727 
L 282.577131 -39.212727 
L 281.544413 -39.212727 
L 280.511695 -39.212727 
L 279.478977 -39.212727 
L 278.446259 -39.212727 
L 277.413541 -39.212727 
L 276.380823 -39.212727 
L 275.348104 -39.212727 
L 274.315386 -39.212727 
L 273.282668 -39.212727 
L 272.24995 -39.212727 
L 271.217232 -39.212727 
L 270.184514 -39.212727 
L 269.151795 -39.212727 
L 268.119077 -39.212727 
L 267.086359 -39.212727 
z
" style="stroke: #8dd3c7; stroke-opacity: 0.5"/>
    </defs>
    <g clip-path="url(#p4061347e93)">
     <use xlink:href="#m258017652e" x="0" y="288" style="fill: #8dd3c7; fill-opacity: 0.5; stroke: #8dd3c7; stroke-opacity: 0.5"/>
    </g>
   </g>
   <g id="FillBetweenPolyCollection_2">
    <defs>
     <path id="m2a2a283188" d="M 60.542727 -39.212727 
L 60.542727 -39.26846 
L 61.575445 -39.273006 
L 62.608164 -39.277899 
L 63.640882 -39.283163 
L 64.6736 -39.288823 
L 65.706318 -39.294908 
L 66.739036 -39.301446 
L 67.771754 -39.308469 
L 68.804473 -39.31601 
L 69.837191 -39.324103 
L 70.869909 -39.332786 
L 71.902627 -39.342097 
L 72.935345 -39.352079 
L 73.968063 -39.362775 
L 75.000781 -39.374232 
L 76.0335 -39.386499 
L 77.066218 -39.399628 
L 78.098936 -39.413675 
L 79.131654 -39.428697 
L 80.164372 -39.444756 
L 81.19709 -39.461917 
L 82.229809 -39.480247 
L 83.262527 -39.499819 
L 84.295245 -39.520708 
L 85.327963 -39.542994 
L 86.360681 -39.566762 
L 87.393399 -39.592099 
L 88.426118 -39.619098 
L 89.458836 -39.647856 
L 90.491554 -39.678477 
L 91.524272 -39.711068 
L 92.55699 -39.74574 
L 93.589708 -39.782613 
L 94.622427 -39.821811 
L 95.655145 -39.863463 
L 96.687863 -39.907705 
L 97.720581 -39.954679 
L 98.753299 -40.004533 
L 99.786017 -40.057424 
L 100.818735 -40.113512 
L 101.851454 -40.172968 
L 102.884172 -40.235968 
L 103.91689 -40.302696 
L 104.949608 -40.373344 
L 105.982326 -40.448112 
L 107.015044 -40.527208 
L 108.047763 -40.610848 
L 109.080481 -40.699258 
L 110.113199 -40.792671 
L 111.145917 -40.891329 
L 112.178635 -40.995486 
L 113.211353 -41.105403 
L 114.244072 -41.221349 
L 115.27679 -41.343606 
L 116.309508 -41.472464 
L 117.342226 -41.608225 
L 118.374944 -41.751197 
L 119.407662 -41.901704 
L 120.44038 -42.060075 
L 121.473099 -42.226654 
L 122.505817 -42.401792 
L 123.538535 -42.585853 
L 124.571253 -42.779213 
L 125.603971 -42.982254 
L 126.636689 -43.195375 
L 127.669408 -43.418981 
L 128.702126 -43.653491 
L 129.734844 -43.899333 
L 130.767562 -44.156947 
L 131.80028 -44.426783 
L 132.832998 -44.709303 
L 133.865717 -45.004977 
L 134.898435 -45.314288 
L 135.931153 -45.637728 
L 136.963871 -45.975799 
L 137.996589 -46.329014 
L 139.029307 -46.697893 
L 140.062026 -47.082968 
L 141.094744 -47.484778 
L 142.127462 -47.903871 
L 143.16018 -48.340803 
L 144.192898 -48.796139 
L 145.225616 -49.27045 
L 146.258334 -49.764313 
L 147.291053 -50.278312 
L 148.323771 -50.813038 
L 149.356489 -51.369084 
L 150.389207 -51.947049 
L 151.421925 -52.547537 
L 152.454643 -53.171151 
L 153.487362 -53.8185 
L 154.52008 -54.490191 
L 155.552798 -55.186833 
L 156.585516 -55.909036 
L 157.618234 -56.657404 
L 158.650952 -57.432543 
L 159.683671 -58.235054 
L 160.716389 -59.065531 
L 161.749107 -59.924566 
L 162.781825 -60.812742 
L 163.814543 -61.730633 
L 164.847261 -62.678808 
L 165.879979 -63.65782 
L 166.912698 -64.668214 
L 167.945416 -65.71052 
L 168.978134 -66.785254 
L 170.010852 -67.892918 
L 171.04357 -69.033993 
L 172.076288 -70.208945 
L 173.109007 -71.418217 
L 174.141725 -72.662232 
L 175.174443 -73.94139 
L 176.207161 -75.256066 
L 177.239879 -76.606609 
L 178.272597 -77.99334 
L 179.305316 -79.416551 
L 180.338034 -80.876505 
L 181.370752 -82.37343 
L 182.40347 -83.907522 
L 183.436188 -85.478943 
L 184.468906 -87.087815 
L 185.501625 -88.734225 
L 186.534343 -90.41822 
L 187.567061 -92.139803 
L 188.599779 -93.898939 
L 189.632497 -95.695545 
L 190.665215 -97.529497 
L 191.697933 -99.40062 
L 192.730652 -101.308696 
L 193.76337 -103.253454 
L 194.796088 -105.234576 
L 195.828806 -107.251691 
L 196.861524 -109.304378 
L 197.894242 -111.392159 
L 198.926961 -113.514507 
L 199.959679 -115.670837 
L 200.992397 -117.860509 
L 202.025115 -120.082828 
L 203.057833 -122.33704 
L 204.090551 -124.622337 
L 205.12327 -126.93785 
L 206.155988 -129.282655 
L 207.188706 -131.65577 
L 208.221424 -134.056152 
L 209.254142 -136.482702 
L 210.28686 -138.934264 
L 211.319578 -141.409623 
L 212.352297 -143.907507 
L 213.385015 -146.426588 
L 214.417733 -148.96548 
L 215.450451 -151.522744 
L 216.483169 -154.096885 
L 217.515887 -156.686355 
L 218.548606 -159.289552 
L 219.581324 -161.904826 
L 220.614042 -164.530473 
L 221.64676 -167.164744 
L 222.679478 -169.805842 
L 223.712196 -172.451925 
L 224.744915 -175.101106 
L 225.777633 -177.751459 
L 226.810351 -180.401018 
L 227.843069 -183.047779 
L 228.875787 -185.689705 
L 229.908505 -188.324725 
L 230.941224 -190.95074 
L 231.973942 -193.56562 
L 233.00666 -196.167215 
L 234.039378 -198.753351 
L 235.072096 -201.321835 
L 236.104814 -203.870458 
L 237.137532 -206.397 
L 238.170251 -208.899228 
L 239.202969 -211.374907 
L 240.235687 -213.821794 
L 241.268405 -216.23765 
L 242.301123 -218.620236 
L 243.333841 -220.967323 
L 244.36656 -223.276691 
L 245.399278 -225.546132 
L 246.431996 -227.773457 
L 247.464714 -229.956498 
L 248.497432 -232.093111 
L 249.53015 -234.181177 
L 250.562869 -236.218612 
L 251.595587 -238.203363 
L 252.628305 -240.133419 
L 253.661023 -242.006806 
L 254.693741 -243.821598 
L 255.726459 -245.575915 
L 256.759177 -247.26793 
L 257.791896 -248.895869 
L 258.824614 -250.458016 
L 259.857332 -251.952715 
L 260.89005 -253.378375 
L 261.922768 -254.733469 
L 262.955486 -256.016541 
L 263.988205 -257.226206 
L 265.020923 -258.361152 
L 266.053641 -259.420145 
L 266.053641 -39.212727 
L 266.053641 -39.212727 
L 265.020923 -39.212727 
L 263.988205 -39.212727 
L 262.955486 -39.212727 
L 261.922768 -39.212727 
L 260.89005 -39.212727 
L 259.857332 -39.212727 
L 258.824614 -39.212727 
L 257.791896 -39.212727 
L 256.759177 -39.212727 
L 255.726459 -39.212727 
L 254.693741 -39.212727 
L 253.661023 -39.212727 
L 252.628305 -39.212727 
L 251.595587 -39.212727 
L 250.562869 -39.212727 
L 249.53015 -39.212727 
L 248.497432 -39.212727 
L 247.464714 -39.212727 
L 246.431996 -39.212727 
L 245.399278 -39.212727 
L 244.36656 -39.212727 
L 243.333841 -39.212727 
L 242.301123 -39.212727 
L 241.268405 -39.212727 
L 240.235687 -39.212727 
L 239.202969 -39.212727 
L 238.170251 -39.212727 
L 237.137532 -39.212727 
L 236.104814 -39.212727 
L 235.072096 -39.212727 
L 234.039378 -39.212727 
L 233.00666 -39.212727 
L 231.973942 -39.212727 
L 230.941224 -39.212727 
L 229.908505 -39.212727 
L 228.875787 -39.212727 
L 227.843069 -39.212727 
L 226.810351 -39.212727 
L 225.777633 -39.212727 
L 224.744915 -39.212727 
L 223.712196 -39.212727 
L 222.679478 -39.212727 
L 221.64676 -39.212727 
L 220.614042 -39.212727 
L 219.581324 -39.212727 
L 218.548606 -39.212727 
L 217.515887 -39.212727 
L 216.483169 -39.212727 
L 215.450451 -39.212727 
L 214.417733 -39.212727 
L 213.385015 -39.212727 
L 212.352297 -39.212727 
L 211.319578 -39.212727 
L 210.28686 -39.212727 
L 209.254142 -39.212727 
L 208.221424 -39.212727 
L 207.188706 -39.212727 
L 206.155988 -39.212727 
L 205.12327 -39.212727 
L 204.090551 -39.212727 
L 203.057833 -39.212727 
L 202.025115 -39.212727 
L 200.992397 -39.212727 
L 199.959679 -39.212727 
L 198.926961 -39.212727 
L 197.894242 -39.212727 
L 196.861524 -39.212727 
L 195.828806 -39.212727 
L 194.796088 -39.212727 
L 193.76337 -39.212727 
L 192.730652 -39.212727 
L 191.697933 -39.212727 
L 190.665215 -39.212727 
L 189.632497 -39.212727 
L 188.599779 -39.212727 
L 187.567061 -39.212727 
L 186.534343 -39.212727 
L 185.501625 -39.212727 
L 184.468906 -39.212727 
L 183.436188 -39.212727 
L 182.40347 -39.212727 
L 181.370752 -39.212727 
L 180.338034 -39.212727 
L 179.305316 -39.212727 
L 178.272597 -39.212727 
L 177.239879 -39.212727 
L 176.207161 -39.212727 
L 175.174443 -39.212727 
L 174.141725 -39.212727 
L 173.109007 -39.212727 
L 172.076288 -39.212727 
L 171.04357 -39.212727 
L 170.010852 -39.212727 
L 168.978134 -39.212727 
L 167.945416 -39.212727 
L 166.912698 -39.212727 
L 165.879979 -39.212727 
L 164.847261 -39.212727 
L 163.814543 -39.212727 
L 162.781825 -39.212727 
L 161.749107 -39.212727 
L 160.716389 -39.212727 
L 159.683671 -39.212727 
L 158.650952 -39.212727 
L 157.618234 -39.212727 
L 156.585516 -39.212727 
L 155.552798 -39.212727 
L 154.52008 -39.212727 
L 153.487362 -39.212727 
L 152.454643 -39.212727 
L 151.421925 -39.212727 
L 150.389207 -39.212727 
L 149.356489 -39.212727 
L 148.323771 -39.212727 
L 147.291053 -39.212727 
L 146.258334 -39.212727 
L 145.225616 -39.212727 
L 144.192898 -39.212727 
L 143.16018 -39.212727 
L 142.127462 -39.212727 
L 141.094744 -39.212727 
L 140.062026 -39.212727 
L 139.029307 -39.212727 
L 137.996589 -39.212727 
L 136.963871 -39.212727 
L 135.931153 -39.212727 
L 134.898435 -39.212727 
L 133.865717 -39.212727 
L 132.832998 -39.212727 
L 131.80028 -39.212727 
L 130.767562 -39.212727 
L 129.734844 -39.212727 
L 128.702126 -39.212727 
L 127.669408 -39.212727 
L 126.636689 -39.212727 
L 125.603971 -39.212727 
L 124.571253 -39.212727 
L 123.538535 -39.212727 
L 122.505817 -39.212727 
L 121.473099 -39.212727 
L 120.44038 -39.212727 
L 119.407662 -39.212727 
L 118.374944 -39.212727 
L 117.342226 -39.212727 
L 116.309508 -39.212727 
L 115.27679 -39.212727 
L 114.244072 -39.212727 
L 113.211353 -39.212727 
L 112.178635 -39.212727 
L 111.145917 -39.212727 
L 110.113199 -39.212727 
L 109.080481 -39.212727 
L 108.047763 -39.212727 
L 107.015044 -39.212727 
L 105.982326 -39.212727 
L 104.949608 -39.212727 
L 103.91689 -39.212727 
L 102.884172 -39.212727 
L 101.851454 -39.212727 
L 100.818735 -39.212727 
L 99.786017 -39.212727 
L 98.753299 -39.212727 
L 97.720581 -39.212727 
L 96.687863 -39.212727 
L 95.655145 -39.212727 
L 94.622427 -39.212727 
L 93.589708 -39.212727 
L 92.55699 -39.212727 
L 91.524272 -39.212727 
L 90.491554 -39.212727 
L 89.458836 -39.212727 
L 88.426118 -39.212727 
L 87.393399 -39.212727 
L 86.360681 -39.212727 
L 85.327963 -39.212727 
L 84.295245 -39.212727 
L 83.262527 -39.212727 
L 82.229809 -39.212727 
L 81.19709 -39.212727 
L 80.164372 -39.212727 
L 79.131654 -39.212727 
L 78.098936 -39.212727 
L 77.066218 -39.212727 
L 76.0335 -39.212727 
L 75.000781 -39.212727 
L 73.968063 -39.212727 
L 72.935345 -39.212727 
L 71.902627 -39.212727 
L 70.869909 -39.212727 
L 69.837191 -39.212727 
L 68.804473 -39.212727 
L 67.771754 -39.212727 
L 66.739036 -39.212727 
L 65.706318 -39.212727 
L 64.6736 -39.212727 
L 63.640882 -39.212727 
L 62.608164 -39.212727 
L 61.575445 -39.212727 
L 60.542727 -39.212727 
z
" style="stroke: #fa8174; stroke-opacity: 0.5"/>
    </defs>
    <g clip-path="url(#p4061347e93)">
     <use xlink:href="#m2a2a283188" x="0" y="288" style="fill: #fa8174; fill-opacity: 0.5; stroke: #fa8174; stroke-opacity: 0.5"/>
    </g>
   </g>
   <g id="matplotlib.axis_1">
    <g id="xtick_1">
     <g id="line2d_1">
      <defs>
       <path id="m76e8dd991d" d="M 0 0 
L 0 3.5 
" style="stroke: #ffffff; stroke-width: 0.8"/>
      </defs>
      <g>
       <use xlink:href="#m76e8dd991d" x="101.748182" y="260.12" style="fill: #ffffff; stroke: #ffffff; stroke-width: 0.8"/>
      </g>
     </g>
     <g id="text_1">
      <!-- −4 -->
      <g style="fill: #ffffff" transform="translate(94.377088 274.718437) scale(0.1 -0.1)">
       <defs>
        <path id="DejaVuSans-2212" d="M 678 2272 
L 4684 2272 
L 4684 1741 
L 678 1741 
L 678 2272 
z
" transform="scale(0.015625)"/>
        <path id="DejaVuSans-34" d="M 2419 4116 
L 825 1625 
L 2419 1625 
L 2419 4116 
z
M 2253 4666 
L 3047 4666 
L 3047 1625 
L 3713 1625 
L 3713 1100 
L 3047 1100 
L 3047 0 
L 2419 0 
L 2419 1100 
L 313 1100 
L 313 1709 
L 2253 4666 
z
" transform="scale(0.015625)"/>
       </defs>
       <use xlink:href="#DejaVuSans-2212"/>
       <use xlink:href="#DejaVuSans-34" transform="translate(83.789062 0)"/>
      </g>
     </g>
    </g>
    <g id="xtick_2">
     <g id="line2d_2">
      <g>
       <use xlink:href="#m76e8dd991d" x="184.159091" y="260.12" style="fill: #ffffff; stroke: #ffffff; stroke-width: 0.8"/>
      </g>
     </g>
     <g id="text_2">
      <!-- −2 -->
      <g style="fill: #ffffff" transform="translate(176.787997 274.718437) scale(0.1 -0.1)">
       <defs>
        <path id="DejaVuSans-32" d="M 1228 531 
L 3431 531 
L 3431 0 
L 469 0 
L 469 531 
Q 828 903 1448 1529 
Q 2069 2156 2228 2338 
Q 2531 2678 2651 2914 
Q 2772 3150 2772 3378 
Q 2772 3750 2511 3984 
Q 2250 4219 1831 4219 
Q 1534 4219 1204 4116 
Q 875 4013 500 3803 
L 500 4441 
Q 881 4594 1212 4672 
Q 1544 4750 1819 4750 
Q 2544 4750 2975 4387 
Q 3406 4025 3406 3419 
Q 3406 3131 3298 2873 
Q 3191 2616 2906 2266 
Q 2828 2175 2409 1742 
Q 1991 1309 1228 531 
z
" transform="scale(0.015625)"/>
       </defs>
       <use xlink:href="#DejaVuSans-2212"/>
       <use xlink:href="#DejaVuSans-32" transform="translate(83.789062 0)"/>
      </g>
     </g>
    </g>
    <g id="xtick_3">
     <g id="line2d_3">
      <g>
       <use xlink:href="#m76e8dd991d" x="266.57" y="260.12" style="fill: #ffffff; stroke: #ffffff; stroke-width: 0.8"/>
      </g>
     </g>
     <g id="text_3">
      <!-- 0 -->
      <g style="fill: #ffffff" transform="translate(263.38875 274.718437) scale(0.1 -0.1)">
       <defs>
        <path id="DejaVuSans-30" d="M 2034 4250 
Q 1547 4250 1301 3770 
Q 1056 3291 1056 2328 
Q 1056 1369 1301 889 
Q 1547 409 2034 409 
Q 2525 409 2770 889 
Q 3016 1369 3016 2328 
Q 3016 3291 2770 3770 
Q 2525 4250 2034 4250 
z
M 2034 4750 
Q 2819 4750 3233 4129 
Q 3647 3509 3647 2328 
Q 3647 1150 3233 529 
Q 2819 -91 2034 -91 
Q 1250 -91 836 529 
Q 422 1150 422 2328 
Q 422 3509 836 4129 
Q 1250 4750 2034 4750 
z
" transform="scale(0.015625)"/>
       </defs>
       <use xlink:href="#DejaVuSans-30"/>
      </g>
     </g>
    </g>
    <g id="xtick_4">
     <g id="line2d_4">
      <g>
       <use xlink:href="#m76e8dd991d" x="348.980909" y="260.12" style="fill: #ffffff; stroke: #ffffff; stroke-width: 0.8"/>
      </g>
     </g>
     <g id="text_4">
      <!-- 2 -->
      <g style="fill: #ffffff" transform="translate(345.799659 274.718437) scale(0.1 -0.1)">
       <use xlink:href="#DejaVuSans-32"/>
      </g>
     </g>
    </g>
    <g id="xtick_5">
     <g id="line2d_5">
      <g>
       <use xlink:href="#m76e8dd991d" x="431.391818" y="260.12" style="fill: #ffffff; stroke: #ffffff; stroke-width: 0.8"/>
      </g>
     </g>
     <g id="text_5">
      <!-- 4 -->
      <g style="fill: #ffffff" transform="translate(428.210568 274.718437) scale(0.1 -0.1)">
       <use xlink:href="#DejaVuSans-34"/>
      </g>
     </g>
    </g>
   </g>
   <g id="matplotlib.axis_2">
    <g id="ytick_1">
     <g id="line2d_6">
      <defs>
       <path id="mb52d89d372" d="M 0 0 
L -3.5 0 
" style="stroke: #ffffff; stroke-width: 0.8"/>
      </defs>
      <g>
       <use xlink:href="#mb52d89d372" x="39.94" y="248.787273" style="fill: #ffffff; stroke: #ffffff; stroke-width: 0.8"/>
      </g>
     </g>
     <g id="text_6">
      <!-- 0.00 -->
      <g style="fill: #ffffff" transform="translate(10.674375 252.586491) scale(0.1 -0.1)">
       <defs>
        <path id="DejaVuSans-2e" d="M 684 794 
L 1344 794 
L 1344 0 
L 684 0 
L 684 794 
z
" transform="scale(0.015625)"/>
       </defs>
       <use xlink:href="#DejaVuSans-30"/>
       <use xlink:href="#DejaVuSans-2e" transform="translate(63.623047 0)"/>
       <use xlink:href="#DejaVuSans-30" transform="translate(95.410156 0)"/>
       <use xlink:href="#DejaVuSans-30" transform="translate(159.033203 0)"/>
      </g>
     </g>
    </g>
    <g id="ytick_2">
     <g id="line2d_7">
      <g>
       <use xlink:href="#mb52d89d372" x="39.94" y="211.856742" style="fill: #ffffff; stroke: #ffffff; stroke-width: 0.8"/>
      </g>
     </g>
     <g id="text_7">
      <!-- 0.05 -->
      <g style="fill: #ffffff" transform="translate(10.674375 215.65596) scale(0.1 -0.1)">
       <defs>
        <path id="DejaVuSans-35" d="M 691 4666 
L 3169 4666 
L 3169 4134 
L 1269 4134 
L 1269 2991 
Q 1406 3038 1543 3061 
Q 1681 3084 1819 3084 
Q 2600 3084 3056 2656 
Q 3513 2228 3513 1497 
Q 3513 744 3044 326 
Q 2575 -91 1722 -91 
Q 1428 -91 1123 -41 
Q 819 9 494 109 
L 494 744 
Q 775 591 1075 516 
Q 1375 441 1709 441 
Q 2250 441 2565 725 
Q 2881 1009 2881 1497 
Q 2881 1984 2565 2268 
Q 2250 2553 1709 2553 
Q 1456 2553 1204 2497 
Q 953 2441 691 2322 
L 691 4666 
z
" transform="scale(0.015625)"/>
       </defs>
       <use xlink:href="#DejaVuSans-30"/>
       <use xlink:href="#DejaVuSans-2e" transform="translate(63.623047 0)"/>
       <use xlink:href="#DejaVuSans-30" transform="translate(95.410156 0)"/>
       <use xlink:href="#DejaVuSans-35" transform="translate(159.033203 0)"/>
      </g>
     </g>
    </g>
    <g id="ytick_3">
     <g id="line2d_8">
      <g>
       <use xlink:href="#mb52d89d372" x="39.94" y="174.926211" style="fill: #ffffff; stroke: #ffffff; stroke-width: 0.8"/>
      </g>
     </g>
     <g id="text_8">
      <!-- 0.10 -->
      <g style="fill: #ffffff" transform="translate(10.674375 178.725429) scale(0.1 -0.1)">
       <defs>
        <path id="DejaVuSans-31" d="M 794 531 
L 1825 531 
L 1825 4091 
L 703 3866 
L 703 4441 
L 1819 4666 
L 2450 4666 
L 2450 531 
L 3481 531 
L 3481 0 
L 794 0 
L 794 531 
z
" transform="scale(0.015625)"/>
       </defs>
       <use xlink:href="#DejaVuSans-30"/>
       <use xlink:href="#DejaVuSans-2e" transform="translate(63.623047 0)"/>
       <use xlink:href="#DejaVuSans-31" transform="translate(95.410156 0)"/>
       <use xlink:href="#DejaVuSans-30" transform="translate(159.033203 0)"/>
      </g>
     </g>
    </g>
    <g id="ytick_4">
     <g id="line2d_9">
      <g>
       <use xlink:href="#mb52d89d372" x="39.94" y="137.99568" style="fill: #ffffff; stroke: #ffffff; stroke-width: 0.8"/>
      </g>
     </g>
     <g id="text_9">
      <!-- 0.15 -->
      <g style="fill: #ffffff" transform="translate(10.674375 141.794898) scale(0.1 -0.1)">
       <use xlink:href="#DejaVuSans-30"/>
       <use xlink:href="#DejaVuSans-2e" transform="translate(63.623047 0)"/>
       <use xlink:href="#DejaVuSans-31" transform="translate(95.410156 0)"/>
       <use xlink:href="#DejaVuSans-35" transform="translate(159.033203 0)"/>
      </g>
     </g>
    </g>
    <g id="ytick_5">
     <g id="line2d_10">
      <g>
       <use xlink:href="#mb52d89d372" x="39.94" y="101.065149" style="fill: #ffffff; stroke: #ffffff; stroke-width: 0.8"/>
      </g>
     </g>
     <g id="text_10">
      <!-- 0.20 -->
      <g style="fill: #ffffff" transform="translate(10.674375 104.864367) scale(0.1 -0.1)">
       <use xlink:href="#DejaVuSans-30"/>
       <use xlink:href="#DejaVuSans-2e" transform="translate(63.623047 0)"/>
       <use xlink:href="#DejaVuSans-32" transform="translate(95.410156 0)"/>
       <use xlink:href="#DejaVuSans-30" transform="translate(159.033203 0)"/>
      </g>
     </g>
    </g>
    <g id="ytick_6">
     <g id="line2d_11">
      <g>
       <use xlink:href="#mb52d89d372" x="39.94" y="64.134618" style="fill: #ffffff; stroke: #ffffff; stroke-width: 0.8"/>
      </g>
     </g>
     <g id="text_11">
      <!-- 0.25 -->
      <g style="fill: #ffffff" transform="translate(10.674375 67.933836) scale(0.1 -0.1)">
       <use xlink:href="#DejaVuSans-30"/>
       <use xlink:href="#DejaVuSans-2e" transform="translate(63.623047 0)"/>
       <use xlink:href="#DejaVuSans-32" transform="translate(95.410156 0)"/>
       <use xlink:href="#DejaVuSans-35" transform="translate(159.033203 0)"/>
      </g>
     </g>
    </g>
    <g id="ytick_7">
     <g id="line2d_12">
      <g>
       <use xlink:href="#mb52d89d372" x="39.94" y="27.204087" style="fill: #ffffff; stroke: #ffffff; stroke-width: 0.8"/>
      </g>
     </g>
     <g id="text_12">
      <!-- 0.30 -->
      <g style="fill: #ffffff" transform="translate(10.674375 31.003305) scale(0.1 -0.1)">
       <defs>
        <path id="DejaVuSans-33" d="M 2597 2516 
Q 3050 2419 3304 2112 
Q 3559 1806 3559 1356 
Q 3559 666 3084 287 
Q 2609 -91 1734 -91 
Q 1441 -91 1130 -33 
Q 819 25 488 141 
L 488 750 
Q 750 597 1062 519 
Q 1375 441 1716 441 
Q 2309 441 2620 675 
Q 2931 909 2931 1356 
Q 2931 1769 2642 2001 
Q 2353 2234 1838 2234 
L 1294 2234 
L 1294 2753 
L 1863 2753 
Q 2328 2753 2575 2939 
Q 2822 3125 2822 3475 
Q 2822 3834 2567 4026 
Q 2313 4219 1838 4219 
Q 1578 4219 1281 4162 
Q 984 4106 628 3988 
L 628 4550 
Q 988 4650 1302 4700 
Q 1616 4750 1894 4750 
Q 2613 4750 3031 4423 
Q 3450 4097 3450 3541 
Q 3450 3153 3228 2886 
Q 3006 2619 2597 2516 
z
" transform="scale(0.015625)"/>
       </defs>
       <use xlink:href="#DejaVuSans-30"/>
       <use xlink:href="#DejaVuSans-2e" transform="translate(63.623047 0)"/>
       <use xlink:href="#DejaVuSans-33" transform="translate(95.410156 0)"/>
       <use xlink:href="#DejaVuSans-30" transform="translate(159.033203 0)"/>
      </g>
     </g>
    </g>
   </g>
   <g id="line2d_13">
    <path d="M 60.542727 248.73154 
L 81.19709 248.538083 
L 93.589708 248.217387 
L 102.884172 247.764032 
L 110.113199 247.207329 
L 116.309508 246.527536 
L 121.473099 245.773346 
L 126.636689 244.804625 
L 131.80028 243.573217 
L 135.931153 242.362272 
L 140.062026 240.917032 
L 144.192898 239.203861 
L 148.323771 237.186962 
L 151.421925 235.452463 
L 154.52008 233.509809 
L 157.618234 231.342596 
L 160.716389 228.934469 
L 163.814543 226.269367 
L 166.912698 223.331786 
L 170.010852 220.107082 
L 173.109007 216.581783 
L 176.207161 212.743934 
L 179.305316 208.583449 
L 182.40347 204.092478 
L 185.501625 199.265775 
L 188.599779 194.101061 
L 191.697933 188.59938 
L 195.828806 180.748309 
L 199.959679 172.329163 
L 204.090551 163.377663 
L 208.221424 153.943848 
L 213.385015 141.573412 
L 219.581324 126.095174 
L 238.170251 79.100772 
L 242.301123 69.379764 
L 246.431996 60.226543 
L 249.53015 53.818823 
L 252.628305 47.866581 
L 255.726459 42.424085 
L 258.824614 37.541984 
L 260.89005 34.621625 
L 262.955486 31.983459 
L 265.020923 29.638848 
L 267.086359 27.597972 
L 269.151795 25.86975 
L 271.217232 24.461781 
L 273.282668 23.380284 
L 275.348104 22.630055 
L 277.413541 22.214428 
L 279.478977 22.135255 
L 281.544413 22.392888 
L 283.60985 22.986179 
L 285.675286 23.912489 
L 287.740722 25.167705 
L 289.806159 26.746271 
L 291.871595 28.641231 
L 293.937031 30.84428 
L 296.002468 33.34582 
L 298.067904 36.135035 
L 300.13334 39.199969 
L 303.231495 44.285603 
L 306.329649 49.914199 
L 309.427804 56.033738 
L 312.525958 62.588869 
L 316.656831 71.906386 
L 320.787703 81.75393 
L 326.984012 97.206529 
L 345.572939 144.242977 
L 350.73653 156.487397 
L 354.867403 165.799098 
L 358.998275 174.613798 
L 363.129148 182.88531 
L 367.260021 190.58159 
L 371.390893 197.68388 
L 374.489048 202.616398 
L 377.587202 207.212133 
L 380.685357 211.475441 
L 383.783511 215.413396 
L 386.881666 219.035422 
L 389.97982 222.352928 
L 393.077974 225.378947 
L 396.176129 228.127792 
L 399.274283 230.614731 
L 402.372438 232.85568 
L 405.470592 234.866929 
L 408.568747 236.664891 
L 412.69962 238.758554 
L 416.830492 240.539813 
L 420.961365 242.044907 
L 425.092237 243.308015 
L 429.22311 244.360895 
L 434.386701 245.425449 
L 439.550292 246.25759 
L 445.746601 247.010923 
L 452.975628 247.631009 
L 461.237373 248.095025 
L 471.564555 248.434708 
L 472.597273 248.458384 
L 472.597273 248.458384 
" clip-path="url(#p4061347e93)" style="fill: none; stroke: #8dd3c7; stroke-width: 1.5; stroke-linecap: square"/>
   </g>
   <g id="patch_3">
    <path d="M 39.94 260.12 
L 39.94 10.8 
" style="fill: none; stroke: #ffffff; stroke-width: 0.8; stroke-linejoin: miter; stroke-linecap: square"/>
   </g>
   <g id="patch_4">
    <path d="M 493.2 260.12 
L 493.2 10.8 
" style="fill: none; stroke: #ffffff; stroke-width: 0.8; stroke-linejoin: miter; stroke-linecap: square"/>
   </g>
   <g id="patch_5">
    <path d="M 39.94 260.12 
L 493.2 260.12 
" style="fill: none; stroke: #ffffff; stroke-width: 0.8; stroke-linejoin: miter; stroke-linecap: square"/>
   </g>
   <g id="patch_6">
    <path d="M 39.94 10.8 
L 493.2 10.8 
" style="fill: none; stroke: #ffffff; stroke-width: 0.8; stroke-linejoin: miter; stroke-linecap: square"/>
   </g>
   <g id="legend_1">
    <g id="patch_7">
     <path d="M 426.7375 62.834375 
L 486.2 62.834375 
Q 488.2 62.834375 488.2 60.834375 
L 488.2 17.8 
Q 488.2 15.8 486.2 15.8 
L 426.7375 15.8 
Q 424.7375 15.8 424.7375 17.8 
L 424.7375 60.834375 
Q 424.7375 62.834375 426.7375 62.834375 
z
" style="opacity: 0.8; stroke: #cccccc; stroke-linejoin: miter"/>
    </g>
    <g id="line2d_14">
     <path d="M 428.7375 23.898438 
L 438.7375 23.898438 
L 448.7375 23.898438 
" style="fill: none; stroke: #8dd3c7; stroke-width: 1.5; stroke-linecap: square"/>
    </g>
    <g id="text_13">
     <!-- Value -->
     <g style="fill: #ffffff" transform="translate(456.7375 27.398438) scale(0.1 -0.1)">
      <defs>
       <path id="DejaVuSans-56" d="M 1831 0 
L 50 4666 
L 709 4666 
L 2188 738 
L 3669 4666 
L 4325 4666 
L 2547 0 
L 1831 0 
z
" transform="scale(0.015625)"/>
       <path id="DejaVuSans-61" d="M 2194 1759 
Q 1497 1759 1228 1600 
Q 959 1441 959 1056 
Q 959 750 1161 570 
Q 1363 391 1709 391 
Q 2188 391 2477 730 
Q 2766 1069 2766 1631 
L 2766 1759 
L 2194 1759 
z
M 3341 1997 
L 3341 0 
L 2766 0 
L 2766 531 
Q 2569 213 2275 61 
Q 1981 -91 1556 -91 
Q 1019 -91 701 211 
Q 384 513 384 1019 
Q 384 1609 779 1909 
Q 1175 2209 1959 2209 
L 2766 2209 
L 2766 2266 
Q 2766 2663 2505 2880 
Q 2244 3097 1772 3097 
Q 1472 3097 1187 3025 
Q 903 2953 641 2809 
L 641 3341 
Q 956 3463 1253 3523 
Q 1550 3584 1831 3584 
Q 2591 3584 2966 3190 
Q 3341 2797 3341 1997 
z
" transform="scale(0.015625)"/>
       <path id="DejaVuSans-6c" d="M 603 4863 
L 1178 4863 
L 1178 0 
L 603 0 
L 603 4863 
z
" transform="scale(0.015625)"/>
       <path id="DejaVuSans-75" d="M 544 1381 
L 544 3500 
L 1119 3500 
L 1119 1403 
Q 1119 906 1312 657 
Q 1506 409 1894 409 
Q 2359 409 2629 706 
Q 2900 1003 2900 1516 
L 2900 3500 
L 3475 3500 
L 3475 0 
L 2900 0 
L 2900 538 
Q 2691 219 2414 64 
Q 2138 -91 1772 -91 
Q 1169 -91 856 284 
Q 544 659 544 1381 
z
M 1991 3584 
L 1991 3584 
z
" transform="scale(0.015625)"/>
       <path id="DejaVuSans-65" d="M 3597 1894 
L 3597 1613 
L 953 1613 
Q 991 1019 1311 708 
Q 1631 397 2203 397 
Q 2534 397 2845 478 
Q 3156 559 3463 722 
L 3463 178 
Q 3153 47 2828 -22 
Q 2503 -91 2169 -91 
Q 1331 -91 842 396 
Q 353 884 353 1716 
Q 353 2575 817 3079 
Q 1281 3584 2069 3584 
Q 2775 3584 3186 3129 
Q 3597 2675 3597 1894 
z
M 3022 2063 
Q 3016 2534 2758 2815 
Q 2500 3097 2075 3097 
Q 1594 3097 1305 2825 
Q 1016 2553 972 2059 
L 3022 2063 
z
" transform="scale(0.015625)"/>
      </defs>
      <use xlink:href="#DejaVuSans-56"/>
      <use xlink:href="#DejaVuSans-61" transform="translate(60.658203 0)"/>
      <use xlink:href="#DejaVuSans-6c" transform="translate(121.9375 0)"/>
      <use xlink:href="#DejaVuSans-75" transform="translate(149.720703 0)"/>
      <use xlink:href="#DejaVuSans-65" transform="translate(213.099609 0)"/>
     </g>
    </g>
    <g id="patch_8">
     <path d="M 428.7375 42.076562 
L 448.7375 42.076562 
L 448.7375 35.076562 
L 428.7375 35.076562 
z
" style="fill: #8dd3c7; fill-opacity: 0.5; stroke: #8dd3c7; stroke-opacity: 0.5; stroke-linejoin: miter"/>
    </g>
    <g id="text_14">
     <!-- $V&gt;0$ -->
     <g style="fill: #ffffff" transform="translate(456.7375 42.076562) scale(0.1 -0.1)">
      <defs>
       <path id="DejaVuSans-Oblique-56" d="M 1319 0 
L 500 4666 
L 1119 4666 
L 1797 653 
L 4063 4666 
L 4750 4666 
L 2053 0 
L 1319 0 
z
" transform="scale(0.015625)"/>
       <path id="DejaVuSans-3e" d="M 678 3150 
L 678 3719 
L 4684 2266 
L 4684 1747 
L 678 294 
L 678 863 
L 3897 2003 
L 678 3150 
z
" transform="scale(0.015625)"/>
      </defs>
      <use xlink:href="#DejaVuSans-Oblique-56" transform="translate(0 0.78125)"/>
      <use xlink:href="#DejaVuSans-3e" transform="translate(87.890625 0.78125)"/>
      <use xlink:href="#DejaVuSans-30" transform="translate(191.162109 0.78125)"/>
     </g>
    </g>
    <g id="patch_9">
     <path d="M 428.7375 56.754687 
L 448.7375 56.754687 
L 448.7375 49.754687 
L 428.7375 49.754687 
z
" style="fill: #fa8174; fill-opacity: 0.5; stroke: #fa8174; stroke-opacity: 0.5; stroke-linejoin: miter"/>
    </g>
    <g id="text_15">
     <!-- $V&lt;0$ -->
     <g style="fill: #ffffff" transform="translate(456.7375 56.754687) scale(0.1 -0.1)">
      <defs>
       <path id="DejaVuSans-3c" d="M 4684 3150 
L 1459 2003 
L 4684 863 
L 4684 294 
L 678 1747 
L 678 2266 
L 4684 3719 
L 4684 3150 
z
" transform="scale(0.015625)"/>
      </defs>
      <use xlink:href="#DejaVuSans-Oblique-56" transform="translate(0 0.78125)"/>
      <use xlink:href="#DejaVuSans-3c" transform="translate(87.890625 0.78125)"/>
      <use xlink:href="#DejaVuSans-30" transform="translate(191.162109 0.78125)"/>
     </g>
    </g>
   </g>
  </g>
 </g>
 <defs>
  <clipPath id="p4061347e93">
   <rect x="39.94" y="10.8" width="453.26" height="249.32"/>
  </clipPath>
 </defs>
</svg>
