<?xml version="1.0" encoding="utf-8" standalone="no"?>
<!DOCTYPE svg PUBLIC "-//W3C//DTD SVG 1.1//EN"
  "http://www.w3.org/Graphics/SVG/1.1/DTD/svg11.dtd">
<svg xmlns:xlink="http://www.w3.org/1999/xlink" width="504pt" height="288pt" viewBox="0 0 504 288" xmlns="http://www.w3.org/2000/svg" version="1.1">
 <metadata>
  <rdf:RDF xmlns:dc="http://purl.org/dc/elements/1.1/" xmlns:cc="http://creativecommons.org/ns#" xmlns:rdf="http://www.w3.org/1999/02/22-rdf-syntax-ns#">
   <cc:Work>
    <dc:type rdf:resource="http://purl.org/dc/dcmitype/StillImage"/>
    <dc:date>2026-04-13T22:49:18.923089</dc:date>
    <dc:format>image/svg+xml</dc:format>
    <dc:creator>
     <cc:Agent>
      <dc:title>Matplotlib v3.10.8, https://matplotlib.org/</dc:title>
     </cc:Agent>
    </dc:creator>
   </cc:Work>
  </rdf:RDF>
 </metadata>
 <defs>
  <style type="text/css">*{stroke-linejoin: round; stroke-linecap: butt}</style>
 </defs>
 <g id="figure_1">
  <g id="patch_1">
   <path d="M 0 288 
L 504 288 
L 504 0 
L 0 0 
L 0 288 
z
" style="fill: none"/>
  </g>
  <g id="axes_1">
   <g id="patch_2">
    <path d="M 39.94 260.12 
L 493.2 260.12 
L 493.2 10.8 
L 39.94 10.8 
L 39.94 260.12 
z
" style="fill: none"/>
   </g>
   <g id="FillBetweenPolyCollection_1">
    <defs>
     <path id="m34e2c0fab5" d="M 60.542727 -39.212727 
L 60.542727 -39.213572 
L 61.575445 -39.213684 
L 62.608164 -39.213811 
L 63.640882 -39.213954 
L 64.6736 -39.214115 
L 65.706318 -39.214296 
L 66.739036 -39.214499 
L 67.771754 -39.214727 
L 68.804473 -39.214983 
L 69.837191 -39.215271 
L 70.869909 -39.215593 
L 71.902627 -39.215955 
L 72.935345 -39.216359 
L 73.968063 -39.216812 
L 75.000781 -39.217318 
L 76.0335 -39.217884 
L 77.066218 -39.218516 
L 78.098936 -39.219221 
L 79.131654 -39.220007 
L 80.164372 -39.220884 
L 81.19709 -39.22186 
L 82.229809 -39.222947 
L 83.262527 -39.224156 
L 84.295245 -39.2255 
L 85.327963 -39.226993 
L 86.360681 -39.228651 
L 87.393399 -39.23049 
L 88.426118 -39.232529 
L 89.458836 -39.234788 
L 90.491554 -39.23729 
L 91.524272 -39.240058 
L 92.55699 -39.243118 
L 93.589708 -39.246501 
L 94.622427 -39.250236 
L 95.655145 -39.254358 
L 96.687863 -39.258905 
L 97.720581 -39.263915 
L 98.753299 -39.269434 
L 99.786017 -39.275508 
L 100.818735 -39.282189 
L 101.851454 -39.289533 
L 102.884172 -39.2976 
L 103.91689 -39.306456 
L 104.949608 -39.31617 
L 105.982326 -39.32682 
L 107.015044 -39.338487 
L 108.047763 -39.35126 
L 109.080481 -39.365234 
L 110.113199 -39.380513 
L 111.145917 -39.397206 
L 112.178635 -39.415433 
L 113.211353 -39.435321 
L 114.244072 -39.457006 
L 115.27679 -39.480636 
L 116.309508 -39.506367 
L 117.342226 -39.534368 
L 118.374944 -39.564817 
L 119.407662 -39.597907 
L 120.44038 -39.633842 
L 121.473099 -39.67284 
L 122.505817 -39.715135 
L 123.538535 -39.760972 
L 124.571253 -39.810617 
L 125.603971 -39.864346 
L 126.636689 -39.922459 
L 127.669408 -39.985268 
L 128.702126 -40.053109 
L 129.734844 -40.126332 
L 130.767562 -40.205312 
L 131.80028 -40.290442 
L 132.832998 -40.382138 
L 133.865717 -40.48084 
L 134.898435 -40.587009 
L 135.931153 -40.701132 
L 136.963871 -40.823719 
L 137.996589 -40.955308 
L 139.029307 -41.096462 
L 140.062026 -41.24777 
L 141.094744 -41.409852 
L 142.127462 -41.583354 
L 143.16018 -41.76895 
L 144.192898 -41.967345 
L 145.225616 -42.179275 
L 146.258334 -42.405504 
L 147.291053 -42.646827 
L 148.323771 -42.904071 
L 149.356489 -43.178093 
L 150.389207 -43.469782 
L 151.421925 -43.780058 
L 152.454643 -44.109871 
L 153.487362 -44.460203 
L 154.52008 -44.832066 
L 155.552798 -45.226503 
L 156.585516 -45.644585 
L 157.618234 -46.087413 
L 158.650952 -46.556115 
L 159.683671 -47.051847 
L 160.716389 -47.575789 
L 161.749107 -48.129148 
L 162.781825 -48.713151 
L 163.814543 -49.329048 
L 164.847261 -49.978109 
L 165.879979 -50.66162 
L 166.912698 -51.380882 
L 167.945416 -52.13721 
L 168.978134 -52.931929 
L 170.010852 -53.766369 
L 171.04357 -54.641868 
L 172.076288 -55.559763 
L 173.109007 -56.521388 
L 174.141725 -57.528074 
L 175.174443 -58.581139 
L 176.207161 -59.681891 
L 177.239879 -60.831616 
L 178.272597 -62.031583 
L 179.305316 -63.283029 
L 180.338034 -64.587165 
L 181.370752 -65.945163 
L 182.40347 -67.358153 
L 183.436188 -68.827222 
L 184.468906 -70.353403 
L 185.501625 -71.937674 
L 186.534343 -73.580949 
L 187.567061 -75.284076 
L 188.599779 -77.047828 
L 189.632497 -78.872902 
L 190.665215 -80.759907 
L 191.697933 -82.709365 
L 192.730652 -84.721699 
L 193.76337 -86.797233 
L 194.796088 -88.936183 
L 195.828806 -91.138653 
L 196.861524 -93.40463 
L 197.894242 -95.733977 
L 198.926961 -98.126429 
L 199.959679 -100.581589 
L 200.992397 -103.098924 
L 202.025115 -105.677757 
L 203.057833 -108.317267 
L 204.090551 -111.016482 
L 205.12327 -113.774278 
L 206.155988 -116.589376 
L 207.188706 -119.460337 
L 208.221424 -122.38556 
L 209.254142 -125.363284 
L 210.28686 -128.391581 
L 211.319578 -131.468359 
L 212.352297 -134.59136 
L 213.385015 -137.75816 
L 214.417733 -140.966171 
L 215.450451 -144.212638 
L 216.483169 -147.494648 
L 217.515887 -150.809125 
L 218.548606 -154.152836 
L 219.581324 -157.522395 
L 220.614042 -160.914266 
L 221.64676 -164.324768 
L 222.679478 -167.750079 
L 223.712196 -171.186246 
L 224.744915 -174.629183 
L 225.777633 -178.074689 
L 226.810351 -181.518446 
L 227.843069 -184.956033 
L 228.875787 -188.38293 
L 229.908505 -191.794532 
L 230.941224 -195.186156 
L 231.973942 -198.55305 
L 233.00666 -201.890408 
L 234.039378 -205.193375 
L 235.072096 -208.457062 
L 236.104814 -211.676559 
L 237.137532 -214.846942 
L 238.170251 -217.963291 
L 239.202969 -221.020699 
L 240.235687 -224.014285 
L 241.268405 -226.939206 
L 242.301123 -229.790675 
L 243.333841 -232.563967 
L 244.36656 -235.254437 
L 245.399278 -237.857529 
L 246.431996 -240.368792 
L 247.464714 -242.783892 
L 248.497432 -245.098622 
L 249.53015 -247.308919 
L 250.562869 -249.41087 
L 251.595587 -251.400727 
L 252.628305 -253.274919 
L 253.661023 -255.030059 
L 254.693741 -256.662959 
L 255.726459 -258.170635 
L 256.759177 -259.550319 
L 257.791896 -260.799466 
L 258.824614 -261.915762 
L 259.857332 -262.897134 
L 260.89005 -263.741751 
L 261.922768 -264.448034 
L 262.955486 -265.01466 
L 263.988205 -265.440565 
L 265.020923 -265.724947 
L 266.053641 -265.867273 
L 267.086359 -265.867273 
L 268.119077 -265.724947 
L 269.151795 -265.440565 
L 270.184514 -265.01466 
L 271.217232 -264.448034 
L 272.24995 -263.741751 
L 273.282668 -262.897134 
L 274.315386 -261.915762 
L 275.348104 -260.799466 
L 276.380823 -259.550319 
L 277.413541 -258.170635 
L 278.446259 -256.662959 
L 279.478977 -255.030059 
L 280.511695 -253.274919 
L 281.544413 -251.400727 
L 282.577131 -249.41087 
L 283.60985 -247.308919 
L 284.642568 -245.098622 
L 285.675286 -242.783892 
L 286.708004 -240.368792 
L 287.740722 -237.857529 
L 288.77344 -235.254437 
L 289.806159 -232.563967 
L 290.838877 -229.790675 
L 291.871595 -226.939206 
L 292.904313 -224.014285 
L 293.937031 -221.020699 
L 294.969749 -217.963291 
L 296.002468 -214.846942 
L 297.035186 -211.676559 
L 298.067904 -208.457062 
L 299.100622 -205.193375 
L 300.13334 -201.890408 
L 301.166058 -198.55305 
L 302.198776 -195.186156 
L 303.231495 -191.794532 
L 304.264213 -188.38293 
L 305.296931 -184.956033 
L 306.329649 -181.518446 
L 307.362367 -178.074689 
L 308.395085 -174.629183 
L 309.427804 -171.186246 
L 310.460522 -167.750079 
L 311.49324 -164.324768 
L 312.525958 -160.914266 
L 313.558676 -157.522395 
L 314.591394 -154.152836 
L 315.624113 -150.809125 
L 316.656831 -147.494648 
L 317.689549 -144.212638 
L 318.722267 -140.966171 
L 319.754985 -137.75816 
L 320.787703 -134.59136 
L 321.820422 -131.468359 
L 322.85314 -128.391581 
L 323.885858 -125.363284 
L 324.918576 -122.38556 
L 325.951294 -119.460337 
L 326.984012 -116.589376 
L 328.01673 -113.774278 
L 329.049449 -111.016482 
L 330.082167 -108.317267 
L 331.114885 -105.677757 
L 332.147603 -103.098924 
L 333.180321 -100.581589 
L 334.213039 -98.126429 
L 335.245758 -95.733977 
L 336.278476 -93.40463 
L 337.311194 -91.138653 
L 338.343912 -88.936183 
L 339.37663 -86.797233 
L 340.409348 -84.721699 
L 341.442067 -82.709365 
L 342.474785 -80.759907 
L 343.507503 -78.872902 
L 344.540221 -77.047828 
L 345.572939 -75.284076 
L 346.605657 -73.580949 
L 347.638375 -71.937674 
L 348.671094 -70.353403 
L 349.703812 -68.827222 
L 350.73653 -67.358153 
L 351.769248 -65.945163 
L 352.801966 -64.587165 
L 353.834684 -63.283029 
L 354.867403 -62.031583 
L 355.900121 -60.831616 
L 356.932839 -59.681891 
L 357.965557 -58.581139 
L 358.998275 -57.528074 
L 360.030993 -56.521388 
L 361.063712 -55.559763 
L 362.09643 -54.641868 
L 363.129148 -53.766369 
L 364.161866 -52.931929 
L 365.194584 -52.13721 
L 366.227302 -51.380882 
L 367.260021 -50.66162 
L 368.292739 -49.978109 
L 369.325457 -49.329048 
L 370.358175 -48.713151 
L 371.390893 -48.129148 
L 372.423611 -47.575789 
L 373.456329 -47.051847 
L 374.489048 -46.556115 
L 375.521766 -46.087413 
L 376.554484 -45.644585 
L 377.587202 -45.226503 
L 378.61992 -44.832066 
L 379.652638 -44.460203 
L 380.685357 -44.109871 
L 381.718075 -43.780058 
L 382.750793 -43.469782 
L 383.783511 -43.178093 
L 384.816229 -42.904071 
L 385.848947 -42.646827 
L 386.881666 -42.405504 
L 387.914384 -42.179275 
L 388.947102 -41.967345 
L 389.97982 -41.76895 
L 391.012538 -41.583354 
L 392.045256 -41.409852 
L 393.077974 -41.24777 
L 394.110693 -41.096462 
L 395.143411 -40.955308 
L 396.176129 -40.823719 
L 397.208847 -40.701132 
L 398.241565 -40.587009 
L 399.274283 -40.48084 
L 400.307002 -40.382138 
L 401.33972 -40.290442 
L 402.372438 -40.205312 
L 403.405156 -40.126332 
L 404.437874 -40.053109 
L 405.470592 -39.985268 
L 406.503311 -39.922459 
L 407.536029 -39.864346 
L 408.568747 -39.810617 
L 409.601465 -39.760972 
L 410.634183 -39.715135 
L 411.666901 -39.67284 
L 412.69962 -39.633842 
L 413.732338 -39.597907 
L 414.765056 -39.564817 
L 415.797774 -39.534368 
L 416.830492 -39.506367 
L 417.86321 -39.480636 
L 418.895928 -39.457006 
L 419.928647 -39.435321 
L 420.961365 -39.415433 
L 421.994083 -39.397206 
L 423.026801 -39.380513 
L 424.059519 -39.365234 
L 425.092237 -39.35126 
L 426.124956 -39.338487 
L 427.157674 -39.32682 
L 428.190392 -39.31617 
L 429.22311 -39.306456 
L 430.255828 -39.2976 
L 431.288546 -39.289533 
L 432.321265 -39.282189 
L 433.353983 -39.275508 
L 434.386701 -39.269434 
L 435.419419 -39.263915 
L 436.452137 -39.258905 
L 437.484855 -39.254358 
L 438.517573 -39.250236 
L 439.550292 -39.246501 
L 440.58301 -39.243118 
L 441.615728 -39.240058 
L 442.648446 -39.23729 
L 443.681164 -39.234788 
L 444.713882 -39.232529 
L 445.746601 -39.23049 
L 446.779319 -39.228651 
L 447.812037 -39.226993 
L 448.844755 -39.2255 
L 449.877473 -39.224156 
L 450.910191 -39.222947 
L 451.94291 -39.22186 
L 452.975628 -39.220884 
L 454.008346 -39.220007 
L 455.041064 -39.219221 
L 456.073782 -39.218516 
L 457.1065 -39.217884 
L 458.139219 -39.217318 
L 459.171937 -39.216812 
L 460.204655 -39.216359 
L 461.237373 -39.215955 
L 462.270091 -39.215593 
L 463.302809 -39.215271 
L 464.335527 -39.214983 
L 465.368246 -39.214727 
L 466.400964 -39.214499 
L 467.433682 -39.214296 
L 468.4664 -39.214115 
L 469.499118 -39.213954 
L 470.531836 -39.213811 
L 471.564555 -39.213684 
L 472.597273 -39.213572 
L 472.597273 -39.212727 
L 472.597273 -39.212727 
L 471.564555 -39.212727 
L 470.531836 -39.212727 
L 469.499118 -39.212727 
L 468.4664 -39.212727 
L 467.433682 -39.212727 
L 466.400964 -39.212727 
L 465.368246 -39.212727 
L 464.335527 -39.212727 
L 463.302809 -39.212727 
L 462.270091 -39.212727 
L 461.237373 -39.212727 
L 460.204655 -39.212727 
L 459.171937 -39.212727 
L 458.139219 -39.212727 
L 457.1065 -39.212727 
L 456.073782 -39.212727 
L 455.041064 -39.212727 
L 454.008346 -39.212727 
L 452.975628 -39.212727 
L 451.94291 -39.212727 
L 450.910191 -39.212727 
L 449.877473 -39.212727 
L 448.844755 -39.212727 
L 447.812037 -39.212727 
L 446.779319 -39.212727 
L 445.746601 -39.212727 
L 444.713882 -39.212727 
L 443.681164 -39.212727 
L 442.648446 -39.212727 
L 441.615728 -39.212727 
L 440.58301 -39.212727 
L 439.550292 -39.212727 
L 438.517573 -39.212727 
L 437.484855 -39.212727 
L 436.452137 -39.212727 
L 435.419419 -39.212727 
L 434.386701 -39.212727 
L 433.353983 -39.212727 
L 432.321265 -39.212727 
L 431.288546 -39.212727 
L 430.255828 -39.212727 
L 429.22311 -39.212727 
L 428.190392 -39.212727 
L 427.157674 -39.212727 
L 426.124956 -39.212727 
L 425.092237 -39.212727 
L 424.059519 -39.212727 
L 423.026801 -39.212727 
L 421.994083 -39.212727 
L 420.961365 -39.212727 
L 419.928647 -39.212727 
L 418.895928 -39.212727 
L 417.86321 -39.212727 
L 416.830492 -39.212727 
L 415.797774 -39.212727 
L 414.765056 -39.212727 
L 413.732338 -39.212727 
L 412.69962 -39.212727 
L 411.666901 -39.212727 
L 410.634183 -39.212727 
L 409.601465 -39.212727 
L 408.568747 -39.212727 
L 407.536029 -39.212727 
L 406.503311 -39.212727 
L 405.470592 -39.212727 
L 404.437874 -39.212727 
L 403.405156 -39.212727 
L 402.372438 -39.212727 
L 401.33972 -39.212727 
L 400.307002 -39.212727 
L 399.274283 -39.212727 
L 398.241565 -39.212727 
L 397.208847 -39.212727 
L 396.176129 -39.212727 
L 395.143411 -39.212727 
L 394.110693 -39.212727 
L 393.077974 -39.212727 
L 392.045256 -39.212727 
L 391.012538 -39.212727 
L 389.97982 -39.212727 
L 388.947102 -39.212727 
L 387.914384 -39.212727 
L 386.881666 -39.212727 
L 385.848947 -39.212727 
L 384.816229 -39.212727 
L 383.783511 -39.212727 
L 382.750793 -39.212727 
L 381.718075 -39.212727 
L 380.685357 -39.212727 
L 379.652638 -39.212727 
L 378.61992 -39.212727 
L 377.587202 -39.212727 
L 376.554484 -39.212727 
L 375.521766 -39.212727 
L 374.489048 -39.212727 
L 373.456329 -39.212727 
L 372.423611 -39.212727 
L 371.390893 -39.212727 
L 370.358175 -39.212727 
L 369.325457 -39.212727 
L 368.292739 -39.212727 
L 367.260021 -39.212727 
L 366.227302 -39.212727 
L 365.194584 -39.212727 
L 364.161866 -39.212727 
L 363.129148 -39.212727 
L 362.09643 -39.212727 
L 361.063712 -39.212727 
L 360.030993 -39.212727 
L 358.998275 -39.212727 
L 357.965557 -39.212727 
L 356.932839 -39.212727 
L 355.900121 -39.212727 
L 354.867403 -39.212727 
L 353.834684 -39.212727 
L 352.801966 -39.212727 
L 351.769248 -39.212727 
L 350.73653 -39.212727 
L 349.703812 -39.212727 
L 348.671094 -39.212727 
L 347.638375 -39.212727 
L 346.605657 -39.212727 
L 345.572939 -39.212727 
L 344.540221 -39.212727 
L 343.507503 -39.212727 
L 342.474785 -39.212727 
L 341.442067 -39.212727 
L 340.409348 -39.212727 
L 339.37663 -39.212727 
L 338.343912 -39.212727 
L 337.311194 -39.212727 
L 336.278476 -39.212727 
L 335.245758 -39.212727 
L 334.213039 -39.212727 
L 333.180321 -39.212727 
L 332.147603 -39.212727 
L 331.114885 -39.212727 
L 330.082167 -39.212727 
L 329.049449 -39.212727 
L 328.01673 -39.212727 
L 326.984012 -39.212727 
L 325.951294 -39.212727 
L 324.918576 -39.212727 
L 323.885858 -39.212727 
L 322.85314 -39.212727 
L 321.820422 -39.212727 
L 320.787703 -39.212727 
L 319.754985 -39.212727 
L 318.722267 -39.212727 
L 317.689549 -39.212727 
L 316.656831 -39.212727 
L 315.624113 -39.212727 
L 314.591394 -39.212727 
L 313.558676 -39.212727 
L 312.525958 -39.212727 
L 311.49324 -39.212727 
L 310.460522 -39.212727 
L 309.427804 -39.212727 
L 308.395085 -39.212727 
L 307.362367 -39.212727 
L 306.329649 -39.212727 
L 305.296931 -39.212727 
L 304.264213 -39.212727 
L 303.231495 -39.212727 
L 302.198776 -39.212727 
L 301.166058 -39.212727 
L 300.13334 -39.212727 
L 299.100622 -39.212727 
L 298.067904 -39.212727 
L 297.035186 -39.212727 
L 296.002468 -39.212727 
L 294.969749 -39.212727 
L 293.937031 -39.212727 
L 292.904313 -39.212727 
L 291.871595 -39.212727 
L 290.838877 -39.212727 
L 289.806159 -39.212727 
L 288.77344 -39.212727 
L 287.740722 -39.212727 
L 286.708004 -39.212727 
L 285.675286 -39.212727 
L 284.642568 -39.212727 
L 283.60985 -39.212727 
L 282.577131 -39.212727 
L 281.544413 -39.212727 
L 280.511695 -39.212727 
L 279.478977 -39.212727 
L 278.446259 -39.212727 
L 277.413541 -39.212727 
L 276.380823 -39.212727 
L 275.348104 -39.212727 
L 274.315386 -39.212727 
L 273.282668 -39.212727 
L 272.24995 -39.212727 
L 271.217232 -39.212727 
L 270.184514 -39.212727 
L 269.151795 -39.212727 
L 268.119077 -39.212727 
L 267.086359 -39.212727 
L 266.053641 -39.212727 
L 265.020923 -39.212727 
L 263.988205 -39.212727 
L 262.955486 -39.212727 
L 261.922768 -39.212727 
L 260.89005 -39.212727 
L 259.857332 -39.212727 
L 258.824614 -39.212727 
L 257.791896 -39.212727 
L 256.759177 -39.212727 
L 255.726459 -39.212727 
L 254.693741 -39.212727 
L 253.661023 -39.212727 
L 252.628305 -39.212727 
L 251.595587 -39.212727 
L 250.562869 -39.212727 
L 249.53015 -39.212727 
L 248.497432 -39.212727 
L 247.464714 -39.212727 
L 246.431996 -39.212727 
L 245.399278 -39.212727 
L 244.36656 -39.212727 
L 243.333841 -39.212727 
L 242.301123 -39.212727 
L 241.268405 -39.212727 
L 240.235687 -39.212727 
L 239.202969 -39.212727 
L 238.170251 -39.212727 
L 237.137532 -39.212727 
L 236.104814 -39.212727 
L 235.072096 -39.212727 
L 234.039378 -39.212727 
L 233.00666 -39.212727 
L 231.973942 -39.212727 
L 230.941224 -39.212727 
L 229.908505 -39.212727 
L 228.875787 -39.212727 
L 227.843069 -39.212727 
L 226.810351 -39.212727 
L 225.777633 -39.212727 
L 224.744915 -39.212727 
L 223.712196 -39.212727 
L 222.679478 -39.212727 
L 221.64676 -39.212727 
L 220.614042 -39.212727 
L 219.581324 -39.212727 
L 218.548606 -39.212727 
L 217.515887 -39.212727 
L 216.483169 -39.212727 
L 215.450451 -39.212727 
L 214.417733 -39.212727 
L 213.385015 -39.212727 
L 212.352297 -39.212727 
L 211.319578 -39.212727 
L 210.28686 -39.212727 
L 209.254142 -39.212727 
L 208.221424 -39.212727 
L 207.188706 -39.212727 
L 206.155988 -39.212727 
L 205.12327 -39.212727 
L 204.090551 -39.212727 
L 203.057833 -39.212727 
L 202.025115 -39.212727 
L 200.992397 -39.212727 
L 199.959679 -39.212727 
L 198.926961 -39.212727 
L 197.894242 -39.212727 
L 196.861524 -39.212727 
L 195.828806 -39.212727 
L 194.796088 -39.212727 
L 193.76337 -39.212727 
L 192.730652 -39.212727 
L 191.697933 -39.212727 
L 190.665215 -39.212727 
L 189.632497 -39.212727 
L 188.599779 -39.212727 
L 187.567061 -39.212727 
L 186.534343 -39.212727 
L 185.501625 -39.212727 
L 184.468906 -39.212727 
L 183.436188 -39.212727 
L 182.40347 -39.212727 
L 181.370752 -39.212727 
L 180.338034 -39.212727 
L 179.305316 -39.212727 
L 178.272597 -39.212727 
L 177.239879 -39.212727 
L 176.207161 -39.212727 
L 175.174443 -39.212727 
L 174.141725 -39.212727 
L 173.109007 -39.212727 
L 172.076288 -39.212727 
L 171.04357 -39.212727 
L 170.010852 -39.212727 
L 168.978134 -39.212727 
L 167.945416 -39.212727 
L 166.912698 -39.212727 
L 165.879979 -39.212727 
L 164.847261 -39.212727 
L 163.814543 -39.212727 
L 162.781825 -39.212727 
L 161.749107 -39.212727 
L 160.716389 -39.212727 
L 159.683671 -39.212727 
L 158.650952 -39.212727 
L 157.618234 -39.212727 
L 156.585516 -39.212727 
L 155.552798 -39.212727 
L 154.52008 -39.212727 
L 153.487362 -39.212727 
L 152.454643 -39.212727 
L 151.421925 -39.212727 
L 150.389207 -39.212727 
L 149.356489 -39.212727 
L 148.323771 -39.212727 
L 147.291053 -39.212727 
L 146.258334 -39.212727 
L 145.225616 -39.212727 
L 144.192898 -39.212727 
L 143.16018 -39.212727 
L 142.127462 -39.212727 
L 141.094744 -39.212727 
L 140.062026 -39.212727 
L 139.029307 -39.212727 
L 137.996589 -39.212727 
L 136.963871 -39.212727 
L 135.931153 -39.212727 
L 134.898435 -39.212727 
L 133.865717 -39.212727 
L 132.832998 -39.212727 
L 131.80028 -39.212727 
L 130.767562 -39.212727 
L 129.734844 -39.212727 
L 128.702126 -39.212727 
L 127.669408 -39.212727 
L 126.636689 -39.212727 
L 125.603971 -39.212727 
L 124.571253 -39.212727 
L 123.538535 -39.212727 
L 122.505817 -39.212727 
L 121.473099 -39.212727 
L 120.44038 -39.212727 
L 119.407662 -39.212727 
L 118.374944 -39.212727 
L 117.342226 -39.212727 
L 116.309508 -39.212727 
L 115.27679 -39.212727 
L 114.244072 -39.212727 
L 113.211353 -39.212727 
L 112.178635 -39.212727 
L 111.145917 -39.212727 
L 110.113199 -39.212727 
L 109.080481 -39.212727 
L 108.047763 -39.212727 
L 107.015044 -39.212727 
L 105.982326 -39.212727 
L 104.949608 -39.212727 
L 103.91689 -39.212727 
L 102.884172 -39.212727 
L 101.851454 -39.212727 
L 100.818735 -39.212727 
L 99.786017 -39.212727 
L 98.753299 -39.212727 
L 97.720581 -39.212727 
L 96.687863 -39.212727 
L 95.655145 -39.212727 
L 94.622427 -39.212727 
L 93.589708 -39.212727 
L 92.55699 -39.212727 
L 91.524272 -39.212727 
L 90.491554 -39.212727 
L 89.458836 -39.212727 
L 88.426118 -39.212727 
L 87.393399 -39.212727 
L 86.360681 -39.212727 
L 85.327963 -39.212727 
L 84.295245 -39.212727 
L 83.262527 -39.212727 
L 82.229809 -39.212727 
L 81.19709 -39.212727 
L 80.164372 -39.212727 
L 79.131654 -39.212727 
L 78.098936 -39.212727 
L 77.066218 -39.212727 
L 76.0335 -39.212727 
L 75.000781 -39.212727 
L 73.968063 -39.212727 
L 72.935345 -39.212727 
L 71.902627 -39.212727 
L 70.869909 -39.212727 
L 69.837191 -39.212727 
L 68.804473 -39.212727 
L 67.771754 -39.212727 
L 66.739036 -39.212727 
L 65.706318 -39.212727 
L 64.6736 -39.212727 
L 63.640882 -39.212727 
L 62.608164 -39.212727 
L 61.575445 -39.212727 
L 60.542727 -39.212727 
z
" style="stroke: #8dd3c7; stroke-opacity: 0.5"/>
    </defs>
    <g clip-path="url(#pf2d4560689)">
     <use xlink:href="#m34e2c0fab5" x="0" y="288" style="fill: #8dd3c7; fill-opacity: 0.5; stroke: #8dd3c7; stroke-opacity: 0.5"/>
    </g>
   </g>
   <g id="FillBetweenPolyCollection_2">
    <defs>
     <path id="m8768835c72" d="M 60.542727 -39.212727 
L 60.542727 -39.213495 
L 61.575445 -39.213588 
L 62.608164 -39.213691 
L 63.640882 -39.213806 
L 64.6736 -39.213933 
L 65.706318 -39.214076 
L 66.739036 -39.214234 
L 67.771754 -39.21441 
L 68.804473 -39.214606 
L 69.837191 -39.214824 
L 70.869909 -39.215065 
L 71.902627 -39.215333 
L 72.935345 -39.21563 
L 73.968063 -39.215959 
L 75.000781 -39.216324 
L 76.0335 -39.216728 
L 77.066218 -39.217174 
L 78.098936 -39.217668 
L 79.131654 -39.218215 
L 80.164372 -39.218818 
L 81.19709 -39.219484 
L 82.229809 -39.220219 
L 83.262527 -39.22103 
L 84.295245 -39.221924 
L 85.327963 -39.222909 
L 86.360681 -39.223993 
L 87.393399 -39.225186 
L 88.426118 -39.226499 
L 89.458836 -39.227942 
L 90.491554 -39.229527 
L 91.524272 -39.231268 
L 92.55699 -39.233179 
L 93.589708 -39.235275 
L 94.622427 -39.237573 
L 95.655145 -39.240091 
L 96.687863 -39.242848 
L 97.720581 -39.245867 
L 98.753299 -39.249168 
L 99.786017 -39.252778 
L 100.818735 -39.256723 
L 101.851454 -39.261031 
L 102.884172 -39.265733 
L 103.91689 -39.270863 
L 104.949608 -39.276456 
L 105.982326 -39.282551 
L 107.015044 -39.289189 
L 108.047763 -39.296415 
L 109.080481 -39.304276 
L 110.113199 -39.312824 
L 111.145917 -39.322113 
L 112.178635 -39.332202 
L 113.211353 -39.343154 
L 114.244072 -39.355036 
L 115.27679 -39.36792 
L 116.309508 -39.381882 
L 117.342226 -39.397005 
L 118.374944 -39.413376 
L 119.407662 -39.431087 
L 120.44038 -39.450239 
L 121.473099 -39.470936 
L 122.505817 -39.493291 
L 123.538535 -39.517424 
L 124.571253 -39.54346 
L 125.603971 -39.571535 
L 126.636689 -39.601792 
L 127.669408 -39.63438 
L 128.702126 -39.669461 
L 129.734844 -39.707204 
L 130.767562 -39.747789 
L 131.80028 -39.791403 
L 132.832998 -39.838248 
L 133.865717 -39.888535 
L 134.898435 -39.942485 
L 135.931153 -40.000333 
L 136.963871 -40.062325 
L 137.996589 -40.128721 
L 139.029307 -40.199793 
L 140.062026 -40.275828 
L 141.094744 -40.357126 
L 142.127462 -40.444001 
L 143.16018 -40.536784 
L 144.192898 -40.63582 
L 145.225616 -40.741469 
L 146.258334 -40.85411 
L 147.291053 -40.974135 
L 148.323771 -41.101956 
L 149.356489 -41.238002 
L 150.389207 -41.382717 
L 151.421925 -41.536566 
L 152.454643 -41.700031 
L 153.487362 -41.873613 
L 154.52008 -42.057832 
L 155.552798 -42.253226 
L 156.585516 -42.460352 
L 157.618234 -42.679788 
L 158.650952 -42.91213 
L 159.683671 -43.157994 
L 160.716389 -43.418014 
L 161.749107 -43.692845 
L 162.781825 -43.98316 
L 163.814543 -44.289651 
L 164.847261 -44.61303 
L 165.879979 -44.954026 
L 166.912698 -45.313385 
L 167.945416 -45.691874 
L 168.978134 -46.090272 
L 170.010852 -46.509379 
L 171.04357 -46.950009 
L 172.076288 -47.412988 
L 173.109007 -47.899161 
L 174.141725 -48.409383 
L 175.174443 -48.94452 
L 176.207161 -49.505452 
L 177.239879 -50.093066 
L 178.272597 -50.708257 
L 179.305316 -51.351929 
L 180.338034 -52.024989 
L 181.370752 -52.728349 
L 182.40347 -53.462923 
L 183.436188 -54.229622 
L 184.468906 -55.02936 
L 185.501625 -55.863042 
L 186.534343 -56.731571 
L 187.567061 -57.635838 
L 188.599779 -58.576725 
L 189.632497 -59.555102 
L 190.665215 -60.571821 
L 191.697933 -61.627717 
L 192.730652 -62.723603 
L 193.76337 -63.860269 
L 194.796088 -65.038479 
L 195.828806 -66.258967 
L 196.861524 -67.522433 
L 197.894242 -68.829543 
L 198.926961 -70.180924 
L 199.959679 -71.577162 
L 200.992397 -73.018797 
L 202.025115 -74.506321 
L 203.057833 -76.040176 
L 204.090551 -77.620748 
L 205.12327 -79.248368 
L 206.155988 -80.923302 
L 207.188706 -82.645757 
L 208.221424 -84.415869 
L 209.254142 -86.233705 
L 210.28686 -88.099261 
L 211.319578 -90.012455 
L 212.352297 -91.973127 
L 213.385015 -93.981034 
L 214.417733 -96.03585 
L 215.450451 -98.137163 
L 216.483169 -100.28447 
L 217.515887 -102.477178 
L 218.548606 -104.714601 
L 219.581324 -106.995955 
L 220.614042 -109.320363 
L 221.64676 -111.686847 
L 222.679478 -114.094328 
L 223.712196 -116.541629 
L 224.744915 -119.027469 
L 225.777633 -121.550465 
L 226.810351 -124.109131 
L 227.843069 -126.70188 
L 228.875787 -129.327019 
L 229.908505 -131.982755 
L 230.941224 -134.667192 
L 231.973942 -137.378334 
L 233.00666 -140.114086 
L 234.039378 -142.872253 
L 235.072096 -145.650548 
L 236.104814 -148.446586 
L 237.137532 -151.257894 
L 238.170251 -154.081909 
L 239.202969 -156.915983 
L 240.235687 -159.757386 
L 241.268405 -162.603311 
L 242.301123 -165.450875 
L 243.333841 -168.297126 
L 244.36656 -171.139046 
L 245.399278 -173.97356 
L 246.431996 -176.797532 
L 247.464714 -179.607782 
L 248.497432 -182.40108 
L 249.53015 -185.174163 
L 250.562869 -187.923732 
L 251.595587 -190.646464 
L 252.628305 -193.339015 
L 253.661023 -195.998029 
L 254.693741 -198.620143 
L 255.726459 -201.201996 
L 256.759177 -203.740235 
L 257.791896 -206.23152 
L 258.824614 -208.672535 
L 259.857332 -211.059993 
L 260.89005 -213.390645 
L 261.922768 -215.661283 
L 262.955486 -217.868755 
L 263.988205 -220.009963 
L 265.020923 -222.081877 
L 266.053641 -224.081541 
L 267.086359 -226.006078 
L 268.119077 -227.852697 
L 269.151795 -229.618703 
L 270.184514 -231.301498 
L 271.217232 -232.898592 
L 272.24995 -234.40761 
L 273.282668 -235.826292 
L 274.315386 -237.152503 
L 275.348104 -238.384239 
L 276.380823 -239.519629 
L 277.413541 -240.556942 
L 278.446259 -241.494591 
L 279.478977 -242.331136 
L 280.511695 -243.065289 
L 281.544413 -243.695917 
L 282.577131 -244.222043 
L 283.60985 -244.642852 
L 284.642568 -244.95769 
L 285.675286 -245.166068 
L 286.708004 -245.267662 
L 287.740722 -245.262314 
L 288.77344 -245.150032 
L 289.806159 -244.93099 
L 290.838877 -244.60553 
L 291.871595 -244.174157 
L 292.904313 -243.637542 
L 293.937031 -242.996515 
L 294.969749 -242.252069 
L 296.002468 -241.405353 
L 297.035186 -240.457671 
L 298.067904 -239.410476 
L 299.100622 -238.265371 
L 300.13334 -237.024101 
L 301.166058 -235.68855 
L 302.198776 -234.260737 
L 303.231495 -232.742808 
L 304.264213 -231.137034 
L 305.296931 -229.445804 
L 306.329649 -227.671619 
L 307.362367 -225.817085 
L 308.395085 -223.884909 
L 309.427804 -221.877889 
L 310.460522 -219.79891 
L 311.49324 -217.650939 
L 312.525958 -215.437011 
L 313.558676 -213.160228 
L 314.591394 -210.82375 
L 315.624113 -208.430789 
L 316.656831 -205.984599 
L 317.689549 -203.488469 
L 318.722267 -200.945718 
L 319.754985 -198.359688 
L 320.787703 -195.733732 
L 321.820422 -193.071214 
L 322.85314 -190.375494 
L 323.885858 -187.649928 
L 324.918576 -184.897858 
L 325.951294 -182.122606 
L 326.984012 -179.327466 
L 328.01673 -176.5157 
L 329.049449 -173.690531 
L 330.082167 -170.855136 
L 331.114885 -168.012645 
L 332.147603 -165.166128 
L 333.180321 -162.318597 
L 334.213039 -159.472996 
L 335.245758 -156.6322 
L 336.278476 -153.799011 
L 337.311194 -150.976149 
L 338.343912 -148.166254 
L 339.37663 -145.37188 
L 340.409348 -142.595492 
L 341.442067 -139.839465 
L 342.474785 -137.106077 
L 343.507503 -134.397513 
L 344.540221 -131.715858 
L 345.572939 -129.063098 
L 346.605657 -126.441119 
L 347.638375 -123.851704 
L 348.671094 -121.296535 
L 349.703812 -118.777189 
L 350.73653 -116.295143 
L 351.769248 -113.851768 
L 352.801966 -111.448335 
L 353.834684 -109.086012 
L 354.867403 -106.765867 
L 355.900121 -104.488868 
L 356.932839 -102.255883 
L 357.965557 -100.067686 
L 358.998275 -97.924953 
L 360.030993 -95.828269 
L 361.063712 -93.778126 
L 362.09643 -91.774929 
L 363.129148 -89.818996 
L 364.161866 -87.91056 
L 365.194584 -86.049774 
L 366.227302 -84.23671 
L 367.260021 -82.471368 
L 368.292739 -80.753673 
L 369.325457 -79.083481 
L 370.358175 -77.460579 
L 371.390893 -75.884694 
L 372.423611 -74.35549 
L 373.456329 -72.872576 
L 374.489048 -71.435504 
L 375.521766 -70.043777 
L 376.554484 -68.69685 
L 377.587202 -67.394133 
L 378.61992 -66.134995 
L 379.652638 -64.918768 
L 380.685357 -63.744746 
L 381.718075 -62.612192 
L 382.750793 -61.520341 
L 383.783511 -60.4684 
L 384.816229 -59.455553 
L 385.848947 -58.480964 
L 386.881666 -57.543777 
L 387.914384 -56.643124 
L 388.947102 -55.778121 
L 389.97982 -54.947874 
L 391.012538 -54.151481 
L 392.045256 -53.388035 
L 393.077974 -52.656624 
L 394.110693 -51.956335 
L 395.143411 -51.286254 
L 396.176129 -50.645471 
L 397.208847 -50.033078 
L 398.241565 -49.448173 
L 399.274283 -48.88986 
L 400.307002 -48.357254 
L 401.33972 -47.849476 
L 402.372438 -47.365661 
L 403.405156 -46.904954 
L 404.437874 -46.466514 
L 405.470592 -46.049514 
L 406.503311 -45.653142 
L 407.536029 -45.276601 
L 408.568747 -44.919112 
L 409.601465 -44.579912 
L 410.634183 -44.258254 
L 411.666901 -43.953412 
L 412.69962 -43.664676 
L 413.732338 -43.391356 
L 414.765056 -43.132781 
L 415.797774 -42.888298 
L 416.830492 -42.657274 
L 417.86321 -42.439095 
L 418.895928 -42.233168 
L 419.928647 -42.038916 
L 420.961365 -41.855785 
L 421.994083 -41.683238 
L 423.026801 -41.520756 
L 424.059519 -41.367842 
L 425.092237 -41.224014 
L 426.124956 -41.088811 
L 427.157674 -40.961789 
L 428.190392 -40.84252 
L 429.22311 -40.730596 
L 430.255828 -40.625625 
L 431.288546 -40.527231 
L 432.321265 -40.435054 
L 433.353983 -40.348751 
L 434.386701 -40.267993 
L 435.419419 -40.192468 
L 436.452137 -40.121876 
L 437.484855 -40.055932 
L 438.517573 -39.994366 
L 439.550292 -39.936918 
L 440.58301 -39.883345 
L 441.615728 -39.833413 
L 442.648446 -39.7869 
L 443.681164 -39.743597 
L 444.713882 -39.703305 
L 445.746601 -39.665836 
L 446.779319 -39.631012 
L 447.812037 -39.598664 
L 448.844755 -39.568632 
L 449.877473 -39.540767 
L 450.910191 -39.514927 
L 451.94291 -39.490978 
L 452.975628 -39.468794 
L 454.008346 -39.448256 
L 455.041064 -39.429253 
L 456.073782 -39.41168 
L 457.1065 -39.395438 
L 458.139219 -39.380435 
L 459.171937 -39.366584 
L 460.204655 -39.353804 
L 461.237373 -39.342018 
L 462.270091 -39.331156 
L 463.302809 -39.321149 
L 464.335527 -39.311937 
L 465.368246 -39.30346 
L 466.400964 -39.295665 
L 467.433682 -39.2885 
L 468.4664 -39.281918 
L 469.499118 -39.275875 
L 470.531836 -39.270329 
L 471.564555 -39.265244 
L 472.597273 -39.260583 
L 472.597273 -39.212727 
L 472.597273 -39.212727 
L 471.564555 -39.212727 
L 470.531836 -39.212727 
L 469.499118 -39.212727 
L 468.4664 -39.212727 
L 467.433682 -39.212727 
L 466.400964 -39.212727 
L 465.368246 -39.212727 
L 464.335527 -39.212727 
L 463.302809 -39.212727 
L 462.270091 -39.212727 
L 461.237373 -39.212727 
L 460.204655 -39.212727 
L 459.171937 -39.212727 
L 458.139219 -39.212727 
L 457.1065 -39.212727 
L 456.073782 -39.212727 
L 455.041064 -39.212727 
L 454.008346 -39.212727 
L 452.975628 -39.212727 
L 451.94291 -39.212727 
L 450.910191 -39.212727 
L 449.877473 -39.212727 
L 448.844755 -39.212727 
L 447.812037 -39.212727 
L 446.779319 -39.212727 
L 445.746601 -39.212727 
L 444.713882 -39.212727 
L 443.681164 -39.212727 
L 442.648446 -39.212727 
L 441.615728 -39.212727 
L 440.58301 -39.212727 
L 439.550292 -39.212727 
L 438.517573 -39.212727 
L 437.484855 -39.212727 
L 436.452137 -39.212727 
L 435.419419 -39.212727 
L 434.386701 -39.212727 
L 433.353983 -39.212727 
L 432.321265 -39.212727 
L 431.288546 -39.212727 
L 430.255828 -39.212727 
L 429.22311 -39.212727 
L 428.190392 -39.212727 
L 427.157674 -39.212727 
L 426.124956 -39.212727 
L 425.092237 -39.212727 
L 424.059519 -39.212727 
L 423.026801 -39.212727 
L 421.994083 -39.212727 
L 420.961365 -39.212727 
L 419.928647 -39.212727 
L 418.895928 -39.212727 
L 417.86321 -39.212727 
L 416.830492 -39.212727 
L 415.797774 -39.212727 
L 414.765056 -39.212727 
L 413.732338 -39.212727 
L 412.69962 -39.212727 
L 411.666901 -39.212727 
L 410.634183 -39.212727 
L 409.601465 -39.212727 
L 408.568747 -39.212727 
L 407.536029 -39.212727 
L 406.503311 -39.212727 
L 405.470592 -39.212727 
L 404.437874 -39.212727 
L 403.405156 -39.212727 
L 402.372438 -39.212727 
L 401.33972 -39.212727 
L 400.307002 -39.212727 
L 399.274283 -39.212727 
L 398.241565 -39.212727 
L 397.208847 -39.212727 
L 396.176129 -39.212727 
L 395.143411 -39.212727 
L 394.110693 -39.212727 
L 393.077974 -39.212727 
L 392.045256 -39.212727 
L 391.012538 -39.212727 
L 389.97982 -39.212727 
L 388.947102 -39.212727 
L 387.914384 -39.212727 
L 386.881666 -39.212727 
L 385.848947 -39.212727 
L 384.816229 -39.212727 
L 383.783511 -39.212727 
L 382.750793 -39.212727 
L 381.718075 -39.212727 
L 380.685357 -39.212727 
L 379.652638 -39.212727 
L 378.61992 -39.212727 
L 377.587202 -39.212727 
L 376.554484 -39.212727 
L 375.521766 -39.212727 
L 374.489048 -39.212727 
L 373.456329 -39.212727 
L 372.423611 -39.212727 
L 371.390893 -39.212727 
L 370.358175 -39.212727 
L 369.325457 -39.212727 
L 368.292739 -39.212727 
L 367.260021 -39.212727 
L 366.227302 -39.212727 
L 365.194584 -39.212727 
L 364.161866 -39.212727 
L 363.129148 -39.212727 
L 362.09643 -39.212727 
L 361.063712 -39.212727 
L 360.030993 -39.212727 
L 358.998275 -39.212727 
L 357.965557 -39.212727 
L 356.932839 -39.212727 
L 355.900121 -39.212727 
L 354.867403 -39.212727 
L 353.834684 -39.212727 
L 352.801966 -39.212727 
L 351.769248 -39.212727 
L 350.73653 -39.212727 
L 349.703812 -39.212727 
L 348.671094 -39.212727 
L 347.638375 -39.212727 
L 346.605657 -39.212727 
L 345.572939 -39.212727 
L 344.540221 -39.212727 
L 343.507503 -39.212727 
L 342.474785 -39.212727 
L 341.442067 -39.212727 
L 340.409348 -39.212727 
L 339.37663 -39.212727 
L 338.343912 -39.212727 
L 337.311194 -39.212727 
L 336.278476 -39.212727 
L 335.245758 -39.212727 
L 334.213039 -39.212727 
L 333.180321 -39.212727 
L 332.147603 -39.212727 
L 331.114885 -39.212727 
L 330.082167 -39.212727 
L 329.049449 -39.212727 
L 328.01673 -39.212727 
L 326.984012 -39.212727 
L 325.951294 -39.212727 
L 324.918576 -39.212727 
L 323.885858 -39.212727 
L 322.85314 -39.212727 
L 321.820422 -39.212727 
L 320.787703 -39.212727 
L 319.754985 -39.212727 
L 318.722267 -39.212727 
L 317.689549 -39.212727 
L 316.656831 -39.212727 
L 315.624113 -39.212727 
L 314.591394 -39.212727 
L 313.558676 -39.212727 
L 312.525958 -39.212727 
L 311.49324 -39.212727 
L 310.460522 -39.212727 
L 309.427804 -39.212727 
L 308.395085 -39.212727 
L 307.362367 -39.212727 
L 306.329649 -39.212727 
L 305.296931 -39.212727 
L 304.264213 -39.212727 
L 303.231495 -39.212727 
L 302.198776 -39.212727 
L 301.166058 -39.212727 
L 300.13334 -39.212727 
L 299.100622 -39.212727 
L 298.067904 -39.212727 
L 297.035186 -39.212727 
L 296.002468 -39.212727 
L 294.969749 -39.212727 
L 293.937031 -39.212727 
L 292.904313 -39.212727 
L 291.871595 -39.212727 
L 290.838877 -39.212727 
L 289.806159 -39.212727 
L 288.77344 -39.212727 
L 287.740722 -39.212727 
L 286.708004 -39.212727 
L 285.675286 -39.212727 
L 284.642568 -39.212727 
L 283.60985 -39.212727 
L 282.577131 -39.212727 
L 281.544413 -39.212727 
L 280.511695 -39.212727 
L 279.478977 -39.212727 
L 278.446259 -39.212727 
L 277.413541 -39.212727 
L 276.380823 -39.212727 
L 275.348104 -39.212727 
L 274.315386 -39.212727 
L 273.282668 -39.212727 
L 272.24995 -39.212727 
L 271.217232 -39.212727 
L 270.184514 -39.212727 
L 269.151795 -39.212727 
L 268.119077 -39.212727 
L 267.086359 -39.212727 
L 266.053641 -39.212727 
L 265.020923 -39.212727 
L 263.988205 -39.212727 
L 262.955486 -39.212727 
L 261.922768 -39.212727 
L 260.89005 -39.212727 
L 259.857332 -39.212727 
L 258.824614 -39.212727 
L 257.791896 -39.212727 
L 256.759177 -39.212727 
L 255.726459 -39.212727 
L 254.693741 -39.212727 
L 253.661023 -39.212727 
L 252.628305 -39.212727 
L 251.595587 -39.212727 
L 250.562869 -39.212727 
L 249.53015 -39.212727 
L 248.497432 -39.212727 
L 247.464714 -39.212727 
L 246.431996 -39.212727 
L 245.399278 -39.212727 
L 244.36656 -39.212727 
L 243.333841 -39.212727 
L 242.301123 -39.212727 
L 241.268405 -39.212727 
L 240.235687 -39.212727 
L 239.202969 -39.212727 
L 238.170251 -39.212727 
L 237.137532 -39.212727 
L 236.104814 -39.212727 
L 235.072096 -39.212727 
L 234.039378 -39.212727 
L 233.00666 -39.212727 
L 231.973942 -39.212727 
L 230.941224 -39.212727 
L 229.908505 -39.212727 
L 228.875787 -39.212727 
L 227.843069 -39.212727 
L 226.810351 -39.212727 
L 225.777633 -39.212727 
L 224.744915 -39.212727 
L 223.712196 -39.212727 
L 222.679478 -39.212727 
L 221.64676 -39.212727 
L 220.614042 -39.212727 
L 219.581324 -39.212727 
L 218.548606 -39.212727 
L 217.515887 -39.212727 
L 216.483169 -39.212727 
L 215.450451 -39.212727 
L 214.417733 -39.212727 
L 213.385015 -39.212727 
L 212.352297 -39.212727 
L 211.319578 -39.212727 
L 210.28686 -39.212727 
L 209.254142 -39.212727 
L 208.221424 -39.212727 
L 207.188706 -39.212727 
L 206.155988 -39.212727 
L 205.12327 -39.212727 
L 204.090551 -39.212727 
L 203.057833 -39.212727 
L 202.025115 -39.212727 
L 200.992397 -39.212727 
L 199.959679 -39.212727 
L 198.926961 -39.212727 
L 197.894242 -39.212727 
L 196.861524 -39.212727 
L 195.828806 -39.212727 
L 194.796088 -39.212727 
L 193.76337 -39.212727 
L 192.730652 -39.212727 
L 191.697933 -39.212727 
L 190.665215 -39.212727 
L 189.632497 -39.212727 
L 188.599779 -39.212727 
L 187.567061 -39.212727 
L 186.534343 -39.212727 
L 185.501625 -39.212727 
L 184.468906 -39.212727 
L 183.436188 -39.212727 
L 182.40347 -39.212727 
L 181.370752 -39.212727 
L 180.338034 -39.212727 
L 179.305316 -39.212727 
L 178.272597 -39.212727 
L 177.239879 -39.212727 
L 176.207161 -39.212727 
L 175.174443 -39.212727 
L 174.141725 -39.212727 
L 173.109007 -39.212727 
L 172.076288 -39.212727 
L 171.04357 -39.212727 
L 170.010852 -39.212727 
L 168.978134 -39.212727 
L 167.945416 -39.212727 
L 166.912698 -39.212727 
L 165.879979 -39.212727 
L 164.847261 -39.212727 
L 163.814543 -39.212727 
L 162.781825 -39.212727 
L 161.749107 -39.212727 
L 160.716389 -39.212727 
L 159.683671 -39.212727 
L 158.650952 -39.212727 
L 157.618234 -39.212727 
L 156.585516 -39.212727 
L 155.552798 -39.212727 
L 154.52008 -39.212727 
L 153.487362 -39.212727 
L 152.454643 -39.212727 
L 151.421925 -39.212727 
L 150.389207 -39.212727 
L 149.356489 -39.212727 
L 148.323771 -39.212727 
L 147.291053 -39.212727 
L 146.258334 -39.212727 
L 145.225616 -39.212727 
L 144.192898 -39.212727 
L 143.16018 -39.212727 
L 142.127462 -39.212727 
L 141.094744 -39.212727 
L 140.062026 -39.212727 
L 139.029307 -39.212727 
L 137.996589 -39.212727 
L 136.963871 -39.212727 
L 135.931153 -39.212727 
L 134.898435 -39.212727 
L 133.865717 -39.212727 
L 132.832998 -39.212727 
L 131.80028 -39.212727 
L 130.767562 -39.212727 
L 129.734844 -39.212727 
L 128.702126 -39.212727 
L 127.669408 -39.212727 
L 126.636689 -39.212727 
L 125.603971 -39.212727 
L 124.571253 -39.212727 
L 123.538535 -39.212727 
L 122.505817 -39.212727 
L 121.473099 -39.212727 
L 120.44038 -39.212727 
L 119.407662 -39.212727 
L 118.374944 -39.212727 
L 117.342226 -39.212727 
L 116.309508 -39.212727 
L 115.27679 -39.212727 
L 114.244072 -39.212727 
L 113.211353 -39.212727 
L 112.178635 -39.212727 
L 111.145917 -39.212727 
L 110.113199 -39.212727 
L 109.080481 -39.212727 
L 108.047763 -39.212727 
L 107.015044 -39.212727 
L 105.982326 -39.212727 
L 104.949608 -39.212727 
L 103.91689 -39.212727 
L 102.884172 -39.212727 
L 101.851454 -39.212727 
L 100.818735 -39.212727 
L 99.786017 -39.212727 
L 98.753299 -39.212727 
L 97.720581 -39.212727 
L 96.687863 -39.212727 
L 95.655145 -39.212727 
L 94.622427 -39.212727 
L 93.589708 -39.212727 
L 92.55699 -39.212727 
L 91.524272 -39.212727 
L 90.491554 -39.212727 
L 89.458836 -39.212727 
L 88.426118 -39.212727 
L 87.393399 -39.212727 
L 86.360681 -39.212727 
L 85.327963 -39.212727 
L 84.295245 -39.212727 
L 83.262527 -39.212727 
L 82.229809 -39.212727 
L 81.19709 -39.212727 
L 80.164372 -39.212727 
L 79.131654 -39.212727 
L 78.098936 -39.212727 
L 77.066218 -39.212727 
L 76.0335 -39.212727 
L 75.000781 -39.212727 
L 73.968063 -39.212727 
L 72.935345 -39.212727 
L 71.902627 -39.212727 
L 70.869909 -39.212727 
L 69.837191 -39.212727 
L 68.804473 -39.212727 
L 67.771754 -39.212727 
L 66.739036 -39.212727 
L 65.706318 -39.212727 
L 64.6736 -39.212727 
L 63.640882 -39.212727 
L 62.608164 -39.212727 
L 61.575445 -39.212727 
L 60.542727 -39.212727 
z
" style="stroke: #feffb3; stroke-opacity: 0.5"/>
    </defs>
    <g clip-path="url(#pf2d4560689)">
     <use xlink:href="#m8768835c72" x="0" y="288" style="fill: #feffb3; fill-opacity: 0.5; stroke: #feffb3; stroke-opacity: 0.5"/>
    </g>
   </g>
   <g id="matplotlib.axis_1">
    <g id="xtick_1">
     <g id="line2d_1">
      <defs>
       <path id="m6049040719" d="M 0 0 
L 0 3.5 
" style="stroke: #ffffff; stroke-width: 0.8"/>
      </defs>
      <g>
       <use xlink:href="#m6049040719" x="101.748182" y="260.12" style="fill: #ffffff; stroke: #ffffff; stroke-width: 0.8"/>
      </g>
     </g>
     <g id="text_1">
      <!-- −4 -->
      <g style="fill: #ffffff" transform="translate(94.377088 274.718437) scale(0.1 -0.1)">
       <defs>
        <path id="DejaVuSans-2212" d="M 678 2272 
L 4684 2272 
L 4684 1741 
L 678 1741 
L 678 2272 
z
" transform="scale(0.015625)"/>
        <path id="DejaVuSans-34" d="M 2419 4116 
L 825 1625 
L 2419 1625 
L 2419 4116 
z
M 2253 4666 
L 3047 4666 
L 3047 1625 
L 3713 1625 
L 3713 1100 
L 3047 1100 
L 3047 0 
L 2419 0 
L 2419 1100 
L 313 1100 
L 313 1709 
L 2253 4666 
z
" transform="scale(0.015625)"/>
       </defs>
       <use xlink:href="#DejaVuSans-2212"/>
       <use xlink:href="#DejaVuSans-34" transform="translate(83.789062 0)"/>
      </g>
     </g>
    </g>
    <g id="xtick_2">
     <g id="line2d_2">
      <g>
       <use xlink:href="#m6049040719" x="184.159091" y="260.12" style="fill: #ffffff; stroke: #ffffff; stroke-width: 0.8"/>
      </g>
     </g>
     <g id="text_2">
      <!-- −2 -->
      <g style="fill: #ffffff" transform="translate(176.787997 274.718437) scale(0.1 -0.1)">
       <defs>
        <path id="DejaVuSans-32" d="M 1228 531 
L 3431 531 
L 3431 0 
L 469 0 
L 469 531 
Q 828 903 1448 1529 
Q 2069 2156 2228 2338 
Q 2531 2678 2651 2914 
Q 2772 3150 2772 3378 
Q 2772 3750 2511 3984 
Q 2250 4219 1831 4219 
Q 1534 4219 1204 4116 
Q 875 4013 500 3803 
L 500 4441 
Q 881 4594 1212 4672 
Q 1544 4750 1819 4750 
Q 2544 4750 2975 4387 
Q 3406 4025 3406 3419 
Q 3406 3131 3298 2873 
Q 3191 2616 2906 2266 
Q 2828 2175 2409 1742 
Q 1991 1309 1228 531 
z
" transform="scale(0.015625)"/>
       </defs>
       <use xlink:href="#DejaVuSans-2212"/>
       <use xlink:href="#DejaVuSans-32" transform="translate(83.789062 0)"/>
      </g>
     </g>
    </g>
    <g id="xtick_3">
     <g id="line2d_3">
      <g>
       <use xlink:href="#m6049040719" x="266.57" y="260.12" style="fill: #ffffff; stroke: #ffffff; stroke-width: 0.8"/>
      </g>
     </g>
     <g id="text_3">
      <!-- 0 -->
      <g style="fill: #ffffff" transform="translate(263.38875 274.718437) scale(0.1 -0.1)">
       <defs>
        <path id="DejaVuSans-30" d="M 2034 4250 
Q 1547 4250 1301 3770 
Q 1056 3291 1056 2328 
Q 1056 1369 1301 889 
Q 1547 409 2034 409 
Q 2525 409 2770 889 
Q 3016 1369 3016 2328 
Q 3016 3291 2770 3770 
Q 2525 4250 2034 4250 
z
M 2034 4750 
Q 2819 4750 3233 4129 
Q 3647 3509 3647 2328 
Q 3647 1150 3233 529 
Q 2819 -91 2034 -91 
Q 1250 -91 836 529 
Q 422 1150 422 2328 
Q 422 3509 836 4129 
Q 1250 4750 2034 4750 
z
" transform="scale(0.015625)"/>
       </defs>
       <use xlink:href="#DejaVuSans-30"/>
      </g>
     </g>
    </g>
    <g id="xtick_4">
     <g id="line2d_4">
      <g>
       <use xlink:href="#m6049040719" x="348.980909" y="260.12" style="fill: #ffffff; stroke: #ffffff; stroke-width: 0.8"/>
      </g>
     </g>
     <g id="text_4">
      <!-- 2 -->
      <g style="fill: #ffffff" transform="translate(345.799659 274.718437) scale(0.1 -0.1)">
       <use xlink:href="#DejaVuSans-32"/>
      </g>
     </g>
    </g>
    <g id="xtick_5">
     <g id="line2d_5">
      <g>
       <use xlink:href="#m6049040719" x="431.391818" y="260.12" style="fill: #ffffff; stroke: #ffffff; stroke-width: 0.8"/>
      </g>
     </g>
     <g id="text_5">
      <!-- 4 -->
      <g style="fill: #ffffff" transform="translate(428.210568 274.718437) scale(0.1 -0.1)">
       <use xlink:href="#DejaVuSans-34"/>
      </g>
     </g>
    </g>
   </g>
   <g id="matplotlib.axis_2">
    <g id="ytick_1">
     <g id="line2d_6">
      <defs>
       <path id="md30de922a8" d="M 0 0 
L -3.5 0 
" style="stroke: #ffffff; stroke-width: 0.8"/>
      </defs>
      <g>
       <use xlink:href="#md30de922a8" x="39.94" y="248.787273" style="fill: #ffffff; stroke: #ffffff; stroke-width: 0.8"/>
      </g>
     </g>
     <g id="text_6">
      <!-- 0.00 -->
      <g style="fill: #ffffff" transform="translate(10.674375 252.586491) scale(0.1 -0.1)">
       <defs>
        <path id="DejaVuSans-2e" d="M 684 794 
L 1344 794 
L 1344 0 
L 684 0 
L 684 794 
z
" transform="scale(0.015625)"/>
       </defs>
       <use xlink:href="#DejaVuSans-30"/>
       <use xlink:href="#DejaVuSans-2e" transform="translate(63.623047 0)"/>
       <use xlink:href="#DejaVuSans-30" transform="translate(95.410156 0)"/>
       <use xlink:href="#DejaVuSans-30" transform="translate(159.033203 0)"/>
      </g>
     </g>
    </g>
    <g id="ytick_2">
     <g id="line2d_7">
      <g>
       <use xlink:href="#md30de922a8" x="39.94" y="220.378108" style="fill: #ffffff; stroke: #ffffff; stroke-width: 0.8"/>
      </g>
     </g>
     <g id="text_7">
      <!-- 0.05 -->
      <g style="fill: #ffffff" transform="translate(10.674375 224.177326) scale(0.1 -0.1)">
       <defs>
        <path id="DejaVuSans-35" d="M 691 4666 
L 3169 4666 
L 3169 4134 
L 1269 4134 
L 1269 2991 
Q 1406 3038 1543 3061 
Q 1681 3084 1819 3084 
Q 2600 3084 3056 2656 
Q 3513 2228 3513 1497 
Q 3513 744 3044 326 
Q 2575 -91 1722 -91 
Q 1428 -91 1123 -41 
Q 819 9 494 109 
L 494 744 
Q 775 591 1075 516 
Q 1375 441 1709 441 
Q 2250 441 2565 725 
Q 2881 1009 2881 1497 
Q 2881 1984 2565 2268 
Q 2250 2553 1709 2553 
Q 1456 2553 1204 2497 
Q 953 2441 691 2322 
L 691 4666 
z
" transform="scale(0.015625)"/>
       </defs>
       <use xlink:href="#DejaVuSans-30"/>
       <use xlink:href="#DejaVuSans-2e" transform="translate(63.623047 0)"/>
       <use xlink:href="#DejaVuSans-30" transform="translate(95.410156 0)"/>
       <use xlink:href="#DejaVuSans-35" transform="translate(159.033203 0)"/>
      </g>
     </g>
    </g>
    <g id="ytick_3">
     <g id="line2d_8">
      <g>
       <use xlink:href="#md30de922a8" x="39.94" y="191.968942" style="fill: #ffffff; stroke: #ffffff; stroke-width: 0.8"/>
      </g>
     </g>
     <g id="text_8">
      <!-- 0.10 -->
      <g style="fill: #ffffff" transform="translate(10.674375 195.768161) scale(0.1 -0.1)">
       <defs>
        <path id="DejaVuSans-31" d="M 794 531 
L 1825 531 
L 1825 4091 
L 703 3866 
L 703 4441 
L 1819 4666 
L 2450 4666 
L 2450 531 
L 3481 531 
L 3481 0 
L 794 0 
L 794 531 
z
" transform="scale(0.015625)"/>
       </defs>
       <use xlink:href="#DejaVuSans-30"/>
       <use xlink:href="#DejaVuSans-2e" transform="translate(63.623047 0)"/>
       <use xlink:href="#DejaVuSans-31" transform="translate(95.410156 0)"/>
       <use xlink:href="#DejaVuSans-30" transform="translate(159.033203 0)"/>
      </g>
     </g>
    </g>
    <g id="ytick_4">
     <g id="line2d_9">
      <g>
       <use xlink:href="#md30de922a8" x="39.94" y="163.559777" style="fill: #ffffff; stroke: #ffffff; stroke-width: 0.8"/>
      </g>
     </g>
     <g id="text_9">
      <!-- 0.15 -->
      <g style="fill: #ffffff" transform="translate(10.674375 167.358996) scale(0.1 -0.1)">
       <use xlink:href="#DejaVuSans-30"/>
       <use xlink:href="#DejaVuSans-2e" transform="translate(63.623047 0)"/>
       <use xlink:href="#DejaVuSans-31" transform="translate(95.410156 0)"/>
       <use xlink:href="#DejaVuSans-35" transform="translate(159.033203 0)"/>
      </g>
     </g>
    </g>
    <g id="ytick_5">
     <g id="line2d_10">
      <g>
       <use xlink:href="#md30de922a8" x="39.94" y="135.150612" style="fill: #ffffff; stroke: #ffffff; stroke-width: 0.8"/>
      </g>
     </g>
     <g id="text_10">
      <!-- 0.20 -->
      <g style="fill: #ffffff" transform="translate(10.674375 138.949831) scale(0.1 -0.1)">
       <use xlink:href="#DejaVuSans-30"/>
       <use xlink:href="#DejaVuSans-2e" transform="translate(63.623047 0)"/>
       <use xlink:href="#DejaVuSans-32" transform="translate(95.410156 0)"/>
       <use xlink:href="#DejaVuSans-30" transform="translate(159.033203 0)"/>
      </g>
     </g>
    </g>
    <g id="ytick_6">
     <g id="line2d_11">
      <g>
       <use xlink:href="#md30de922a8" x="39.94" y="106.741447" style="fill: #ffffff; stroke: #ffffff; stroke-width: 0.8"/>
      </g>
     </g>
     <g id="text_11">
      <!-- 0.25 -->
      <g style="fill: #ffffff" transform="translate(10.674375 110.540666) scale(0.1 -0.1)">
       <use xlink:href="#DejaVuSans-30"/>
       <use xlink:href="#DejaVuSans-2e" transform="translate(63.623047 0)"/>
       <use xlink:href="#DejaVuSans-32" transform="translate(95.410156 0)"/>
       <use xlink:href="#DejaVuSans-35" transform="translate(159.033203 0)"/>
      </g>
     </g>
    </g>
    <g id="ytick_7">
     <g id="line2d_12">
      <g>
       <use xlink:href="#md30de922a8" x="39.94" y="78.332282" style="fill: #ffffff; stroke: #ffffff; stroke-width: 0.8"/>
      </g>
     </g>
     <g id="text_12">
      <!-- 0.30 -->
      <g style="fill: #ffffff" transform="translate(10.674375 82.131501) scale(0.1 -0.1)">
       <defs>
        <path id="DejaVuSans-33" d="M 2597 2516 
Q 3050 2419 3304 2112 
Q 3559 1806 3559 1356 
Q 3559 666 3084 287 
Q 2609 -91 1734 -91 
Q 1441 -91 1130 -33 
Q 819 25 488 141 
L 488 750 
Q 750 597 1062 519 
Q 1375 441 1716 441 
Q 2309 441 2620 675 
Q 2931 909 2931 1356 
Q 2931 1769 2642 2001 
Q 2353 2234 1838 2234 
L 1294 2234 
L 1294 2753 
L 1863 2753 
Q 2328 2753 2575 2939 
Q 2822 3125 2822 3475 
Q 2822 3834 2567 4026 
Q 2313 4219 1838 4219 
Q 1578 4219 1281 4162 
Q 984 4106 628 3988 
L 628 4550 
Q 988 4650 1302 4700 
Q 1616 4750 1894 4750 
Q 2613 4750 3031 4423 
Q 3450 4097 3450 3541 
Q 3450 3153 3228 2886 
Q 3006 2619 2597 2516 
z
" transform="scale(0.015625)"/>
       </defs>
       <use xlink:href="#DejaVuSans-30"/>
       <use xlink:href="#DejaVuSans-2e" transform="translate(63.623047 0)"/>
       <use xlink:href="#DejaVuSans-33" transform="translate(95.410156 0)"/>
       <use xlink:href="#DejaVuSans-30" transform="translate(159.033203 0)"/>
      </g>
     </g>
    </g>
    <g id="ytick_8">
     <g id="line2d_13">
      <g>
       <use xlink:href="#md30de922a8" x="39.94" y="49.923117" style="fill: #ffffff; stroke: #ffffff; stroke-width: 0.8"/>
      </g>
     </g>
     <g id="text_13">
      <!-- 0.35 -->
      <g style="fill: #ffffff" transform="translate(10.674375 53.722336) scale(0.1 -0.1)">
       <use xlink:href="#DejaVuSans-30"/>
       <use xlink:href="#DejaVuSans-2e" transform="translate(63.623047 0)"/>
       <use xlink:href="#DejaVuSans-33" transform="translate(95.410156 0)"/>
       <use xlink:href="#DejaVuSans-35" transform="translate(159.033203 0)"/>
      </g>
     </g>
    </g>
    <g id="ytick_9">
     <g id="line2d_14">
      <g>
       <use xlink:href="#md30de922a8" x="39.94" y="21.513952" style="fill: #ffffff; stroke: #ffffff; stroke-width: 0.8"/>
      </g>
     </g>
     <g id="text_14">
      <!-- 0.40 -->
      <g style="fill: #ffffff" transform="translate(10.674375 25.31317) scale(0.1 -0.1)">
       <use xlink:href="#DejaVuSans-30"/>
       <use xlink:href="#DejaVuSans-2e" transform="translate(63.623047 0)"/>
       <use xlink:href="#DejaVuSans-34" transform="translate(95.410156 0)"/>
       <use xlink:href="#DejaVuSans-30" transform="translate(159.033203 0)"/>
      </g>
     </g>
    </g>
   </g>
   <g id="line2d_15">
    <path d="M 60.542727 248.786428 
L 105.982326 248.67318 
L 118.374944 248.435183 
L 126.636689 248.077541 
L 132.832998 247.617862 
L 137.996589 247.044692 
L 143.16018 246.23105 
L 147.291053 245.353173 
L 151.421925 244.219942 
L 154.52008 243.167934 
L 157.618234 241.912587 
L 160.716389 240.424211 
L 163.814543 238.670952 
L 166.912698 236.619118 
L 170.010852 234.233631 
L 173.109007 231.478612 
L 176.207161 228.318109 
L 179.305316 224.716971 
L 182.40347 220.641847 
L 185.501625 216.062326 
L 188.599779 210.952172 
L 191.697933 205.290635 
L 194.796088 199.063817 
L 197.894242 192.266023 
L 200.992397 184.901076 
L 204.090551 176.983518 
L 207.188706 168.539663 
L 211.319578 156.531641 
L 215.450451 143.787362 
L 220.614042 127.085734 
L 235.072096 79.542938 
L 239.202969 66.979301 
L 242.301123 58.209325 
L 245.399278 50.142471 
L 247.464714 45.216108 
L 249.53015 40.691081 
L 251.595587 36.599273 
L 253.661023 32.969941 
L 255.726459 29.829365 
L 257.791896 27.200534 
L 259.857332 25.102866 
L 261.922768 23.551966 
L 262.955486 22.98534 
L 263.988205 22.559435 
L 265.020923 22.275053 
L 266.053641 22.132727 
L 267.086359 22.132727 
L 268.119077 22.275053 
L 269.151795 22.559435 
L 270.184514 22.98534 
L 271.217232 23.551966 
L 272.24995 24.258249 
L 274.315386 26.084238 
L 276.380823 28.449681 
L 278.446259 31.337041 
L 280.511695 34.725081 
L 282.577131 38.58913 
L 284.642568 42.901378 
L 286.708004 47.631208 
L 289.806159 55.436033 
L 292.904313 63.985715 
L 296.002468 73.153058 
L 300.13334 86.109592 
L 306.329649 106.481554 
L 315.624113 137.190875 
L 320.787703 153.40864 
L 324.918576 165.61444 
L 329.049449 176.983518 
L 332.147603 184.901076 
L 335.245758 192.266023 
L 338.343912 199.063817 
L 341.442067 205.290635 
L 344.540221 210.952172 
L 347.638375 216.062326 
L 350.73653 220.641847 
L 353.834684 224.716971 
L 356.932839 228.318109 
L 360.030993 231.478612 
L 363.129148 234.233631 
L 366.227302 236.619118 
L 369.325457 238.670952 
L 372.423611 240.424211 
L 375.521766 241.912587 
L 378.61992 243.167934 
L 381.718075 244.219942 
L 385.848947 245.353173 
L 389.97982 246.23105 
L 394.110693 246.903538 
L 399.274283 247.51916 
L 405.470592 248.014732 
L 412.69962 248.366158 
L 423.026801 248.619487 
L 439.550292 248.753499 
L 472.597273 248.786428 
L 472.597273 248.786428 
" clip-path="url(#pf2d4560689)" style="fill: none; stroke: #8dd3c7; stroke-width: 2; stroke-linecap: square"/>
   </g>
   <g id="line2d_16">
    <path d="M 60.542727 248.786505 
L 111.145917 248.677887 
L 125.603971 248.428465 
L 134.898435 248.057515 
L 142.127462 247.555999 
L 148.323771 246.898044 
L 153.487362 246.126387 
L 157.618234 245.320212 
L 161.749107 244.307155 
L 165.879979 243.045974 
L 168.978134 241.909728 
L 172.076288 240.587012 
L 175.174443 239.05548 
L 178.272597 237.291743 
L 181.370752 235.271651 
L 184.468906 232.97064 
L 187.567061 230.364162 
L 190.665215 227.428179 
L 193.76337 224.139731 
L 196.861524 220.477567 
L 199.959679 216.422838 
L 203.057833 211.959824 
L 206.155988 207.076698 
L 209.254142 201.766295 
L 212.352297 196.026873 
L 215.450451 189.862837 
L 218.548606 183.285399 
L 222.679478 173.905672 
L 226.810351 163.890869 
L 230.941224 153.332808 
L 236.104814 139.553414 
L 253.661023 92.001971 
L 257.791896 81.76848 
L 260.89005 74.609355 
L 263.988205 67.990037 
L 267.086359 61.993922 
L 269.151795 58.381297 
L 271.217232 55.101408 
L 273.282668 52.173708 
L 275.348104 49.615761 
L 277.413541 47.443058 
L 279.478977 45.668864 
L 281.544413 44.304083 
L 283.60985 43.357148 
L 285.675286 42.833932 
L 287.740722 42.737686 
L 289.806159 43.06901 
L 291.871595 43.825843 
L 293.937031 45.003485 
L 296.002468 46.594647 
L 298.067904 48.589524 
L 300.13334 50.975899 
L 302.198776 53.739263 
L 304.264213 56.862966 
L 306.329649 60.328381 
L 308.395085 64.115091 
L 311.49324 70.349061 
L 314.591394 77.17625 
L 317.689549 84.511531 
L 321.820422 94.928786 
L 326.984012 108.672534 
L 344.540221 156.284142 
L 348.671094 166.703465 
L 352.801966 176.551665 
L 356.932839 185.744117 
L 360.030993 192.171731 
L 363.129148 198.181004 
L 366.227302 203.76329 
L 369.325457 208.916519 
L 372.423611 213.64451 
L 375.521766 217.956223 
L 378.61992 221.865005 
L 381.718075 225.387808 
L 384.816229 228.544447 
L 387.914384 231.356876 
L 391.012538 233.848519 
L 394.110693 236.043665 
L 397.208847 237.966922 
L 400.307002 239.642746 
L 403.405156 241.095046 
L 406.503311 242.346858 
L 410.634183 243.741746 
L 414.765056 244.867219 
L 418.895928 245.766832 
L 424.059519 246.632158 
L 429.22311 247.269404 
L 435.419419 247.807532 
L 442.648446 248.2131 
L 451.94291 248.509022 
L 465.368246 248.69654 
L 472.597273 248.739417 
L 472.597273 248.739417 
" clip-path="url(#pf2d4560689)" style="fill: none; stroke: #feffb3; stroke-width: 2; stroke-linecap: square"/>
   </g>
   <g id="patch_3">
    <path d="M 39.94 260.12 
L 39.94 10.8 
" style="fill: none; stroke: #ffffff; stroke-width: 0.8; stroke-linejoin: miter; stroke-linecap: square"/>
   </g>
   <g id="patch_4">
    <path d="M 493.2 260.12 
L 493.2 10.8 
" style="fill: none; stroke: #ffffff; stroke-width: 0.8; stroke-linejoin: miter; stroke-linecap: square"/>
   </g>
   <g id="patch_5">
    <path d="M 39.94 260.12 
L 493.2 260.12 
" style="fill: none; stroke: #ffffff; stroke-width: 0.8; stroke-linejoin: miter; stroke-linecap: square"/>
   </g>
   <g id="patch_6">
    <path d="M 39.94 10.8 
L 493.2 10.8 
" style="fill: none; stroke: #ffffff; stroke-width: 0.8; stroke-linejoin: miter; stroke-linecap: square"/>
   </g>
   <g id="legend_1">
    <g id="patch_7">
     <path d="M 393.164062 48.15625 
L 486.2 48.15625 
Q 488.2 48.15625 488.2 46.15625 
L 488.2 17.8 
Q 488.2 15.8 486.2 15.8 
L 393.164062 15.8 
Q 391.164062 15.8 391.164062 17.8 
L 391.164062 46.15625 
Q 391.164062 48.15625 393.164062 48.15625 
z
" style="opacity: 0.8; stroke: #cccccc; stroke-linejoin: miter"/>
    </g>
    <g id="line2d_17">
     <path d="M 395.164062 23.898438 
L 405.164062 23.898438 
L 415.164062 23.898438 
" style="fill: none; stroke: #8dd3c7; stroke-width: 2; stroke-linecap: square"/>
    </g>
    <g id="text_15">
     <!-- Do nothing -->
     <g style="fill: #ffffff" transform="translate(423.164062 27.398438) scale(0.1 -0.1)">
      <defs>
       <path id="DejaVuSans-44" d="M 1259 4147 
L 1259 519 
L 2022 519 
Q 2988 519 3436 956 
Q 3884 1394 3884 2338 
Q 3884 3275 3436 3711 
Q 2988 4147 2022 4147 
L 1259 4147 
z
M 628 4666 
L 1925 4666 
Q 3281 4666 3915 4102 
Q 4550 3538 4550 2338 
Q 4550 1131 3912 565 
Q 3275 0 1925 0 
L 628 0 
L 628 4666 
z
" transform="scale(0.015625)"/>
       <path id="DejaVuSans-6f" d="M 1959 3097 
Q 1497 3097 1228 2736 
Q 959 2375 959 1747 
Q 959 1119 1226 758 
Q 1494 397 1959 397 
Q 2419 397 2687 759 
Q 2956 1122 2956 1747 
Q 2956 2369 2687 2733 
Q 2419 3097 1959 3097 
z
M 1959 3584 
Q 2709 3584 3137 3096 
Q 3566 2609 3566 1747 
Q 3566 888 3137 398 
Q 2709 -91 1959 -91 
Q 1206 -91 779 398 
Q 353 888 353 1747 
Q 353 2609 779 3096 
Q 1206 3584 1959 3584 
z
" transform="scale(0.015625)"/>
       <path id="DejaVuSans-20" transform="scale(0.015625)"/>
       <path id="DejaVuSans-6e" d="M 3513 2113 
L 3513 0 
L 2938 0 
L 2938 2094 
Q 2938 2591 2744 2837 
Q 2550 3084 2163 3084 
Q 1697 3084 1428 2787 
Q 1159 2491 1159 1978 
L 1159 0 
L 581 0 
L 581 3500 
L 1159 3500 
L 1159 2956 
Q 1366 3272 1645 3428 
Q 1925 3584 2291 3584 
Q 2894 3584 3203 3211 
Q 3513 2838 3513 2113 
z
" transform="scale(0.015625)"/>
       <path id="DejaVuSans-74" d="M 1172 4494 
L 1172 3500 
L 2356 3500 
L 2356 3053 
L 1172 3053 
L 1172 1153 
Q 1172 725 1289 603 
Q 1406 481 1766 481 
L 2356 481 
L 2356 0 
L 1766 0 
Q 1100 0 847 248 
Q 594 497 594 1153 
L 594 3053 
L 172 3053 
L 172 3500 
L 594 3500 
L 594 4494 
L 1172 4494 
z
" transform="scale(0.015625)"/>
       <path id="DejaVuSans-68" d="M 3513 2113 
L 3513 0 
L 2938 0 
L 2938 2094 
Q 2938 2591 2744 2837 
Q 2550 3084 2163 3084 
Q 1697 3084 1428 2787 
Q 1159 2491 1159 1978 
L 1159 0 
L 581 0 
L 581 4863 
L 1159 4863 
L 1159 2956 
Q 1366 3272 1645 3428 
Q 1925 3584 2291 3584 
Q 2894 3584 3203 3211 
Q 3513 2838 3513 2113 
z
" transform="scale(0.015625)"/>
       <path id="DejaVuSans-69" d="M 603 3500 
L 1178 3500 
L 1178 0 
L 603 0 
L 603 3500 
z
M 603 4863 
L 1178 4863 
L 1178 4134 
L 603 4134 
L 603 4863 
z
" transform="scale(0.015625)"/>
       <path id="DejaVuSans-67" d="M 2906 1791 
Q 2906 2416 2648 2759 
Q 2391 3103 1925 3103 
Q 1463 3103 1205 2759 
Q 947 2416 947 1791 
Q 947 1169 1205 825 
Q 1463 481 1925 481 
Q 2391 481 2648 825 
Q 2906 1169 2906 1791 
z
M 3481 434 
Q 3481 -459 3084 -895 
Q 2688 -1331 1869 -1331 
Q 1566 -1331 1297 -1286 
Q 1028 -1241 775 -1147 
L 775 -588 
Q 1028 -725 1275 -790 
Q 1522 -856 1778 -856 
Q 2344 -856 2625 -561 
Q 2906 -266 2906 331 
L 2906 616 
Q 2728 306 2450 153 
Q 2172 0 1784 0 
Q 1141 0 747 490 
Q 353 981 353 1791 
Q 353 2603 747 3093 
Q 1141 3584 1784 3584 
Q 2172 3584 2450 3431 
Q 2728 3278 2906 2969 
L 2906 3500 
L 3481 3500 
L 3481 434 
z
" transform="scale(0.015625)"/>
      </defs>
      <use xlink:href="#DejaVuSans-44"/>
      <use xlink:href="#DejaVuSans-6f" transform="translate(77.001953 0)"/>
      <use xlink:href="#DejaVuSans-20" transform="translate(138.183594 0)"/>
      <use xlink:href="#DejaVuSans-6e" transform="translate(169.970703 0)"/>
      <use xlink:href="#DejaVuSans-6f" transform="translate(233.349609 0)"/>
      <use xlink:href="#DejaVuSans-74" transform="translate(294.53125 0)"/>
      <use xlink:href="#DejaVuSans-68" transform="translate(333.740234 0)"/>
      <use xlink:href="#DejaVuSans-69" transform="translate(397.119141 0)"/>
      <use xlink:href="#DejaVuSans-6e" transform="translate(424.902344 0)"/>
      <use xlink:href="#DejaVuSans-67" transform="translate(488.28125 0)"/>
     </g>
    </g>
    <g id="line2d_18">
     <path d="M 395.164062 38.576562 
L 405.164062 38.576562 
L 415.164062 38.576562 
" style="fill: none; stroke: #feffb3; stroke-width: 2; stroke-linecap: square"/>
    </g>
    <g id="text_16">
     <!-- Intervention -->
     <g style="fill: #ffffff" transform="translate(423.164062 42.076562) scale(0.1 -0.1)">
      <defs>
       <path id="DejaVuSans-49" d="M 628 4666 
L 1259 4666 
L 1259 0 
L 628 0 
L 628 4666 
z
" transform="scale(0.015625)"/>
       <path id="DejaVuSans-65" d="M 3597 1894 
L 3597 1613 
L 953 1613 
Q 991 1019 1311 708 
Q 1631 397 2203 397 
Q 2534 397 2845 478 
Q 3156 559 3463 722 
L 3463 178 
Q 3153 47 2828 -22 
Q 2503 -91 2169 -91 
Q 1331 -91 842 396 
Q 353 884 353 1716 
Q 353 2575 817 3079 
Q 1281 3584 2069 3584 
Q 2775 3584 3186 3129 
Q 3597 2675 3597 1894 
z
M 3022 2063 
Q 3016 2534 2758 2815 
Q 2500 3097 2075 3097 
Q 1594 3097 1305 2825 
Q 1016 2553 972 2059 
L 3022 2063 
z
" transform="scale(0.015625)"/>
       <path id="DejaVuSans-72" d="M 2631 2963 
Q 2534 3019 2420 3045 
Q 2306 3072 2169 3072 
Q 1681 3072 1420 2755 
Q 1159 2438 1159 1844 
L 1159 0 
L 581 0 
L 581 3500 
L 1159 3500 
L 1159 2956 
Q 1341 3275 1631 3429 
Q 1922 3584 2338 3584 
Q 2397 3584 2469 3576 
Q 2541 3569 2628 3553 
L 2631 2963 
z
" transform="scale(0.015625)"/>
       <path id="DejaVuSans-76" d="M 191 3500 
L 800 3500 
L 1894 563 
L 2988 3500 
L 3597 3500 
L 2284 0 
L 1503 0 
L 191 3500 
z
" transform="scale(0.015625)"/>
      </defs>
      <use xlink:href="#DejaVuSans-49"/>
      <use xlink:href="#DejaVuSans-6e" transform="translate(29.492188 0)"/>
      <use xlink:href="#DejaVuSans-74" transform="translate(92.871094 0)"/>
      <use xlink:href="#DejaVuSans-65" transform="translate(132.080078 0)"/>
      <use xlink:href="#DejaVuSans-72" transform="translate(193.603516 0)"/>
      <use xlink:href="#DejaVuSans-76" transform="translate(234.716797 0)"/>
      <use xlink:href="#DejaVuSans-65" transform="translate(293.896484 0)"/>
      <use xlink:href="#DejaVuSans-6e" transform="translate(355.419922 0)"/>
      <use xlink:href="#DejaVuSans-74" transform="translate(418.798828 0)"/>
      <use xlink:href="#DejaVuSans-69" transform="translate(458.007812 0)"/>
      <use xlink:href="#DejaVuSans-6f" transform="translate(485.791016 0)"/>
      <use xlink:href="#DejaVuSans-6e" transform="translate(546.972656 0)"/>
     </g>
    </g>
   </g>
  </g>
 </g>
 <defs>
  <clipPath id="pf2d4560689">
   <rect x="39.94" y="10.8" width="453.26" height="249.32"/>
  </clipPath>
 </defs>
</svg>
